
<svg version="1.1" xmlns="http://www.w3.org/2000/svg" width="509" height="988">
<path d="M0 0 C2.22884192 0.54040367 4.45800473 1.0794857 6.6875 1.6171875 C7.75822754 1.8754834 8.82895508 2.1337793 9.93212891 2.39990234 C17.17701525 4.11224616 24.18251297 5.41106321 31.625 5.75 C32.34300781 5.78867188 33.06101562 5.82734375 33.80078125 5.8671875 C35.53352095 5.95960028 37.26672299 6.04328223 39 6.125 C39 6.785 39 7.445 39 8.125 C39.66 8.125 40.32 8.125 41 8.125 C40.125 15.75 40.125 15.75 39 19.125 C42.63 19.455 46.26 19.785 50 20.125 C50.33 19.465 50.66 18.805 51 18.125 C57.19508171 16.60545166 61.76469091 17.59587683 67.83984375 19.30859375 C71.00112826 20.12529148 74.07691151 20.5828966 77.3125 21 C82.83280518 21.84538705 85.73638301 23.58710505 90 27.125 C90.99 27.455 91.98 27.785 93 28.125 C93.33 28.785 93.66 29.445 94 30.125 C97.02934491 30.78272428 97.02934491 30.78272428 100 31.125 C100.95024979 27.42958414 100.95024979 24.82041586 100 21.125 C102.97 21.125 105.94 21.125 109 21.125 C109 20.465 109 19.805 109 19.125 C139.94760237 24.36900964 139.94760237 24.36900964 148 32.125 C150.08681543 36.62356751 150.45754096 40.49092514 149.125 45.25 C148.568125 46.178125 148.568125 46.178125 148 47.125 C148.66 47.455 149.32 47.785 150 48.125 C150 48.785 150 49.445 150 50.125 C148.35 49.465 146.7 48.805 145 48.125 C145 47.465 145 46.805 145 46.125 C144.34 46.125 143.68 46.125 143 46.125 C143 45.465 143 44.805 143 44.125 C141.35 44.125 139.7 44.125 138 44.125 C138.165 44.640625 138.33 45.15625 138.5 45.6875 C139.32380621 49.70355528 139.3842548 53.50259085 138.4375 57.5 C136.08028457 60.16467831 133.42656763 59.89269033 130 60.125 C128.33371045 60.16045297 126.66590197 60.17548188 125 60.125 C124.01 58.145 124.01 58.145 123 56.125 C122.67 56.125 122.34 56.125 122 56.125 C122 56.785 122 57.445 122 58.125 C120.58344207 58.1522415 119.16672955 58.17150467 117.75 58.1875 C116.56664062 58.20490234 116.56664062 58.20490234 115.359375 58.22265625 C113.09308998 58.12885306 111.1711105 57.75741063 109 57.125 C109 55.805 109 54.485 109 53.125 C108.236875 52.856875 107.47375 52.58875 106.6875 52.3125 C104 51.125 104 51.125 102.5625 49.625 C100.3466963 47.49782845 97.90918593 46.96543149 95 46.125 C95 45.465 95 44.805 95 44.125 C94.0925 43.83625 93.185 43.5475 92.25 43.25 C89 42.125 89 42.125 86.9375 40.9375 C84.31489033 39.83769594 82.70887884 40.43041568 80 41.125 C79.01 41.125 78.02 41.125 77 41.125 C75.47954159 43.11503803 75.47954159 43.11503803 75 46.125 C76.01998489 48.42762684 77.25702558 50.44817652 78.640625 52.55078125 C81.92419068 58.76879788 82.33331019 65.11621949 82.25 72 C82.24540771 72.79156494 82.24081543 73.58312988 82.23608398 74.39868164 C82.15892902 79.37696527 81.67526455 84.00714144 80.51171875 88.859375 C78.43216019 98.06658085 78.88610525 107.74766579 79 117.125 C77.35 117.455 75.7 117.785 74 118.125 C73.51801537 116.87608386 73.03954323 115.62581192 72.5625 114.375 C72.29566406 113.67890625 72.02882813 112.9828125 71.75390625 112.265625 C71.03634524 110.22819788 70.50587417 108.22358737 70 106.125 C69.75121094 105.26003906 69.50242187 104.39507812 69.24609375 103.50390625 C68.97925781 102.57449219 68.71242188 101.64507812 68.4375 100.6875 C68.16808594 99.76066406 67.89867187 98.83382812 67.62109375 97.87890625 C67.01497313 95.19139031 66.8854851 92.86837862 67 90.125 C66.01 90.125 65.02 90.125 64 90.125 C63.67 89.135 63.34 88.145 63 87.125 C62.23785517 85.68287465 61.46569961 84.2460256 60.6875 82.8125 C57.48313223 76.52485975 55.75432543 69.92668629 54 63.125 C53.34 63.125 52.68 63.125 52 63.125 C52.10828125 64.02992188 52.10828125 64.02992188 52.21875 64.953125 C52.3115625 65.75234375 52.404375 66.5515625 52.5 67.375 C52.5928125 68.16390625 52.685625 68.9528125 52.78125 69.765625 C53 72.125 53 72.125 53 76.125 C52.34 76.125 51.68 76.125 51 76.125 C51 76.785 51 77.445 51 78.125 C51.66 78.455 52.32 78.785 53 79.125 C53 83.415 53 87.705 53 92.125 C52.34 92.125 51.68 92.125 51 92.125 C51.53625 92.82625 52.0725 93.5275 52.625 94.25 C54 97.125 54 97.125 53.25 100.125 C52.8375 101.115 52.425 102.105 52 103.125 C50.21881218 108.95434197 51.47489383 115.10563953 52.5 121 C53.11888822 124.86805139 53.4163521 128.7325459 53.71875 132.63671875 C53.87592259 134.58609544 54.04225924 136.53498185 54.24278259 138.4803772 C54.90937856 145.09591344 55.1337852 151.61578899 55.09765625 158.26171875 C55.0962413 159.26717239 55.09482635 160.27262604 55.09336853 161.30854797 C55.0878326 164.47656404 55.07529266 167.64450579 55.0625 170.8125 C55.0574767 172.97851459 55.05291526 175.14453031 55.04882812 177.31054688 C55.03788428 182.58205602 55.02121154 187.8535227 55 193.125 C55.66 193.125 56.32 193.125 57 193.125 C56.7215625 194.2696875 56.7215625 194.2696875 56.4375 195.4375 C55.77180827 198.21467375 55.77180827 198.21467375 57 201.125 C56.34 201.125 55.68 201.125 55 201.125 C55.16371094 201.84196045 55.32742188 202.5589209 55.49609375 203.29760742 C55.99025162 206.07030232 56.09929528 208.5517643 56.0625 211.36328125 C56.05476563 212.34876953 56.04703125 213.33425781 56.0390625 214.34960938 C56.01316905 216.39648626 55.98712909 218.44336129 55.9609375 220.49023438 C55.92696655 224.83568486 55.90631802 229.06472519 56.53125 233.37109375 C57.02828219 237.35149324 56.85257607 240.88447997 56.5 244.875 C56.11510242 249.75527488 55.97600122 254.36371134 56.5 259.25 C57.09278384 264.79515516 56.73956642 270.04080498 56.25390625 275.5859375 C55.92555307 280.16267562 55.9699879 284.70002551 56.0625 289.28515625 C56 292.125 56 292.125 55.4375 294.80859375 C54.77794225 297.27015887 54.77794225 297.27015887 56 300.125 C56.22797562 302.85789293 56.41668187 305.57542204 56.5625 308.3125 C56.62727539 309.43688477 56.62727539 309.43688477 56.69335938 310.58398438 C56.79922685 312.43078375 56.9000976 314.27786834 57 316.125 C56.34 316.125 55.68 316.125 55 316.125 C55 316.785 55 317.445 55 318.125 C55.66 318.125 56.32 318.125 57 318.125 C57.02505615 318.8998877 57.0501123 319.67477539 57.07592773 320.47314453 C56.74354228 341.44456637 56.74354228 341.44456637 59.53125 362.0390625 C60.45403413 366.14545186 60.00984153 370.43042138 59.9375 374.6171875 C59.99614887 377.90885551 60.42394856 380.89196714 61 384.125 C61.11196073 386.80310075 61.04625299 389.44232686 61 392.125 C61.66 392.455 62.32 392.785 63 393.125 C62.79375 394.07375 62.5875 395.0225 62.375 396 C61.88887259 399.25836754 62.25026643 401.80113678 63 405 C64.15302047 410.05317026 63.88998313 414.02782389 63 419.125 C62.67 419.455 62.34 419.785 62 420.125 C61.95936168 421.79117115 61.957279 423.45888095 62 425.125 C62.66 425.455 63.32 425.785 64 426.125 C64.02475554 431.87247403 64.04288638 437.61991689 64.05493164 443.36743164 C64.05995422 445.32186423 64.06677349 447.27629306 64.07543945 449.23071289 C64.08759589 452.04314093 64.09324913 454.85551919 64.09765625 457.66796875 C64.10281754 458.53898727 64.10797882 459.4100058 64.11329651 460.30741882 C64.11367498 464.41867205 63.8557365 468.09039854 63 472.125 C63.33 472.785 63.66 473.445 64 474.125 C63.69922675 476.130155 63.3564309 478.12898694 63 480.125 C62.6272758 483.45466951 62.30987084 486.78894371 62 490.125 C62.66 490.125 63.32 490.125 64 490.125 C64 492.79166667 64 495.45833333 64 498.125 C63.34 498.125 62.68 498.125 62 498.125 C62.01047363 499.21441895 62.02094727 500.30383789 62.03173828 501.42626953 C62.06806023 505.48531787 62.09094473 509.54435195 62.10986328 513.60351562 C62.11989313 515.35712097 62.13352029 517.1107097 62.15087891 518.86425781 C62.1752603 521.39131785 62.1865134 523.9181559 62.1953125 526.4453125 C62.20563507 527.22367462 62.21595764 528.00203674 62.22659302 528.8039856 C62.2275122 533.30865862 61.70651048 536.87939088 60 541.125 C60.7425 541.74375 60.7425 541.74375 61.5 542.375 C63 544.125 63 544.125 63 548.125 C62.86099655 549.72957956 62.70188202 551.33248978 62.52734375 552.93359375 C62.43259766 553.84560547 62.33785156 554.75761719 62.24023438 555.69726562 C62.038776 557.6039717 61.83306125 559.51023297 61.62304688 561.41601562 C61.52958984 562.32931641 61.43613281 563.24261719 61.33984375 564.18359375 C61.25081787 565.01173584 61.16179199 565.83987793 61.07006836 566.69311523 C60.99404801 569.33157766 61.44953452 571.55007019 62 574.125 C62.08642829 575.64793166 62.13053993 577.17383829 62.1328125 578.69921875 C62.13410156 579.53130859 62.13539063 580.36339844 62.13671875 581.22070312 C62.13285156 582.07599609 62.12898438 582.93128906 62.125 583.8125 C62.12886719 584.67939453 62.13273437 585.54628906 62.13671875 586.43945312 C62.13542969 587.26767578 62.13414062 588.09589844 62.1328125 588.94921875 C62.13168457 589.70291748 62.13055664 590.45661621 62.12939453 591.2331543 C62 593.125 62 593.125 61 595.125 C61.66 595.125 62.32 595.125 63 595.125 C64.03380564 602.13897362 63.93034492 608.23091101 62 615.125 C62.66 615.455 63.32 615.785 64 616.125 C64.02703381 618.06242341 64.04641125 619.99995479 64.0625 621.9375 C64.07410156 623.01644531 64.08570313 624.09539063 64.09765625 625.20703125 C64 628.125 64 628.125 63 631.125 C63.09327589 633.06574038 63.2516638 635.00342696 63.4375 636.9375 C64.11332212 644.93935729 64.00557167 652.91299348 63.9375 660.9375 C63.86785404 670.94063149 64.15413576 680.65481563 65.5625 690.55859375 C65.99927131 694.11905987 66.07397467 697.54185185 66 701.125 C66.66 701.455 67.32 701.785 68 702.125 C68 702.785 68 703.445 68 704.125 C67.34 704.125 66.68 704.125 66 704.125 C66 709.075 66 714.025 66 719.125 C66.99 719.125 67.98 719.125 69 719.125 C69 721.105 69 723.085 69 725.125 C68.34 725.455 67.68 725.785 67 726.125 C66.97287847 728.041588 66.95354903 729.9582873 66.9375 731.875 C66.92589844 732.94234375 66.91429687 734.0096875 66.90234375 735.109375 C66.98609278 737.69554493 67.30679714 739.66311043 68 742.125 C69.14045502 749.77027256 69.10879899 757.41236072 69 765.125 C69.66 765.125 70.32 765.125 71 765.125 C71.16918268 766.70806647 71.33523936 768.29146719 71.5 769.875 C71.5928125 770.75671875 71.685625 771.6384375 71.78125 772.546875 C72 775.125 72 775.125 72 779.125 C71.34 779.125 70.68 779.125 70 779.125 C70 780.115 70 781.105 70 782.125 C70.66 782.125 71.32 782.125 72 782.125 C72.33708908 784.20772894 72.66953116 786.29121037 73 788.375 C73.185625 789.53515625 73.37125 790.6953125 73.5625 791.890625 C74 795.125 74 795.125 74 799.125 C73.01 799.785 72.02 800.445 71 801.125 C71.33 801.785 71.66 802.445 72 803.125 C72.66 803.125 73.32 803.125 74 803.125 C73.505 805.6 73.505 805.6 73 808.125 C70.36 808.125 67.72 808.125 65 808.125 C64.34 805.815 63.68 803.505 63 801.125 C62.01 801.125 61.02 801.125 60 801.125 C60.33 802.445 60.66 803.765 61 805.125 C61.66 805.125 62.32 805.125 63 805.125 C63 806.115 63 807.105 63 808.125 C61.35 808.125 59.7 808.125 58 808.125 C57.67 806.475 57.34 804.825 57 803.125 C55.68 803.125 54.36 803.125 53 803.125 C52.67 802.465 52.34 801.805 52 801.125 C50.453125 801.186875 50.453125 801.186875 48.875 801.25 C45.13170373 801.12924851 42.46265453 800.47627982 39 799.125 C38.67 801.105 38.34 803.085 38 805.125 C37.34 805.125 36.68 805.125 36 805.125 C36 806.115 36 807.105 36 808.125 C34.68 808.125 33.36 808.125 32 808.125 C32 806.805 32 805.485 32 804.125 C31.34 804.125 30.68 804.125 30 804.125 C30 803.135 30 802.145 30 801.125 C29.34 801.125 28.68 801.125 28 801.125 C28 802.115 28 803.105 28 804.125 C27.34 804.125 26.68 804.125 26 804.125 C26.495 801.65 26.495 801.65 27 799.125 C26.01 799.125 25.02 799.125 24 799.125 C23.54625 799.62 23.0925 800.115 22.625 800.625 C21 802.125 21 802.125 18.3125 802.3125 C17.549375 802.250625 16.78625 802.18875 16 802.125 C16 801.465 16 800.805 16 800.125 C14.906875 799.8775 13.81375 799.63 12.6875 799.375 C8.84718899 798.07319966 8.07513001 797.40152107 6 794.125 C5.34 794.125 4.68 794.125 4 794.125 C4 793.465 4 792.805 4 792.125 C4.66 792.125 5.32 792.125 6 792.125 C5.67 791.465 5.34 790.805 5 790.125 C4.443125 790.805625 4.443125 790.805625 3.875 791.5 C1.45735315 793.59529394 -0.95430602 794.24513285 -4 795.125 C-4 796.445 -4 797.765 -4 799.125 C-4.66 799.125 -5.32 799.125 -6 799.125 C-6 798.135 -6 797.145 -6 796.125 C-6.99 796.455 -7.98 796.785 -9 797.125 C-9.495 794.65 -9.495 794.65 -10 792.125 C-10.99 791.795 -11.98 791.465 -13 791.125 C-13.16426397 781.44157469 -12.72065232 771.86182658 -12.10458565 762.20270538 C-11.93647808 759.56324775 -11.77376051 756.92350189 -11.61228943 754.28363037 C-11.20944692 747.71285519 -10.79913103 741.14255333 -10.38647461 734.5723877 C-8.99831322 712.46940742 -7.7658493 690.3985016 -7.19506836 668.25830078 C-6.97508612 659.74109044 -6.59138227 651.2366583 -6.125 642.72973633 C-5.99448475 640.336362 -5.87206308 637.94264721 -5.75 635.54882812 C-5.66712351 633.98695486 -5.58380998 632.4251047 -5.5 630.86328125 C-5.46455078 630.16656815 -5.42910156 629.46985504 -5.39257812 628.75202942 C-5.2265365 625.79703015 -4.96703813 622.93180555 -4.46899414 620.01269531 C-3.97962784 616.99956435 -3.9350492 614.23312439 -3.99609375 611.18359375 C-4.05349894 603.81798583 -3.58615184 596.5315441 -3.0625 589.1875 C-2.87446475 586.46244794 -2.6902968 583.73714781 -2.5078125 581.01171875 C-2.4627507 580.34102356 -2.4176889 579.67032837 -2.3712616 578.97930908 C-1.90622435 571.92897673 -1.59286512 564.87366713 -1.34204102 557.81274414 C-1.31037842 556.99539795 -1.27871582 556.17805176 -1.24609375 555.3359375 C-1.22216553 554.63774902 -1.1982373 553.93956055 -1.17358398 553.22021484 C-1 551.125 -1 551.125 -0.5 548.66870117 C-0.00236703 546.13704204 0.17216353 543.7914488 0.24609375 541.21484375 C0.27767578 540.24409912 0.30925781 539.27335449 0.34179688 538.27319336 C0.37337891 537.21366455 0.40496094 536.15413574 0.4375 535.0625 C0.77690605 524.97883261 1.27310308 514.91582048 1.86575317 504.84457397 C2.60288886 492.31393763 3.18071467 479.79836126 3.5 467.25 C3.83081941 454.29471009 4.55398577 441.40622623 5.5 428.48046875 C5.88368233 423.10226902 6.18287237 417.72507453 6.44140625 412.33984375 C6.87562236 403.31460813 7.37916488 394.29388564 7.90234375 385.2734375 C7.96437925 384.20362483 7.96437925 384.20362483 8.027668 383.11219978 C8.28627853 378.65732512 8.54614673 374.20252443 8.80633545 369.7477417 C8.9790802 366.78744808 9.15114985 363.82711542 9.32316494 360.86677933 C9.49409762 357.92540513 9.66528302 354.98404566 9.83647346 352.04268646 C9.92203564 350.57183023 10.00751922 349.10096943 10.09292412 347.63010406 C10.56996738 339.41519141 11.05433268 331.2008178 11.55493164 322.98730469 C12.43260748 308.53678468 13.2689609 294.10148935 13.5625 279.625 C13.79279728 269.02629146 14.20206461 258.45596041 14.83590698 247.87316895 C15.01881882 244.80982944 15.197262 241.74624702 15.37524414 238.68261719 C15.78826968 231.58381548 16.20595626 224.48529125 16.62419128 217.38679504 C16.75131163 215.22772268 16.87819838 213.06863672 17.00500488 210.9095459 C18.05715465 192.99503777 19.12060178 175.0812489 20.19976044 157.16834641 C20.54687506 151.40315923 20.8928333 145.63790249 21.23889542 139.87265205 C21.57709395 134.2416982 21.91748916 128.61088227 22.2594223 122.98015404 C22.47330441 119.44999164 22.68520932 115.91971248 22.89660645 112.38940048 C22.9954813 110.74523711 23.09518987 109.10112363 23.19580078 107.45706558 C23.33424276 105.19318361 23.46970618 102.92914124 23.60449219 100.66503906 C23.68125183 99.39565491 23.75801147 98.12627075 23.83709717 96.81842041 C23.95575982 94.128037 24.01017158 91.48230362 23.99456787 88.79289246 C23.99892503 85.85084547 24.19673428 83.87770068 25 81.125 C25.13046586 79.66818729 25.22197894 78.20753535 25.28125 76.74609375 C25.31806885 75.91174805 25.3548877 75.07740234 25.39282227 74.21777344 C25.42819092 73.3415332 25.46355957 72.46529297 25.5 71.5625 C25.82011464 64.39451879 26.23069632 57.26151929 27 50.125 C25.0509375 50.3725 25.0509375 50.3725 23.0625 50.625 C10.73154145 51.99077073 10.73154145 51.99077073 7 50.125 C7 49.465 7 48.805 7 48.125 C8.32 48.455 9.64 48.785 11 49.125 C11 48.135 11 47.145 11 46.125 C9.68 46.125 8.36 46.125 7 46.125 C6 39.25 6 39.25 6 38.125 C4.96939453 37.83496094 4.96939453 37.83496094 3.91796875 37.5390625 C3.01691406 37.27867187 2.11585938 37.01828125 1.1875 36.75 C-0.15248047 36.36714844 -0.15248047 36.36714844 -1.51953125 35.9765625 C-4 35.125 -4 35.125 -7 33.125 C-7 32.465 -7 31.805 -7 31.125 C-8.32 30.795 -9.64 30.465 -11 30.125 C-11 29.135 -11 28.145 -11 27.125 C-11.66 27.125 -12.32 27.125 -13 27.125 C-13 26.465 -13 25.805 -13 25.125 C-12.01 24.795 -11.02 24.465 -10 24.125 C-11.22556737 19.74797367 -12.53060547 15.42822683 -14 11.125 C-16.31 11.125 -18.62 11.125 -21 11.125 C-21 11.785 -21 12.445 -21 13.125 C-22.32 13.455 -23.64 13.785 -25 14.125 C-25 14.785 -25 15.445 -25 16.125 C-27.73352513 19.46597516 -29.71193127 20.64854792 -34 21.125 C-36.01532698 16.96838811 -36.08172354 13.70151814 -36 9.125 C-36.226875 8.2175 -36.45375 7.31 -36.6875 6.375 C-36.790625 5.6325 -36.89375 4.89 -37 4.125 C-34.79155681 1.27180997 -32.26575114 0.18739 -28.9375 -1.0625 C-28.05964844 -1.40667969 -27.18179688 -1.75085938 -26.27734375 -2.10546875 C-17.20985475 -4.23454543 -8.87293164 -2.2130862 0 0 Z M-1 17.125 C2.20336822 19.95874881 4.78087253 20.6455537 9 21.125 C8.14344714 18.90467787 8.14344714 18.90467787 5.6875 18 C2.83714484 16.9186093 2.83714484 16.9186093 -1 17.125 Z M50 23.125 C50.33 25.435 50.66 27.745 51 30.125 C50.01 30.62 50.01 30.62 49 31.125 C51.475 31.62 51.475 31.62 54 32.125 C53.34 29.155 52.68 26.185 52 23.125 C51.34 23.125 50.68 23.125 50 23.125 Z M58 31.125 C58.33 31.785 58.66 32.445 59 33.125 C60.32 33.125 61.64 33.125 63 33.125 C63 32.465 63 31.805 63 31.125 C61.35 31.125 59.7 31.125 58 31.125 Z M50 32.125 C50.33 33.115 50.66 34.105 51 35.125 C51.33 34.135 51.66 33.145 52 32.125 C51.34 32.125 50.68 32.125 50 32.125 Z M64 32.125 C64 32.785 64 33.445 64 34.125 C64.99 33.795 65.98 33.465 67 33.125 C66.01 32.795 65.02 32.465 64 32.125 Z M100 32.125 C101 34.125 101 34.125 101 34.125 Z M56 33.125 C56 33.785 56 34.445 56 35.125 C54.68 35.455 53.36 35.785 52 36.125 C53.80412643 39.38960973 54.83394693 41.01429795 58 43.125 C58.99 42.795 59.98 42.465 61 42.125 C60.5020163 38.39012223 60.12508244 36.31262365 58 33.125 C57.34 33.125 56.68 33.125 56 33.125 Z M67 34.125 C67 34.455 67 34.785 67 35.125 C68.98 35.125 70.96 35.125 73 35.125 C73 34.795 73 34.465 73 34.125 C71.02 34.125 69.04 34.125 67 34.125 Z M36 35.125 C36 35.785 36 36.445 36 37.125 C35.01 36.795 34.02 36.465 33 36.125 C32.34 36.785 31.68 37.445 31 38.125 C31.72154312 41.39810895 31.72154312 41.39810895 34.9375 42.8125 C37.75106489 44.25630643 37.75106489 44.25630643 40 44.125 C40 43.465 40 42.805 40 42.125 C39.2884375 41.444375 39.2884375 41.444375 38.5625 40.75 C36.77906263 38.89522513 36.4308007 37.62364408 36 35.125 Z M68 37.125 C68 37.785 68 38.445 68 39.125 C68.66 39.125 69.32 39.125 70 39.125 C70.33 39.785 70.66 40.445 71 41.125 C71 39.805 71 38.485 71 37.125 C70.01 37.125 69.02 37.125 68 37.125 Z M118 38.125 C119 40.125 119 40.125 119 40.125 Z M121 38.125 C121 38.785 121 39.445 121 40.125 C120.01 40.62 120.01 40.62 119 41.125 C120.0828125 41.0940625 120.0828125 41.0940625 121.1875 41.0625 C124 41.125 124 41.125 126.625 41.75 C129.26013819 42.44101083 129.26013819 42.44101083 132 40.125 C128.37 39.465 124.74 38.805 121 38.125 Z M142 41.125 C142.33 41.785 142.66 42.445 143 43.125 C143.66 42.795 144.32 42.465 145 42.125 C144.01 41.795 143.02 41.465 142 41.125 Z M33 45.125 C33.33 46.115 33.66 47.105 34 48.125 C34.33 47.135 34.66 46.145 35 45.125 C34.34 45.125 33.68 45.125 33 45.125 Z M62 49.125 C60.57050365 53.41348904 61.75977223 56.67463011 62.75 61 C62.92015625 61.80308594 63.0903125 62.60617188 63.265625 63.43359375 C64.23559234 67.76278623 65.16661625 71.59042532 68 75.125 C68.99 75.125 69.98 75.125 71 75.125 C71.33 76.775 71.66 78.425 72 80.125 C72.33 80.125 72.66 80.125 73 80.125 C74.00926479 75.96873632 74.10239579 72.08134906 74.0625 67.8125 C74.04896484 65.93111328 74.04896484 65.93111328 74.03515625 64.01171875 C74.02355469 63.05910156 74.01195312 62.10648438 74 61.125 C72.11683841 60.01663577 72.11683841 60.01663577 70 59.125 C69.01 59.62 69.01 59.62 68 60.125 C67.67 58.805 67.34 57.485 67 56.125 C67.66 55.795 68.32 55.465 69 55.125 C67.71034824 53.74937146 66.37310707 52.41733607 65 51.125 C64.34 51.125 63.68 51.125 63 51.125 C62.67 50.465 62.34 49.805 62 49.125 Z M111 53.125 C111 53.785 111 54.445 111 55.125 C111.66 54.795 112.32 54.465 113 54.125 C112.34 53.795 111.68 53.465 111 53.125 Z M52 54.125 C52 56.105 52 58.085 52 60.125 C51.01 60.62 51.01 60.62 50 61.125 C50.99 61.62 50.99 61.62 52 62.125 C52.66 61.795 53.32 61.465 54 61.125 C53.67 58.815 53.34 56.505 53 54.125 C52.67 54.125 52.34 54.125 52 54.125 Z M115 54.125 C115.66 54.785 116.32 55.445 117 56.125 C118.32 55.465 119.64 54.805 121 54.125 C119.02 54.125 117.04 54.125 115 54.125 Z M54 56.125 C55 58.125 55 58.125 55 58.125 Z M69 56.125 C70 58.125 70 58.125 70 58.125 Z M53 187.125 C54 190.125 54 190.125 54 190.125 Z M53 338.125 C54 340.125 54 340.125 54 340.125 Z M60 639.125 C61 641.125 61 641.125 61 641.125 Z M69 769.125 C70 772.125 70 772.125 70 772.125 Z M1 789.125 C1.66 789.785 2.32 790.445 3 791.125 C3 790.465 3 789.805 3 789.125 C2.34 789.125 1.68 789.125 1 789.125 Z M-6 792.125 C-5 794.125 -5 794.125 -5 794.125 Z M58 796.125 C57.34 796.785 56.68 797.445 56 798.125 C56.99 798.455 57.98 798.785 59 799.125 C58.67 798.135 58.34 797.145 58 796.125 Z " fill="#FF3E75" transform="translate(203,179.875)"/>
<path d="M0 0 C0.66 -0.33 1.32 -0.66 2 -1 C2.495 0.485 2.495 0.485 3 2 C4.86022072 3.23277127 4.86022072 3.23277127 7.0625 4.1875 C7.79597656 4.53167969 8.52945313 4.87585938 9.28515625 5.23046875 C9.85105469 5.48441406 10.41695313 5.73835938 11 6 C11 6.66 11 7.32 11 8 C11.8971875 8.185625 11.8971875 8.185625 12.8125 8.375 C15 9 15 9 18 11 C18 11.66 18 12.32 18 13 C18.66 13 19.32 13 20 13 C20.495 15.475 20.495 15.475 21 18 C21.66 18 22.32 18 23 18 C23.495 18.99 23.495 18.99 24 20 C25.485 20.495 25.485 20.495 27 21 C26.505 22.485 26.505 22.485 26 24 C26.41139456 25.97479276 26.41139456 25.97479276 27.21484375 28.0625 C27.48925293 28.85487061 27.76366211 29.64724121 28.04638672 30.46362305 C28.3404541 31.30062744 28.63452148 32.13763184 28.9375 33 C31.33815388 40.1310363 32.92171955 46.40434812 32 54 C32.59683594 53.79503906 33.19367188 53.59007812 33.80859375 53.37890625 C46.54035597 49.42506033 59.28648757 48.66417784 72 53 C72 52.34 72 51.68 72 51 C72.66 51 73.32 51 74 51 C74 51.66 74 52.32 74 53 C74.89460937 53.31453125 75.78921875 53.6290625 76.7109375 53.953125 C82.28083915 55.92456141 87.83954132 57.89431542 93.3125 60.125 C94.87482531 60.75043655 96.43731521 61.37546217 98 62 C98.69996094 62.29003906 99.39992188 62.58007812 100.12109375 62.87890625 C107.8117576 65.79994738 116.98929042 67.15427449 125 65 C137.56894776 64.25862174 148.67001442 66.7658848 160.6315918 70.23510742 C174.60351999 74.26573587 186.94846466 73.02077942 201 69.5625 C237.86999053 60.83482108 237.86999053 60.83482108 250.8125 66.6875 C256.71914619 70.9727139 259.68984482 76.16776881 262 83 C262.48489247 86.35794695 262.47398147 89.61379171 262.375 93 C262.37306641 94.25683594 262.37306641 94.25683594 262.37109375 95.5390625 C262.27539175 102.4083395 261.94618842 109.33094159 257.8125 115 C253.3684828 118.16019001 249.31530079 118 244 118 C244.185625 118.969375 244.37125 119.93875 244.5625 120.9375 C245.57753996 128.45182567 244.47730838 134.09029624 240.3515625 140.46875 C239 142 239 142 236 143 C236 143.99 236 144.98 236 146 C228.13933707 148.62022098 222.16777443 147.74288749 214.5625 144.5625 C212.33189242 143.20237343 210.69142381 141.97332778 209 140 C208.67 140.66 208.34 141.32 208 142 C206.35 141.67 204.7 141.34 203 141 C201.76078698 143.97411124 200.69941596 146.85262818 200 150 C200.66 150.33 201.32 150.66 202 151 C201.67 151.99 201.34 152.98 201 154 C199.68 154 198.36 154 197 154 C197 154.66 197 155.32 197 156 C190.25 157 190.25 157 188 157 C188 157.66 188 158.32 188 159 C187.01 159 186.02 159 185 159 C185 158.34 185 157.68 185 157 C184.38511719 157.08378906 183.77023437 157.16757813 183.13671875 157.25390625 C182.32847656 157.35574219 181.52023437 157.45757812 180.6875 157.5625 C179.88699219 157.66691406 179.08648437 157.77132812 178.26171875 157.87890625 C176 158 176 158 173 157 C172.67 157.66 172.34 158.32 172 159 C172 158.34 172 157.68 172 157 C171.29875 156.87625 170.5975 156.7525 169.875 156.625 C163.91327742 155.32897335 159.18986499 153.113919 154 150 C154 149.01 154 148.02 154 147 C154.66 147 155.32 147 156 147 C156 147.66 156 148.32 156 149 C156.66 148.67 157.32 148.34 158 148 C157.195625 147.54625 156.39125 147.0925 155.5625 146.625 C153 145 153 145 152 143 C150.01363702 142.29373761 148.01151741 141.63106429 146 141 C145.319375 140.608125 144.63875 140.21625 143.9375 139.8125 C141.98470955 138.75280178 141.98470955 138.75280178 139.8125 139.65234375 C135.9146088 140.13416641 133.37999166 138.57122793 130.0625 136.75 C129.46759766 136.43675781 128.87269531 136.12351563 128.25976562 135.80078125 C125.53019768 134.36291049 122.81860882 132.89870683 120.125 131.39453125 C116.14396741 129.61799545 112.19795303 128.78679458 107.9375 127.9375 C103.07517154 126.94915732 98.59624174 125.90787393 94 124 C92.21846229 123.59797158 90.425359 123.244438 88.625 122.9375 C87.66078125 122.7725 86.6965625 122.6075 85.703125 122.4375 C80.2833073 121.56030407 74.8656733 120.85163751 69.40625 120.28125 C67.53202989 120.06218531 65.66429662 119.787372 63.80078125 119.49072266 C60.07907884 119.01020995 56.53159237 118.87066188 52.78125 118.8671875 C52.11967896 118.86623077 51.45810791 118.86527405 50.77648926 118.86428833 C49.388264 118.86361276 48.00003546 118.86542316 46.61181641 118.86962891 C44.50546062 118.87498611 42.39931802 118.86966264 40.29296875 118.86328125 C38.93489537 118.86394214 37.57682212 118.86522353 36.21875 118.8671875 C35.00123047 118.86831543 33.78371094 118.86944336 32.52929688 118.87060547 C28.95488426 119.00165408 25.53351831 119.46341695 22 120 C20.0003305 120.03635763 17.99940538 120.04876598 16 120 C16 120.66 16 121.32 16 122 C14.35 122.33 12.7 122.66 11 123 C10.67 125.64 10.34 128.28 10 131 C9.01 131.33 8.02 131.66 7 132 C7 131.01 7 130.02 7 129 C5.3540349 127.31288577 3.68762851 125.6454378 2 124 C2 123.34 2 122.68 2 122 C1.34 122 0.68 122 0 122 C-0.66 121.01 -1.32 120.02 -2 119 C-4.32481174 117.98034573 -6.65794699 116.97940398 -9 116 C-9.33 115.34 -9.66 114.68 -10 114 C-10.99 114.33 -11.98 114.66 -13 115 C-13.99 114.505 -13.99 114.505 -15 114 C-14.67 112.02 -14.34 110.04 -14 108 C-14.99 108 -15.98 108 -17 108 C-16.01 108.495 -16.01 108.495 -15 109 C-15 109.66 -15 110.32 -15 111 C-18.13602798 110.7193711 -18.96091016 110.04621755 -21.03515625 107.59375 C-30.52392947 93.11377237 -33.0167719 78.01865797 -30.5 60.875 C-29.17135064 55.86325646 -25.22512859 52.73753123 -21 50 C-20.34 50 -19.68 50 -19 50 C-19 49.34 -19 48.68 -19 48 C-18.34 48 -17.68 48 -17 48 C-17 47.34 -17 46.68 -17 46 C-17.66 46 -18.32 46 -19 46 C-19.495 43.03 -19.495 43.03 -20 40 C-19.01 40.495 -19.01 40.495 -18 41 C-17.67 41.99 -17.34 42.98 -17 44 C-17.33 42.35 -17.66 40.7 -18 39 C-18.99 38.67 -19.98 38.34 -21 38 C-21.33 38.99 -21.66 39.98 -22 41 C-28.75 39.375 -28.75 39.375 -31 36 C-35.61012423 37.19757876 -35.61012423 37.19757876 -40 39 C-43.3910642 40.6955321 -47.18758792 42 -51 42 C-51.33 42.99 -51.66 43.98 -52 45 C-54.0625 45.6875 -54.0625 45.6875 -56 46 C-56 46.66 -56 47.32 -56 48 C-56.66 48 -57.32 48 -58 48 C-59.92342989 37.42113558 -59.82226441 27.80580856 -55 18 C-54.50113281 17.34 -54.00226563 16.68 -53.48828125 16 C-51.87337902 14.02428752 -51.87337902 14.02428752 -51.046875 11.44140625 C-48.76481905 6.11944742 -43.11674795 3.90518827 -38.03125 1.73046875 C-25.86250491 -2.36923942 -12.5617629 -2.10016973 0 0 Z M-5 13 C-5.66 13.66 -6.32 14.32 -7 15 C-7.99 15 -8.98 15 -10 15 C-10.99 15.495 -10.99 15.495 -12 16 C-13.66444461 16.0955931 -15.33281963 16.12984645 -17 16.125 C-17.886875 16.12757812 -18.77375 16.13015625 -19.6875 16.1328125 C-22 16 -22 16 -24 15 C-25.99456256 15.41039201 -27.97290791 15.90170216 -29.9375 16.4375 C-35.70403587 18 -35.70403587 18 -39 18 C-39 18.66 -39 19.32 -39 20 C-39.66 20 -40.32 20 -41 20 C-40.67 20.99 -40.34 21.98 -40 23 C-39.21625 22.835 -38.4325 22.67 -37.625 22.5 C-30.47485358 21.51377291 -24.27394729 20.91463897 -18 25 C-16.32963607 26.32869858 -14.66215268 27.66104368 -13 29 C-12.34 29 -11.68 29 -11 29 C-9.46232058 40.37882773 -9.27925059 53.02378925 -13 64 C-15.4375 65.4375 -15.4375 65.4375 -18 66 C-18.99 66.66 -19.98 67.32 -21 68 C-21 68.66 -21 69.32 -21 70 C-21.66 70 -22.32 70 -23 70 C-23.95024979 73.69541586 -23.95024979 76.30458414 -23 80 C-22.34 80 -21.68 80 -21 80 C-20.938125 81.03125 -20.87625 82.0625 -20.8125 83.125 C-19.80644395 87.92311345 -18.42049991 89.57950009 -15 93 C-14.34 93 -13.68 93 -13 93 C-12.79375 93.763125 -12.5875 94.52625 -12.375 95.3125 C-10.56004051 98.85992082 -8.53277417 99.26824796 -5 101 C-3.17042488 102.89090166 -1.63157511 104.92745864 0 107 C2.73979683 109.29497881 2.73979683 109.29497881 5.41015625 108.71484375 C7.78088833 108.06047879 10.10551617 107.34252232 12.4375 106.5625 C24.46824633 102.95778633 36.64969797 102.65252028 49.10229492 102.68432617 C51.6669418 102.68747476 54.23041735 102.6639706 56.79492188 102.63867188 C71.26435431 102.5841222 85.44749551 104.08524518 99.34765625 108.26171875 C102.45640113 109.12703949 105.58042656 109.70826694 108.75 110.3125 C116.60982727 111.94996402 123.64395453 114.87925344 131 118 C132.81112324 118.69111875 134.62344814 119.37910527 136.4375 120.0625 C140.41335949 121.63558631 143.87502483 123.64448411 147.40625 126.046875 C148.97657647 127.17108595 148.97657647 127.17108595 151 127 C151 127.66 151 128.32 151 129 C153.97 129.495 153.97 129.495 157 130 C157 130.66 157 131.32 157 132 C158.6161762 133.29887477 158.6161762 133.29887477 160.6875 134.5 C161.37199219 134.9228125 162.05648437 135.345625 162.76171875 135.78125 C167.01499073 138.09716773 170.73019879 139.2775273 175.5625 139.6875 C176.95662109 139.81705078 176.95662109 139.81705078 178.37890625 139.94921875 C180.82621162 139.99663301 182.67799916 139.72664967 185 139 C184.01 138.67 183.02 138.34 182 138 C182 136.35 182 134.7 182 133 C183.32 133.33 184.64 133.66 186 134 C185.67 134.99 185.34 135.98 185 137 C185.99 138.485 185.99 138.485 187 140 C190.465 139.01 190.465 139.01 194 138 C194 137.34 194 136.68 194 136 C194.66 136 195.32 136 196 136 C198.31592022 132.77885843 198.31592022 132.77885843 199 129 C203.22451766 126.35967646 208.22772512 125.59011033 213.11523438 126.31274414 C215.98526545 126.99460969 218.81022937 127.80148678 221.64453125 128.6171875 C226.83206288 130.00179375 230.70440219 129.95416177 236 129 C236.17006804 125.94956315 236.17006804 125.94956315 234.9375 123.0625 C233.08175705 116.94638942 233.95162946 109.02138455 236 103 C239.68792432 100.81029494 243.65398884 100.61008201 247.83984375 100.21875 C250.26757706 99.97290359 252.62053267 99.53729907 255 99 C254.34 98.67 253.68 98.34 253 98 C253.3403125 96.4840625 253.3403125 96.4840625 253.6875 94.9375 C254.06701625 90.1555952 253.14029854 88.19498514 251 84 C250.01 84 249.02 84 248 84 C247.67 83.34 247.34 82.68 247 82 C245.04304865 81.56852029 245.04304865 81.56852029 242.75 81.4375 C240.14471657 81.21041507 237.74606262 80.94356947 235.1875 80.375 C232.79785507 79.96534658 231.28153164 80.23948945 229 81 C229 81.66 229 82.32 229 83 C228.01 82.67 227.02 82.34 226 82 C223.21732493 82.38680338 220.50347277 82.83842582 217.75 83.375 C216.26583058 83.65473874 214.78145699 83.9333966 213.296875 84.2109375 C212.57564453 84.3459668 211.85441406 84.48099609 211.11132812 84.62011719 C207.06639455 85.34790588 203.11305682 86 199 86 C199.33 86.66 199.66 87.32 200 88 C198.35 88 196.7 88 195 88 C194.67 87.34 194.34 86.68 194 86 C194 86.66 194 87.32 194 88 C189.545 88.99 189.545 88.99 185 90 C184.67 89.34 184.34 88.68 184 88 C183.67 88.33 183.34 88.66 183 89 C181 89 179 89 177 89 C177 89.66 177 90.32 177 91 C174.5625 90.625 174.5625 90.625 172 90 C171.67 89.34 171.34 88.68 171 88 C170.34 88 169.68 88 169 88 C169 88.66 169 89.32 169 90 C168.4225 89.525625 167.845 89.05125 167.25 88.5625 C165.07417916 87.0515133 163.57397552 86.45963849 161 86 C161 86.66 161 87.32 161 88 C160.01 88 159.02 88 158 88 C158 87.01 158 86.02 158 85 C152.52225234 83.41678933 152.52225234 83.41678933 147 82 C147.33 82.99 147.66 83.98 148 85 C143.6334226 83.90835565 140.48805778 82.84212116 137 80 C136.34 80 135.68 80 135 80 C135 80.66 135 81.32 135 82 C134.47921875 81.83628906 133.9584375 81.67257813 133.421875 81.50390625 C130.3243125 80.85941341 127.41158906 80.90588411 124.25 80.9375 C122.49429688 80.95103516 122.49429688 80.95103516 120.703125 80.96484375 C119.81109375 80.97644531 118.9190625 80.98804688 118 81 C118 81.66 118 82.32 118 83 C117.030625 82.855625 116.06125 82.71125 115.0625 82.5625 C110.71947831 81.93952558 106.36234766 81.46492141 102 81 C102.66 80.67 103.32 80.34 104 80 C104 79.34 104 78.68 104 78 C103.3915625 77.92523438 102.783125 77.85046875 102.15625 77.7734375 C95.21243471 76.73186521 89.08530725 74.69470219 82.66015625 71.94482422 C78.34611115 70.18418679 75.51344818 69.78941622 71 71 C70.67 70.01 70.34 69.02 70 68 C70 68.66 70 69.32 70 70 C67.53917533 69.04301263 65.18244362 68.10195379 62.875 66.8125 C60.83950715 65.68274201 60.83950715 65.68274201 58 67 C55.89841168 67 53.79671771 66.99649132 51.6953125 66.96875 C46.77891628 67.0257517 41.89217626 67.53644354 37 68 C36.67 68.99 36.34 69.98 36 71 C34.515 70.505 34.515 70.505 33 70 C33 70.66 33 71.32 33 72 C31.515 72.495 31.515 72.495 30 73 C29.67 74.65 29.34 76.3 29 78 C27.02 78.66 25.04 79.32 23 80 C23.144375 79.154375 23.28875 78.30875 23.4375 77.4375 C23.7159375 75.7359375 23.7159375 75.7359375 24 74 C24.2784375 72.3603125 24.2784375 72.3603125 24.5625 70.6875 C24.97694753 67.19429938 25.02096705 63.91197586 24.9609375 60.40625 C25.01644528 56.98697093 25.48649524 53.64318283 25.9765625 50.26171875 C26.00374409 47.63869519 25.33461118 46.22604994 24 44 C23.01 44.495 23.01 44.495 22 45 C22.226875 43.96875 22.45375 42.9375 22.6875 41.875 C23.04678824 37.41982583 22.22335975 35.78794624 20 32 C19.690625 31.0925 19.38125 30.185 19.0625 29.25 C17.76016756 26.49211955 16.68459246 26.25840272 14 25 C13.33333333 23.66666667 12.66666667 22.33333333 12 21 C7.58409049 16.71790593 1.25968824 13 -5 13 Z M-29 36 C-25 37 -25 37 -25 37 Z M-57 44 C-56 46 -56 46 -56 46 Z M32 65 C31.34 66.98 30.68 68.96 30 71 C31.32 69.68 32.64 68.36 34 67 C33.34 66.34 32.68 65.68 32 65 Z M109 78 C108.34 78.66 107.68 79.32 107 80 C108.32 80 109.64 80 111 80 C111 79.34 111 78.68 111 78 C110.34 78 109.68 78 109 78 Z M141 79 C141.33 79.99 141.66 80.98 142 82 C142 81.01 142 80.02 142 79 C141.67 79 141.34 79 141 79 Z M144 81 C144.33 81.66 144.66 82.32 145 83 C145.66 82.34 146.32 81.68 147 81 C146.01 81 145.02 81 144 81 Z M183 85 C182.67 85.66 182.34 86.32 182 87 C183.32 87.33 184.64 87.66 186 88 C186 87.34 186 86.68 186 86 C185.01 85.67 184.02 85.34 183 85 Z M-29 87 C-28 89 -28 89 -28 89 Z M-27 91 C-26.67 92.65 -26.34 94.3 -26 96 C-25.34 95.67 -24.68 95.34 -24 95 C-24.99 93.68 -25.98 92.36 -27 91 Z M-21 102 C-20 104 -20 104 -20 104 Z M76 118 C77.98 118.99 77.98 118.99 80 120 C80.33 119.34 80.66 118.68 81 118 C79.35 118 77.7 118 76 118 Z M91 120 C91.33 120.66 91.66 121.32 92 122 C92.33 121.34 92.66 120.68 93 120 C92.34 120 91.68 120 91 120 Z M121 125 C121.33 125.66 121.66 126.32 122 127 C123.32 127 124.64 127 126 127 C126 127.66 126 128.32 126 129 C126.99 129 127.98 129 129 129 C129 128.34 129 127.68 129 127 C126.09399739 125.74335022 124.20395416 125 121 125 Z M212 140 C212.33 140.66 212.66 141.32 213 142 C213.99 141.67 214.98 141.34 216 141 C214.68 140.67 213.36 140.34 212 140 Z M222 143 C222.66 143.66 223.32 144.32 224 145 C224 144.34 224 143.68 224 143 C223.34 143 222.68 143 222 143 Z M160 149 C160.33 149.99 160.66 150.98 161 152 C163.97 152.495 163.97 152.495 167 153 C163.90672105 150.02324541 163.90672105 150.02324541 160 149 Z M196 151 C197 154 197 154 197 154 Z " fill="#FF3E75" transform="translate(247,62)"/>
<path d="M0 0 C8.77574256 0.13989935 13.74295483 2.01195148 20.44921875 7.51318359 C22.44921875 9.67724609 22.44921875 9.67724609 22.44921875 11.67724609 C23.32126953 12.08523438 23.32126953 12.08523438 24.2109375 12.50146484 C26.42818027 13.66619447 28.28152691 14.96124771 30.26171875 16.48974609 C32.94469638 18.54854131 35.65750747 20.51891607 38.44921875 22.42724609 C39.43921875 23.16974609 40.42921875 23.91224609 41.44921875 24.67724609 C41.44921875 25.33724609 41.44921875 25.99724609 41.44921875 26.67724609 C42.00609375 26.94537109 42.56296875 27.21349609 43.13671875 27.48974609 C48.10665857 30.04187735 52.31693513 32.92936095 56.44921875 36.67724609 C56.44921875 37.33724609 56.44921875 37.99724609 56.44921875 38.67724609 C56.98289062 38.91958984 57.5165625 39.16193359 58.06640625 39.41162109 C61.08817578 41.01662655 63.7823064 42.9493612 66.57421875 44.92724609 C90.55327402 61.68397819 118.59927515 68.60095113 147.68994141 69.29956055 C159.41350055 69.6415279 159.41350055 69.6415279 162.44921875 72.67724609 C162.52241496 75.37379463 162.54164412 78.04416067 162.51171875 80.73974609 C162.50720703 81.49835938 162.50269531 82.25697266 162.49804688 83.03857422 C162.48622555 84.91816481 162.46828953 86.79771508 162.44921875 88.67724609 C159.10571729 89.79174658 157.78263938 89.59393677 154.44921875 88.67724609 C153.45921875 88.01724609 152.46921875 87.35724609 151.44921875 86.67724609 C148.32400042 86.51025377 148.32400042 86.51025377 145.44921875 86.67724609 C145.44921875 86.01724609 145.44921875 85.35724609 145.44921875 84.67724609 C144.78921875 84.67724609 144.12921875 84.67724609 143.44921875 84.67724609 C143.11921875 85.33724609 142.78921875 85.99724609 142.44921875 86.67724609 C139.47921875 86.34724609 136.50921875 86.01724609 133.44921875 85.67724609 C133.44921875 85.01724609 133.44921875 84.35724609 133.44921875 83.67724609 C132.45921875 83.67724609 131.46921875 83.67724609 130.44921875 83.67724609 C130.44921875 84.33724609 130.44921875 84.99724609 130.44921875 85.67724609 C125.19502762 85.8584251 121.42408293 85.57243245 116.44921875 83.67724609 C115.78921875 83.67724609 115.12921875 83.67724609 114.44921875 83.67724609 C114.44921875 83.01724609 114.44921875 82.35724609 114.44921875 81.67724609 C113.78921875 81.67724609 113.12921875 81.67724609 112.44921875 81.67724609 C112.11921875 82.00724609 111.78921875 82.33724609 111.44921875 82.67724609 C106.21163966 82.53390182 101.34264714 81.55933394 96.44921875 79.67724609 C96.44921875 79.01724609 96.44921875 78.35724609 96.44921875 77.67724609 C95.12921875 77.67724609 93.80921875 77.67724609 92.44921875 77.67724609 C92.44921875 76.68724609 92.44921875 75.69724609 92.44921875 74.67724609 C91.45921875 75.17224609 91.45921875 75.17224609 90.44921875 75.67724609 C90.04445313 75.21318359 89.6396875 74.74912109 89.22265625 74.27099609 C87.19800907 72.45148938 85.67509714 71.92289041 83.07421875 71.17724609 C78.01639932 69.60078289 74.04814532 67.65500704 70.44921875 63.67724609 C70.11921875 64.33724609 69.78921875 64.99724609 69.44921875 65.67724609 C66.07418206 64.49142239 63.80199144 63.4015092 61.44921875 60.67724609 C62.43921875 60.67724609 63.42921875 60.67724609 64.44921875 60.67724609 C64.77921875 59.68724609 65.10921875 58.69724609 65.44921875 57.67724609 C64.45921875 57.67724609 63.46921875 57.67724609 62.44921875 57.67724609 C60.30457434 55.74014791 58.42703021 53.65219451 56.51171875 51.48974609 C54.56421588 49.46888035 54.56421588 49.46888035 51.82421875 49.17724609 C51.04046875 49.01224609 50.25671875 48.84724609 49.44921875 48.67724609 C48.13671875 46.61474609 48.13671875 46.61474609 47.44921875 44.67724609 C46.45921875 44.67724609 45.46921875 44.67724609 44.44921875 44.67724609 C44.20171875 44.05849609 43.95421875 43.43974609 43.69921875 42.80224609 C42.22700433 40.29948158 41.13173047 39.68318799 38.44921875 38.67724609 C37.78921875 38.67724609 37.12921875 38.67724609 36.44921875 38.67724609 C36.44921875 38.01724609 36.44921875 37.35724609 36.44921875 36.67724609 C35.78921875 36.67724609 35.12921875 36.67724609 34.44921875 36.67724609 C33.76859375 35.71818359 33.76859375 35.71818359 33.07421875 34.73974609 C31.23837002 32.4096304 30.32012462 32.07323311 27.44921875 31.67724609 C27.44921875 31.01724609 27.44921875 30.35724609 27.44921875 29.67724609 C26.83046875 29.55349609 26.21171875 29.42974609 25.57421875 29.30224609 C23.44921875 28.67724609 23.44921875 28.67724609 21.44921875 26.67724609 C20.78921875 27.33724609 20.12921875 27.99724609 19.44921875 28.67724609 C18.70671875 27.89349609 17.96421875 27.10974609 17.19921875 26.30224609 C14.90488557 24.11220079 13.32763017 22.84993223 10.44921875 21.67724609 C10.44921875 21.01724609 10.44921875 20.35724609 10.44921875 19.67724609 C8.46921875 19.34724609 6.48921875 19.01724609 4.44921875 18.67724609 C4.44921875 17.68724609 4.44921875 16.69724609 4.44921875 15.67724609 C3.78921875 15.67724609 3.12921875 15.67724609 2.44921875 15.67724609 C2.11921875 16.33724609 1.78921875 16.99724609 1.44921875 17.67724609 C1.11921875 16.35724609 0.78921875 15.03724609 0.44921875 13.67724609 C-0.21078125 13.67724609 -0.87078125 13.67724609 -1.55078125 13.67724609 C-1.22078125 14.66724609 -0.89078125 15.65724609 -0.55078125 16.67724609 C-0.20506838 22.03579558 -0.037161 25.37022773 -3.55078125 29.67724609 C-5.28542006 31.16886787 -7.057427 32.60850026 -8.83203125 34.05224609 C-11.50920118 36.58338858 -12.91114699 39.39797757 -14.55078125 42.67724609 C-10.90158777 45.46215691 -7.9573882 46.93663943 -3.48828125 48.05224609 C1.4781917 49.45419341 3.69191129 51.16528842 6.44921875 55.67724609 C8.5962634 60.45126302 10.24076865 64.55853209 8.44921875 69.67724609 C8.07990234 70.81613281 8.07990234 70.81613281 7.703125 71.97802734 C6.97452369 74.21960936 6.22070333 76.45013023 5.44921875 78.67724609 C7.88459675 81.11262409 13.82388558 80.60867664 17.12890625 80.98193359 C20.50740324 81.68943061 21.37507439 82.08622231 23.44921875 84.67724609 C24.33609375 85.19287109 25.22296875 85.70849609 26.13671875 86.23974609 C26.89984375 86.71412109 27.66296875 87.18849609 28.44921875 87.67724609 C28.44921875 88.33724609 28.44921875 88.99724609 28.44921875 89.67724609 C29.10921875 89.67724609 29.76921875 89.67724609 30.44921875 89.67724609 C33.89341009 101.19888618 33.89341009 101.19888618 33.44921875 106.67724609 C34.70734375 106.51224609 35.96546875 106.34724609 37.26171875 106.17724609 C45.67326751 105.26467241 53.31244934 105.22086288 61.44921875 107.67724609 C61.44921875 108.33724609 61.44921875 108.99724609 61.44921875 109.67724609 C62.04734375 109.71849609 62.64546875 109.75974609 63.26171875 109.80224609 C65.44921875 110.67724609 65.44921875 110.67724609 67.19921875 113.61474609 C68.44921875 116.67724609 68.44921875 116.67724609 68.44921875 118.67724609 C75.07551952 118.9407173 80.27264926 118.11614001 86.57421875 116.17724609 C101.43002835 112.00660974 114.78952006 113.44016019 129.44921875 117.67724609 C130.43921875 118.33724609 131.42921875 118.99724609 132.44921875 119.67724609 C133.95921241 120.13162951 135.48206664 120.54421924 137.01171875 120.92724609 C141.86282707 122.32132367 145.70266306 124.44700382 149.94921875 127.13427734 C153.18397413 129.13072793 156.53483111 130.79398212 159.94921875 132.45849609 C162.46710974 133.68596795 164.95644061 134.9621973 167.44921875 136.23974609 C171.63680864 138.35669517 175.89094997 140.04459068 180.3203125 141.58740234 C182.94035435 142.92867147 183.96825231 144.14165204 185.44921875 146.67724609 C186.1796875 149.25537109 186.1796875 149.25537109 186.63671875 151.92724609 C186.79527344 152.81927734 186.95382813 153.71130859 187.1171875 154.63037109 C187.22675781 155.30583984 187.33632812 155.98130859 187.44921875 156.67724609 C186.78921875 156.67724609 186.12921875 156.67724609 185.44921875 156.67724609 C185.44921875 157.66724609 185.44921875 158.65724609 185.44921875 159.67724609 C180.28908655 161.01592293 177.6169687 160.27282458 172.88671875 157.92724609 C171.79230469 157.39615234 170.69789063 156.86505859 169.5703125 156.31787109 C163.89177266 153.33290647 163.89177266 153.33290647 161.44921875 151.67724609 C161.44921875 151.01724609 161.44921875 150.35724609 161.44921875 149.67724609 C159.34621707 148.03888755 159.34621707 148.03888755 156.69921875 146.48974609 C155.8175 145.93931641 154.93578125 145.38888672 154.02734375 144.82177734 C151.10289724 143.52350033 150.38240774 143.77708162 147.44921875 144.67724609 C144.26171875 143.05224609 144.26171875 143.05224609 141.44921875 140.67724609 C140.57421875 137.92724609 140.57421875 137.92724609 140.44921875 135.67724609 C137.80921875 135.34724609 135.16921875 135.01724609 132.44921875 134.67724609 C132.44921875 133.68724609 132.44921875 132.69724609 132.44921875 131.67724609 C132.11921875 132.66724609 131.78921875 133.65724609 131.44921875 134.67724609 C130.78921875 134.67724609 130.12921875 134.67724609 129.44921875 134.67724609 C128.78921875 134.01724609 128.12921875 133.35724609 127.44921875 132.67724609 C124.84641307 132.99766007 124.84641307 132.99766007 122.44921875 133.67724609 C122.11921875 133.01724609 121.78921875 132.35724609 121.44921875 131.67724609 C118.17887947 131.48035604 114.90793934 131.29635601 111.63671875 131.11474609 C110.70794922 131.05867187 109.77917969 131.00259766 108.82226562 130.94482422 C107.48325195 130.87231445 107.48325195 130.87231445 106.1171875 130.79833984 C105.29500732 130.7512085 104.47282715 130.70407715 103.62573242 130.65551758 C101.26635291 130.56778937 101.26635291 130.56778937 98.44921875 131.67724609 C96.10861225 131.39954702 93.77297567 131.07184633 91.44921875 130.67724609 C91.44921875 131.33724609 91.44921875 131.99724609 91.44921875 132.67724609 C84.58690553 135.59960001 77.97670008 138.18274236 70.44921875 136.67724609 C67.51999892 135.30187764 65.86511328 133.93558229 63.44921875 131.67724609 C63.44921875 130.68724609 63.44921875 129.69724609 63.44921875 128.67724609 C62.78921875 128.67724609 62.12921875 128.67724609 61.44921875 128.67724609 C61.18109375 127.54287109 60.91296875 126.40849609 60.63671875 125.23974609 C60.24484375 124.06412109 59.85296875 122.88849609 59.44921875 121.67724609 C57.96421875 121.18224609 57.96421875 121.18224609 56.44921875 120.67724609 C56.44921875 121.33724609 56.44921875 121.99724609 56.44921875 122.67724609 C55.78921875 122.67724609 55.12921875 122.67724609 54.44921875 122.67724609 C54.11921875 122.01724609 53.78921875 121.35724609 53.44921875 120.67724609 C52.78921875 121.33724609 52.12921875 121.99724609 51.44921875 122.67724609 C48.76953125 123.31005859 48.76953125 123.31005859 45.57421875 123.80224609 C44.52492188 123.96982422 43.475625 124.13740234 42.39453125 124.31005859 C39.39233028 124.68433829 36.47052267 124.67724609 33.44921875 124.67724609 C33.44921875 124.01724609 33.44921875 123.35724609 33.44921875 122.67724609 C31.79921875 122.67724609 30.14921875 122.67724609 28.44921875 122.67724609 C28.44921875 122.01724609 28.44921875 121.35724609 28.44921875 120.67724609 C27.78921875 120.67724609 27.12921875 120.67724609 26.44921875 120.67724609 C26.31644531 119.89478516 26.18367188 119.11232422 26.046875 118.30615234 C25.87027344 117.29423828 25.69367187 116.28232422 25.51171875 115.23974609 C25.33769531 114.23041016 25.16367187 113.22107422 24.984375 112.18115234 C24.70170778 109.7485023 24.70170778 109.7485023 23.44921875 108.67724609 C23.05605395 106.99840372 22.70836423 105.30874564 22.38671875 103.61474609 C22.21011719 102.69564453 22.03351562 101.77654297 21.8515625 100.82958984 C21.71878906 100.11931641 21.58601563 99.40904297 21.44921875 98.67724609 C20.45921875 98.34724609 19.46921875 98.01724609 18.44921875 97.67724609 C18.44921875 98.33724609 18.44921875 98.99724609 18.44921875 99.67724609 C14.24498728 99.21010926 12.28920573 98.76418846 9.44921875 95.67724609 C8.62421875 95.38849609 7.79921875 95.09974609 6.94921875 94.80224609 C3.77866966 93.375499 3.15294746 91.62005022 1.44921875 88.67724609 C0.45921875 88.67724609 -0.53078125 88.67724609 -1.55078125 88.67724609 C-2.4850177 85.66692866 -2.59528036 84.81074342 -1.55078125 81.67724609 C-2.21078125 81.34724609 -2.87078125 81.01724609 -3.55078125 80.67724609 C-3.55078125 79.68724609 -3.55078125 78.69724609 -3.55078125 77.67724609 C-4.04578125 76.68724609 -4.04578125 76.68724609 -4.55078125 75.67724609 C-4.68435578 72.00394645 -4.71793805 69.1787165 -3.55078125 65.67724609 C-4.52015625 65.45037109 -5.48953125 65.22349609 -6.48828125 64.98974609 C-11.22549701 63.59758473 -15.63957319 61.73186726 -19.55078125 58.67724609 C-21.36392439 54.83338264 -21.60493502 51.65185004 -21.55078125 47.48974609 C-21.26661428 43.87290204 -21.26661428 43.87290204 -22.55078125 41.67724609 C-24.22271236 38.33338388 -24.24386038 35.26111682 -23.55078125 31.67724609 C-21.34926775 26.53112147 -19.27347916 21.82571137 -14.55078125 18.67724609 C-13.96920826 16.58540748 -13.96920826 16.58540748 -13.86328125 14.23974609 C-13.79753906 13.45728516 -13.73179688 12.67482422 -13.6640625 11.86865234 C-13.57470669 10.14007967 -13.55078125 8.40812678 -13.55078125 6.67724609 C-14.21078125 6.67724609 -14.87078125 6.67724609 -15.55078125 6.67724609 C-15.59350225 5.01112704 -15.59141957 3.34341724 -15.55078125 1.67724609 C-12.58933931 -1.28419584 -3.96809429 0.06280859 0 0 Z M6.44921875 16.67724609 C8.42921875 17.66724609 8.42921875 17.66724609 10.44921875 18.67724609 C10.11921875 18.01724609 9.78921875 17.35724609 9.44921875 16.67724609 C8.45921875 16.67724609 7.46921875 16.67724609 6.44921875 16.67724609 Z M16.44921875 21.67724609 C16.44921875 22.33724609 16.44921875 22.99724609 16.44921875 23.67724609 C17.10921875 23.67724609 17.76921875 23.67724609 18.44921875 23.67724609 C18.44921875 23.01724609 18.44921875 22.35724609 18.44921875 21.67724609 C17.78921875 21.67724609 17.12921875 21.67724609 16.44921875 21.67724609 Z M18.44921875 23.67724609 C19.44921875 25.67724609 19.44921875 25.67724609 19.44921875 25.67724609 Z M-18.55078125 53.67724609 C-18.55078125 54.33724609 -18.55078125 54.99724609 -18.55078125 55.67724609 C-17.89078125 55.34724609 -17.23078125 55.01724609 -16.55078125 54.67724609 C-17.21078125 54.34724609 -17.87078125 54.01724609 -18.55078125 53.67724609 Z M-16.55078125 55.67724609 C-16.22078125 56.66724609 -15.89078125 57.65724609 -15.55078125 58.67724609 C-15.22078125 57.68724609 -14.89078125 56.69724609 -14.55078125 55.67724609 C-15.21078125 55.67724609 -15.87078125 55.67724609 -16.55078125 55.67724609 Z M67.44921875 60.67724609 C67.44921875 61.66724609 67.44921875 62.65724609 67.44921875 63.67724609 C68.10921875 62.68724609 68.76921875 61.69724609 69.44921875 60.67724609 C68.78921875 60.67724609 68.12921875 60.67724609 67.44921875 60.67724609 Z M-0.55078125 84.67724609 C0.44921875 86.67724609 0.44921875 86.67724609 0.44921875 86.67724609 Z M29.44921875 118.67724609 C30.44921875 120.67724609 30.44921875 120.67724609 30.44921875 120.67724609 Z " fill="#FF3E75" transform="translate(23.55078125,-0.67724609375)"/>
<path d="M0 0 C5.97017797 1.34329004 9.796548 4.74638747 14 9 C14.33 9.66 14.66 10.32 15 11 C10.10832797 10.58071383 8.23375968 8.55713565 5 5 C4.071875 4.071875 3.14375 3.14375 2.1875 2.1875 C1.465625 1.465625 0.74375 0.74375 0 0 Z " fill="#FF3E75" transform="translate(58,38)"/>
<path d="M0 0 C3.43927579 1.2419607 6.25207819 2.55740284 9 5 C9 5.66 9 6.32 9 7 C5.56072421 5.7580393 2.74792181 4.44259716 0 2 C0 1.34 0 0.68 0 0 Z " fill="#FF3E75" transform="translate(292,223)"/>
<path d="M0 0 C0.99 0.33 1.98 0.66 3 1 C4.1875 3.5625 4.1875 3.5625 5 6 C3.2925002 4.71937515 1.62626404 3.38232443 0 2 C0 1.34 0 0.68 0 0 Z " fill="#FF3E75" transform="translate(244,184)"/>
<path d="M0 0 C0.66 0 1.32 0 2 0 C2.33 1.32 2.66 2.64 3 4 C1.68 4.33 0.36 4.66 -1 5 C-0.67 3.35 -0.34 1.7 0 0 Z " fill="#FF3E75" transform="translate(162,135)"/>
<path d="M0 0 C1.32 0.33 2.64 0.66 4 1 C4 1.66 4 2.32 4 3 C2.68 2.34 1.36 1.68 0 1 C0 0.67 0 0.34 0 0 Z " fill="#FF3E75" transform="translate(240,181)"/>
<path d="M0 0 C1.32 0 2.64 0 4 0 C4 0.66 4 1.32 4 2 C2.68 2 1.36 2 0 2 C0 1.34 0 0.68 0 0 Z " fill="#FF3E75" transform="translate(248,81)"/>
<path d="M0 0 C0.33 1.32 0.66 2.64 1 4 C0.34 4 -0.32 4 -1 4 C-0.67 2.68 -0.34 1.36 0 0 Z " fill="#FF3E75" transform="translate(26,91)"/>
<path d="M0 0 C1.65 0 3.3 0 5 0 C5 0.66 5 1.32 5 2 C3.35 1.67 1.7 1.34 0 1 C0 0.67 0 0.34 0 0 Z " fill="#FF3E75" transform="translate(100,70)"/>
<path d="M0 0 C0.99 0.33 1.98 0.66 3 1 C2.67 1.66 2.34 2.32 2 3 C1.34 2.67 0.68 2.34 0 2 C0 1.34 0 0.68 0 0 Z " fill="#FF3E75" transform="translate(396,206)"/>
<path d="M0 0 C0 0.99 0 1.98 0 3 C-0.66 3 -1.32 3 -2 3 C-2 2.34 -2 1.68 -2 1 C-1.34 0.67 -0.68 0.34 0 0 Z " fill="#FF3E75" transform="translate(257,83)"/>
<path d="M0 0 C0.99 0.33 1.98 0.66 3 1 C2.67 1.66 2.34 2.32 2 3 C1.34 2.67 0.68 2.34 0 2 C0 1.34 0 0.68 0 0 Z " fill="#FF3E75" transform="translate(51,32)"/>
<path d="M0 0 C0.99 0.33 1.98 0.66 3 1 C2.01 1.33 1.02 1.66 0 2 C0 1.34 0 0.68 0 0 Z " fill="#FF3E75" transform="translate(495,148)"/>
<path d="M0 0 C0.66 0 1.32 0 2 0 C2.33 0.99 2.66 1.98 3 3 C2.34 3 1.68 3 1 3 C0.67 2.01 0.34 1.02 0 0 Z " fill="#FF3E75" transform="translate(269,108)"/>
<path d="M0 0 C0.66 0 1.32 0 2 0 C2 0.66 2 1.32 2 2 C1.34 2 0.68 2 0 2 C0 1.34 0 0.68 0 0 Z " fill="#FF3E75" transform="translate(228,985)"/>
<path d="M0 0 C0.66 0 1.32 0 2 0 C2 0.66 2 1.32 2 2 C1.34 2 0.68 2 0 2 C0 1.34 0 0.68 0 0 Z " fill="#FF3E75" transform="translate(207,975)"/>
<path d="M0 0 C0.66 0 1.32 0 2 0 C2 0.66 2 1.32 2 2 C1.34 2 0.68 2 0 2 C0 1.34 0 0.68 0 0 Z " fill="#FF3E75" transform="translate(292,252)"/>
<path d="M0 0 C0.66 0 1.32 0 2 0 C2 0.66 2 1.32 2 2 C1.34 2 0.68 2 0 2 C0 1.34 0 0.68 0 0 Z " fill="#FF3E75" transform="translate(288,237)"/>
<path d="M0 0 C0.66 0 1.32 0 2 0 C2 0.66 2 1.32 2 2 C1.34 2 0.68 2 0 2 C0 1.34 0 0.68 0 0 Z " fill="#FF3E75" transform="translate(343,235)"/>
<path d="M0 0 C0.66 0 1.32 0 2 0 C2 0.66 2 1.32 2 2 C1.34 2 0.68 2 0 2 C0 1.34 0 0.68 0 0 Z " fill="#FF3E75" transform="translate(430,221)"/>
<path d="M0 0 C0.66 0 1.32 0 2 0 C2 0.66 2 1.32 2 2 C1.34 2 0.68 2 0 2 C0 1.34 0 0.68 0 0 Z " fill="#FF3E75" transform="translate(453,209)"/>
<path d="M0 0 C0.66 0 1.32 0 2 0 C2 0.66 2 1.32 2 2 C1.34 2 0.68 2 0 2 C0 1.34 0 0.68 0 0 Z " fill="#FF3E75" transform="translate(394,208)"/>
<path d="M0 0 C0.66 0 1.32 0 2 0 C2 0.66 2 1.32 2 2 C1.34 2 0.68 2 0 2 C0 1.34 0 0.68 0 0 Z " fill="#FF3E75" transform="translate(290,194)"/>
<path d="M0 0 C0.66 0 1.32 0 2 0 C2 0.66 2 1.32 2 2 C1.34 2 0.68 2 0 2 C0 1.34 0 0.68 0 0 Z " fill="#FF3E75" transform="translate(184,193)"/>
<path d="M0 0 C0.66 0 1.32 0 2 0 C2 0.66 2 1.32 2 2 C1.34 2 0.68 2 0 2 C0 1.34 0 0.68 0 0 Z " fill="#FF3E75" transform="translate(251,192)"/>
<path d="M0 0 C0.66 0 1.32 0 2 0 C2 0.66 2 1.32 2 2 C1.34 2 0.68 2 0 2 C0 1.34 0 0.68 0 0 Z " fill="#FF3E75" transform="translate(273,188)"/>
<path d="M0 0 C0.66 0 1.32 0 2 0 C2 0.66 2 1.32 2 2 C1.34 2 0.68 2 0 2 C0 1.34 0 0.68 0 0 Z " fill="#FF3E75" transform="translate(333,186)"/>
<path d="M0 0 C0.66 0 1.32 0 2 0 C2 0.66 2 1.32 2 2 C1.34 2 0.68 2 0 2 C0 1.34 0 0.68 0 0 Z " fill="#FF3E75" transform="translate(311,185)"/>
<path d="M0 0 C0.66 0 1.32 0 2 0 C2 0.66 2 1.32 2 2 C1.34 2 0.68 2 0 2 C0 1.34 0 0.68 0 0 Z " fill="#FF3E75" transform="translate(295,184)"/>
<path d="M0 0 C0.66 0 1.32 0 2 0 C2 0.66 2 1.32 2 2 C1.34 2 0.68 2 0 2 C0 1.34 0 0.68 0 0 Z " fill="#FF3E75" transform="translate(292,183)"/>
<path d="M0 0 C0.66 0 1.32 0 2 0 C2 0.66 2 1.32 2 2 C1.34 2 0.68 2 0 2 C0 1.34 0 0.68 0 0 Z " fill="#FF3E75" transform="translate(402,148)"/>
<path d="M0 0 C0.66 0 1.32 0 2 0 C2 0.66 2 1.32 2 2 C1.34 2 0.68 2 0 2 C0 1.34 0 0.68 0 0 Z " fill="#FF3E75" transform="translate(493,146)"/>
<path d="M0 0 C0.66 0 1.32 0 2 0 C2 0.66 2 1.32 2 2 C1.34 2 0.68 2 0 2 C0 1.34 0 0.68 0 0 Z " fill="#FF3E75" transform="translate(332,137)"/>
<path d="M0 0 C0.66 0 1.32 0 2 0 C2 0.66 2 1.32 2 2 C1.34 2 0.68 2 0 2 C0 1.34 0 0.68 0 0 Z " fill="#FF3E75" transform="translate(149,136)"/>
<path d="M0 0 C0.66 0 1.32 0 2 0 C2 0.66 2 1.32 2 2 C1.34 2 0.68 2 0 2 C0 1.34 0 0.68 0 0 Z " fill="#FF3E75" transform="translate(157,135)"/>
<path d="M0 0 C0.66 0 1.32 0 2 0 C2 0.66 2 1.32 2 2 C1.34 2 0.68 2 0 2 C0 1.34 0 0.68 0 0 Z " fill="#FF3E75" transform="translate(506,133)"/>
<path d="M0 0 C0.66 0 1.32 0 2 0 C2 0.66 2 1.32 2 2 C1.34 2 0.68 2 0 2 C0 1.34 0 0.68 0 0 Z " fill="#FF3E75" transform="translate(445,124)"/>
<path d="M0 0 C0.66 0 1.32 0 2 0 C2 0.66 2 1.32 2 2 C1.34 2 0.68 2 0 2 C0 1.34 0 0.68 0 0 Z " fill="#FF3E75" transform="translate(75,124)"/>
<path d="M0 0 C0.66 0 1.32 0 2 0 C2 0.66 2 1.32 2 2 C1.34 2 0.68 2 0 2 C0 1.34 0 0.68 0 0 Z " fill="#FF3E75" transform="translate(72,124)"/>
<path d="M0 0 C0.66 0 1.32 0 2 0 C2 0.66 2 1.32 2 2 C1.34 2 0.68 2 0 2 C0 1.34 0 0.68 0 0 Z " fill="#FF3E75" transform="translate(449,123)"/>
<path d="M0 0 C0.66 0 1.32 0 2 0 C2 0.66 2 1.32 2 2 C1.34 2 0.68 2 0 2 C0 1.34 0 0.68 0 0 Z " fill="#FF3E75" transform="translate(81,121)"/>
<path d="M0 0 C0.66 0 1.32 0 2 0 C2 0.66 2 1.32 2 2 C1.34 2 0.68 2 0 2 C0 1.34 0 0.68 0 0 Z " fill="#FF3E75" transform="translate(193,108)"/>
<path d="M0 0 C0.66 0 1.32 0 2 0 C2 0.66 2 1.32 2 2 C1.34 2 0.68 2 0 2 C0 1.34 0 0.68 0 0 Z " fill="#FF3E75" transform="translate(275,84)"/>
<path d="M0 0 C0.66 0 1.32 0 2 0 C2 0.66 2 1.32 2 2 C1.34 2 0.68 2 0 2 C0 1.34 0 0.68 0 0 Z " fill="#FF3E75" transform="translate(252,83)"/>
<path d="M0 0 C0.66 0 1.32 0 2 0 C2 0.66 2 1.32 2 2 C1.34 2 0.68 2 0 2 C0 1.34 0 0.68 0 0 Z " fill="#FF3E75" transform="translate(243,76)"/>
<path d="M0 0 C0.66 0 1.32 0 2 0 C2 0.66 2 1.32 2 2 C1.34 2 0.68 2 0 2 C0 1.34 0 0.68 0 0 Z " fill="#FF3E75" transform="translate(105,72)"/>
<path d="M0 0 C0.66 0 1.32 0 2 0 C2 0.66 2 1.32 2 2 C1.34 2 0.68 2 0 2 C0 1.34 0 0.68 0 0 Z " fill="#FF3E75" transform="translate(78,53)"/>
<path d="M0 0 C0.66 0 1.32 0 2 0 C1.67 0.99 1.34 1.98 1 3 C0.67 2.01 0.34 1.02 0 0 Z " fill="#FF3E75" transform="translate(73,49)"/>
<path d="" fill="#FF3E75" transform="translate(0,0)"/>
<path d="M0 0 C0.33 0.66 0.66 1.32 1 2 C0.34 1.67 -0.32 1.34 -1 1 C-0.67 0.67 -0.34 0.34 0 0 Z " fill="#FF3E75" transform="translate(289,272)"/>
<path d="M0 0 C0.66 0.66 1.32 1.32 2 2 C1.34 2 0.68 2 0 2 C0 1.34 0 0.68 0 0 Z " fill="#FF3E75" transform="translate(346,232)"/>
<path d="M0 0 C0.66 0.66 1.32 1.32 2 2 C1.34 2 0.68 2 0 2 C0 1.34 0 0.68 0 0 Z " fill="#FF3E75" transform="translate(426,221)"/>
<path d="M0 0 C0.66 0 1.32 0 2 0 C1.67 0.66 1.34 1.32 1 2 C0.67 1.34 0.34 0.68 0 0 Z " fill="#FF3E75" transform="translate(340,188)"/>
<path d="M0 0 C0.33 0.66 0.66 1.32 1 2 C0.34 1.67 -0.32 1.34 -1 1 C-0.67 0.67 -0.34 0.34 0 0 Z " fill="#FF3E75" transform="translate(288,183)"/>
<path d="M0 0 C0.66 0.66 1.32 1.32 2 2 C1.34 2 0.68 2 0 2 C0 1.34 0 0.68 0 0 Z " fill="#FF3E75" transform="translate(346,141)"/>
<path d="M0 0 C0.99 0.495 0.99 0.495 2 1 C1.01 1.495 1.01 1.495 0 2 C0 1.34 0 0.68 0 0 Z " fill="#FF3E75" transform="translate(336,138)"/>
<path d="M0 0 C0.99 0.495 0.99 0.495 2 1 C1.01 1.495 1.01 1.495 0 2 C0 1.34 0 0.68 0 0 Z " fill="#FF3E75" transform="translate(32,96)"/>
<path d="M0 0 C0.66 0 1.32 0 2 0 C1.67 0.66 1.34 1.32 1 2 C0.67 1.34 0.34 0.68 0 0 Z " fill="#FF3E75" transform="translate(95,67)"/>
<path d="M0 0 C0.99 0.495 0.99 0.495 2 1 C1.01 1.495 1.01 1.495 0 2 C0 1.34 0 0.68 0 0 Z " fill="#FF3E75" transform="translate(82,57)"/>
<path d="M0 0 C0.66 0 1.32 0 2 0 C1.67 0.66 1.34 1.32 1 2 C0.67 1.34 0.34 0.68 0 0 Z " fill="#FF3E75" transform="translate(56,36)"/>
<path d="M0 0 C2 1 2 1 2 1 Z " fill="#FF3E75" transform="translate(257,987)"/>
<path d="" fill="#FF3E75" transform="translate(0,0)"/>
<path d="" fill="#FF3E75" transform="translate(0,0)"/>
<path d="" fill="#FF3E75" transform="translate(0,0)"/>
<path d="" fill="#FF3E75" transform="translate(0,0)"/>
<path d="M0 0 C2 1 2 1 2 1 Z " fill="#FF3E75" transform="translate(269,889)"/>
<path d="M0 0 C2 1 2 1 2 1 Z " fill="#FF3E75" transform="translate(294,260)"/>
<path d="M0 0 C2 1 2 1 2 1 Z " fill="#FF3E75" transform="translate(292,250)"/>
<path d="" fill="#FF3E75" transform="translate(0,0)"/>
<path d="M0 0 C2 1 2 1 2 1 Z " fill="#FF3E75" transform="translate(287,221)"/>
<path d="M0 0 C2 1 2 1 2 1 Z " fill="#FF3E75" transform="translate(190,201)"/>
<path d="" fill="#FF3E75" transform="translate(0,0)"/>
<path d="" fill="#FF3E75" transform="translate(0,0)"/>
<path d="M0 0 C2 1 2 1 2 1 Z " fill="#FF3E75" transform="translate(275,191)"/>
<path d="M0 0 C2 1 2 1 2 1 Z " fill="#FF3E75" transform="translate(250,190)"/>
<path d="" fill="#FF3E75" transform="translate(0,0)"/>
<path d="" fill="#FF3E75" transform="translate(0,0)"/>
<path d="" fill="#FF3E75" transform="translate(0,0)"/>
<path d="" fill="#FF3E75" transform="translate(0,0)"/>
<path d="M0 0 C2 1 2 1 2 1 Z " fill="#FF3E75" transform="translate(238,179)"/>
<path d="" fill="#FF3E75" transform="translate(0,0)"/>
<path d="M0 0 C2 1 2 1 2 1 Z " fill="#FF3E75" transform="translate(179,149)"/>
<path d="M0 0 C2 1 2 1 2 1 Z " fill="#FF3E75" transform="translate(341,140)"/>
<path d="" fill="#FF3E75" transform="translate(0,0)"/>
<path d="" fill="#FF3E75" transform="translate(0,0)"/>
<path d="M0 0 C2 1 2 1 2 1 Z " fill="#FF3E75" transform="translate(490,120)"/>
<path d="M0 0 C2 1 2 1 2 1 Z " fill="#FF3E75" transform="translate(311,110)"/>
<path d="" fill="#FF3E75" transform="translate(0,0)"/>
<path d="" fill="#FF3E75" transform="translate(0,0)"/>
<path d="M0 0 C2 1 2 1 2 1 Z " fill="#FF3E75" transform="translate(213,100)"/>
<path d="" fill="#FF3E75" transform="translate(0,0)"/>
<path d="M0 0 C2 1 2 1 2 1 Z " fill="#FF3E75" transform="translate(260,90)"/>
<path d="M0 0 C2 1 2 1 2 1 Z " fill="#FF3E75" transform="translate(258,88)"/>
<path d="M0 0 C2 1 2 1 2 1 Z " fill="#FF3E75" transform="translate(248,79)"/>
<path d="M0 0 C2 1 2 1 2 1 Z " fill="#FF3E75" transform="translate(244,79)"/>
<path d="" fill="#FF3E75" transform="translate(0,0)"/>
<path d="" fill="#FF3E75" transform="translate(0,0)"/>
<path d="" fill="#FF3E75" transform="translate(0,0)"/>
<path d="" fill="#FF3E75" transform="translate(0,0)"/>
<path d="" fill="#FF3E75" transform="translate(0,0)"/>
<path d="" fill="#FF3E75" transform="translate(0,0)"/>
<path d="" fill="#FF3E75" transform="translate(0,0)"/>
</svg>
