<?xml version="1.0" encoding="UTF-8"?>
<svg version="1.1" xmlns="http://www.w3.org/2000/svg" width="951" height="923">
<path d="M0 0 C1.99954746 -0.04254356 4.00041636 -0.04080783 6 0 C6.33 0.33 6.66 0.66 7 1 C9.32817964 1.36760731 11.6618385 1.70241581 14 2 C14.33 2.99 14.66 3.98 15 5 C16.65984798 5.68346682 18.32836805 6.34588315 20 7 C22.45068173 8.51201482 24.85627408 10.07250004 27 12 C27 12.66 27 13.32 27 14 C27.99 14.33 28.98 14.66 30 15 C31.29218548 16.4860133 32.58076802 17.9768064 33.8046875 19.51953125 C35.00742923 21.07252844 35.00742923 21.07252844 36.625 22.5625 C39.07353699 25.12233413 40.60839686 28.2913848 42.3125 31.375 C44.16566503 34.25770116 46.26231245 36.73334615 48.5234375 39.30078125 C49.75576735 40.71893862 50.91866459 42.1970478 52.0625 43.6875 C53.98261635 46.13590258 53.98261635 46.13590258 56.75 48.1875 C57.4925 48.785625 58.235 49.38375 59 50 C59 50.66 59 51.32 59 52 C59.99 52.33 60.98 52.66 62 53 C67.10090801 57.79309459 71.33897847 64.07521073 75 70 C75 70.66 75 71.32 75 72 C75.66 72 76.32 72 77 72 C78.625 73.375 78.625 73.375 80 75 C80 75.66 80 76.32 80 77 C80.66 77 81.32 77 82 77 C83.5078125 79.1171875 83.5078125 79.1171875 85.125 81.875 C85.66382812 82.77992187 86.20265625 83.68484375 86.7578125 84.6171875 C88 87 88 87 88 89 C89.485 89.495 89.485 89.495 91 90 C92.54296875 91.53125 92.54296875 91.53125 94.1875 93.5 C97.53303861 97.46031708 100.99004337 101.29845331 104.49609375 105.1171875 C106 107 106 107 106 109 C106.66 109 107.32 109 108 109 C112 114.29411765 112 114.29411765 112 118 C112.8971875 118.4021875 112.8971875 118.4021875 113.8125 118.8125 C115.99847854 119.99917406 117.41332594 121.09599113 119 123 C119 123.66 119 124.32 119 125 C119.66 125 120.32 125 121 125 C125 130.41176471 125 130.41176471 125 133 C125.99 133.33 126.98 133.66 128 134 C128 134.66 128 135.32 128 136 C128.66 136 129.32 136 130 136 C133 140.38461538 133 140.38461538 133 143 C133.66 143.33 134.32 143.66 135 144 C145 155.97142857 145 155.97142857 145 160 C145.66 160 146.32 160 147 160 C147 160.99 147 161.98 147 163 C147.556875 163.2475 148.11375 163.495 148.6875 163.75 C154.50310918 166.89357253 160.46281975 171.77237576 163 178 C163.66 178 164.32 178 165 178 C170 183.47619048 170 183.47619048 170 186 C170.66 186 171.32 186 172 186 C173.7265625 187.6796875 173.7265625 187.6796875 175.625 189.875 C176.25664062 190.59429687 176.88828125 191.31359375 177.5390625 192.0546875 C179 194 179 194 179 196 C179.99 196 180.98 196 182 196 C182 196.66 182 197.32 182 198 C183.32 198.66 184.64 199.32 186 200 C186 200.66 186 201.32 186 202 C186.99 202.33 187.98 202.66 189 203 C191.04296875 205.21484375 191.04296875 205.21484375 193.1875 207.9375 C193.90292969 208.83339844 194.61835938 209.72929687 195.35546875 210.65234375 C197 213 197 213 197 215 C197.99 215.33 198.98 215.66 200 216 C201.82421875 217.77734375 201.82421875 217.77734375 203.6875 219.9375 C204.62142578 221.00291016 204.62142578 221.00291016 205.57421875 222.08984375 C207 224 207 224 207 226 C207.66 226 208.32 226 209 226 C210.7265625 227.8984375 210.7265625 227.8984375 212.625 230.375 C213.25664062 231.18710938 213.88828125 231.99921875 214.5390625 232.8359375 C216 235 216 235 216 237 C216.66 237 217.32 237 218 237 C218 237.66 218 238.32 218 239 C218.99 239 219.98 239 221 239 C227.82003825 246.5180379 233.329344 256.07779594 236.75 265.625 C237.59292246 269.08122135 237.59292246 269.08122135 240 270 C241.51596149 270.20633124 243.03840302 270.36643282 244.5625 270.5 C245.45324219 270.58378906 246.34398437 270.66757812 247.26171875 270.75390625 C249.01398267 270.91138503 250.76656666 271.06536615 252.51953125 271.21484375 C253.68548828 271.32505859 253.68548828 271.32505859 254.875 271.4375 C255.57367188 271.49808594 256.27234375 271.55867188 256.9921875 271.62109375 C259.26110845 272.04927533 260.95058189 272.958561 263 274 C265.66709069 274.16750414 265.66709069 274.16750414 268 274 C268 274.99 268 275.98 268 277 C268.56847656 277.02578125 269.13695312 277.0515625 269.72265625 277.078125 C274.75226015 277.44757838 278.05218039 278.33795395 282.28515625 281.03515625 C284.56918863 282.32024964 286.95894838 282.75558822 289.5 283.31640625 C298.42564247 285.75701161 307.53961462 289.51890054 315 295 C315 295.66 315 296.32 315 297 C315.99 297.33 316.98 297.66 318 298 C326.64049392 306.21949538 331.70492584 316.14105172 332.06640625 328.21875 C331.75992558 331.0708966 331.01140807 332.98265974 329.4375 335.375 C327.05386937 339.7277168 327.56819541 344.40457879 328.3671875 349.20703125 C328.57601563 349.79871094 328.78484375 350.39039063 329 351 C331.37625345 352.18391223 331.37625345 352.18391223 334 353 C334.99 353.66 335.98 354.32 337 355 C337 355.66 337 356.32 337 357 C337.86625 357.3403125 337.86625 357.3403125 338.75 357.6875 C341 359 341 359 342.9375 361.4375 C344.80107595 364.07461978 344.80107595 364.07461978 347.3125 365.3125 C350.70264881 367.44119809 352.88958003 370.11242677 355.44921875 373.16015625 C357.02023639 375.0768666 357.02023639 375.0768666 359 377 C359 377.99 359 378.98 359 380 C359.99 380.33 360.98 380.66 362 381 C362 381.66 362 382.32 362 383 C362.99 383.33 363.98 383.66 365 384 C366.5078125 385.49609375 366.5078125 385.49609375 368.125 387.4375 C371.66880989 391.63113431 375.35362845 395.67311302 379.08203125 399.703125 C380.80327387 401.76440944 381.84105726 403.607687 383 406 C383.598125 406.28875 384.19625 406.5775 384.8125 406.875 C388.13333325 408.5828571 389.76432833 411.01910444 392 414 C392 414.66 392 415.32 392 416 C392.639375 416.268125 393.27875 416.53625 393.9375 416.8125 C396 418 396 418 397 421 C397.66 421 398.32 421 399 421 C400.36363208 422.97946592 401.69418644 424.9819245 403 427 C404.64505006 428.78213756 406.39608687 430.36213657 408.1875 432 C410 434 410 434 410 437 C410.99 437 411.98 437 413 437 C413 437.66 413 438.32 413 439 C413.66 439 414.32 439 415 439 C416.34919532 440.65385233 417.68133728 442.321702 419 444 C419.99 444.66 420.98 445.32 422 446 C422 446.66 422 447.32 422 448 C422.66 448 423.32 448 424 448 C425.625 449.375 425.625 449.375 427 451 C427 451.66 427 452.32 427 453 C427.66 453 428.32 453 429 453 C429 453.66 429 454.32 429 455 C429.99 455 430.98 455 432 455 C434.6875 457.375 434.6875 457.375 437 460 C437 460.66 437 461.32 437 462 C437.639375 462.268125 438.27875 462.53625 438.9375 462.8125 C441 464 441 464 442 467 C442.99 467.33 443.98 467.66 445 468 C445 468.66 445 469.32 445 470 C445.66 470 446.32 470 447 470 C447 470.66 447 471.32 447 472 C447.66 472 448.32 472 449 472 C449 472.66 449 473.32 449 474 C449.66 474 450.32 474 451 474 C452.55078125 475.57421875 452.55078125 475.57421875 454.3125 477.6875 C457.5749863 481.5229436 460.99754971 485.08813674 464.640625 488.56640625 C466.12859545 490.00918133 467.56813064 491.50153207 469 493 C469 493.66 469 494.32 469 495 C469.763125 495.268125 470.52625 495.53625 471.3125 495.8125 C473.88988618 496.95134505 475.26954864 497.81416671 477 500 C477 500.66 477 501.32 477 502 C477.99 502.33 478.98 502.66 480 503 C480 503.99 480 504.98 480 506 C480.56460937 506.25007813 481.12921875 506.50015625 481.7109375 506.7578125 C484.3483546 508.18903884 486.38017502 509.8854394 488.625 511.875 C489.40101563 512.55304687 490.17703125 513.23109375 490.9765625 513.9296875 C493 516 493 516 493.8984375 518.125 C495.60744886 521.03395551 497.82456171 521.23378029 501 522.125 C502.18207031 522.46015625 503.36414063 522.7953125 504.58203125 523.140625 C507.28629763 523.82055483 509.94391248 524.39618891 512.6875 524.875 C524.91044571 527.17555443 536.28085667 531.12489056 546 539 C546.66 539.33 547.32 539.66 548 540 C548 540.66 548 541.32 548 542 C548.7425 542.20625 549.485 542.4125 550.25 542.625 C553.89792969 544.44896484 555.08032472 546.43488877 557 550 C558.25769643 554.40193749 558.04473069 556.91053862 556 561 C555.07767578 560.98259766 555.07767578 560.98259766 554.13671875 560.96484375 C553.32847656 560.95582031 552.52023437 560.94679688 551.6875 560.9375 C550.88699219 560.92589844 550.08648438 560.91429687 549.26171875 560.90234375 C546.83138666 560.90342145 546.83138666 560.90342145 544 562 C544.515625 562.721875 545.03125 563.44375 545.5625 564.1875 C547 567 547 567 546.4375 569.4375 C545.71044589 572.15601231 545.71044589 572.15601231 547.5 574.9375 C549.98428528 577.98074947 552.52914188 580.29588399 555.609375 582.703125 C556.06828125 583.13109375 556.5271875 583.5590625 557 584 C557 584.66 557 585.32 557 586 C557.99 586.33 558.98 586.66 560 587 C560 587.66 560 588.32 560 589 C560.66 589 561.32 589 562 589 C566 593.47058824 566 593.47058824 566 596 C566.66 596 567.32 596 568 596 C568 596.66 568 597.32 568 598 C568.53625 598.2475 569.0725 598.495 569.625 598.75 C572.5823982 600.30652537 575.29724051 602.03435673 578 604 C578 604.66 578 605.32 578 606 C578.66 606 579.32 606 580 606 C580 606.66 580 607.32 580 608 C580.66 608 581.32 608 582 608 C582.598125 608.763125 583.19625 609.52625 583.8125 610.3125 C586.02938148 613.03609725 588.00913442 614.25532841 591 616 C591 616.66 591 617.32 591 618 C591.515625 618.226875 592.03125 618.45375 592.5625 618.6875 C595.89547005 620.48217618 599.14703671 622.49965015 602 625 C602 625.66 602 626.32 602 627 C602.66 627 603.32 627 604 627 C605.20054559 628.4673335 606.39895146 629.93651693 607.58203125 631.41796875 C609.71626657 633.79914038 612.30942053 635.29779666 615 637 C616.42204354 638.16349017 617.84276788 639.32892555 619.2421875 640.51953125 C625.17479576 645.51610576 631.26984823 650.29368708 637.6015625 654.7734375 C638.06304688 655.17820312 638.52453125 655.58296875 639 656 C639 656.66 639 657.32 639 658 C639.54011719 658.26941406 640.08023438 658.53882813 640.63671875 658.81640625 C642.34970168 659.6743134 644.06034291 660.53690142 645.76953125 661.40234375 C652.2784465 664.71946325 652.2784465 664.71946325 659 667.5625 C662.43564635 669.20874721 663.9912715 670.7860344 666 674 C666 674.99 666 675.98 666 677 C666.515625 677.226875 667.03125 677.45375 667.5625 677.6875 C670.89547005 679.48217618 674.14703671 681.49965015 677 684 C677 684.66 677 685.32 677 686 C677.85722656 686.2475 678.71445312 686.495 679.59765625 686.75 C683.28467421 688.10458754 686.16035204 689.83839475 689.4375 692 C690.03224121 692.38937744 690.62698242 692.77875488 691.23974609 693.17993164 C694.54191067 695.34824116 697.82249078 697.54888627 701.10546875 699.74609375 C702.11299194 700.41995117 702.11299194 700.41995117 703.14086914 701.10742188 C704.43768711 701.97675426 705.73253793 702.84903026 707.02514648 703.72460938 C709.93744538 705.68594545 712.79983538 707.54320864 716 709 C716 709.66 716 710.32 716 711 C716.99 711 717.98 711 719 711 C719 711.66 719 712.32 719 713 C719.886875 713.268125 720.77375 713.53625 721.6875 713.8125 C726.07089545 715.38390592 729.09354585 717.04454833 732.3125 720.4375 C739.09283606 726.9024716 749.37718334 729.63171224 758 733 C758 733.66 758 734.32 758 735 C758.66 735 759.32 735 760 735 C760 735.99 760 736.98 760 738 C760.66 738 761.32 738 762 738 C762.33 738.99 762.66 739.98 763 741 C764.96989343 742.42725421 767.00033851 743.77214164 769.0625 745.0625 C771.07488854 746.32347158 773.06398667 747.62464211 775 749 C775 749.66 775 750.32 775 751 C775.5775 751.12375 776.155 751.2475 776.75 751.375 C779.02335767 752.00648824 780.9253529 752.88858191 783 754 C783 754.66 783 755.32 783 756 C783.57234375 756.10699219 784.1446875 756.21398437 784.734375 756.32421875 C787.33212011 757.09906341 789.04339105 758.24485515 791.25 759.8125 C794.77234187 762.23591748 798.29084252 764.21277997 802.13671875 766.0625 C804.96803905 767.48706367 807.46263694 769.0969777 810 771 C810 771.66 810 772.32 810 773 C817.06595281 774.5360767 823.22507733 773.33695178 830 770.9375 C835.51314867 769.21464104 841.25071974 769 847 769 C847 769.66 847 770.32 847 771 C848.65 771.33 850.3 771.66 852 772 C852 774.97 852 777.94 852 781 C850.68 780.67 849.36 780.34 848 780 C848 780.66 848 781.32 848 782 C845.69 782.66 843.38 783.32 841 784 C840.67 785.65 840.34 787.3 840 789 C841.1446875 789.185625 841.1446875 789.185625 842.3125 789.375 C845 790 845 790 848 792 C849.67357763 792.41500385 851.36412068 792.76484589 853.0625 793.0625 C857.81321185 793.90660592 857.81321185 793.90660592 860 795 C860 795.66 860 796.32 860 797 C861.01707031 796.73123047 861.01707031 796.73123047 862.0546875 796.45703125 C872.29919074 794.86736695 883.9011774 798.4505887 893 803 C893 803.66 893 804.32 893 805 C893.66 805 894.32 805 895 805 C894.54177532 808.46941546 894.10868317 811.67395049 893 815 C897.62 817.64 902.24 820.28 907 823 C907 823.66 907 824.32 907 825 C907.7425 825.28875 908.485 825.5775 909.25 825.875 C910.1575 826.24625 911.065 826.6175 912 827 C912.66 827.268125 913.32 827.53625 914 827.8125 C916.77923151 829.46266871 918.78505123 831.66532427 921 834 C921.33 834.33 921.66 834.66 922 835 C922.04092937 837.33297433 922.04241723 839.66705225 922 842 C920.35 842 918.7 842 917 842 C917 842.66 917 843.32 917 844 C915.68 843.34 914.36 842.68 913 842 C912.67 845.3 912.34 848.6 912 852 C913.4540625 852.5878125 913.4540625 852.5878125 914.9375 853.1875 C918 855 918 855 918.875 857.6875 C918.936875 858.8321875 918.936875 858.8321875 919 860 C916.64031256 862.09749995 915.45383006 862.96905704 912.25 863.1875 C911.13625 863.0946875 911.13625 863.0946875 910 863 C909.34 864.65 908.68 866.3 908 868 C907.34 868 906.68 868 906 868 C905.94570041 869.74965358 905.90707177 871.49979787 905.875 873.25 C905.84019531 874.71179688 905.84019531 874.71179688 905.8046875 876.203125 C906.00137219 879.0196498 906.55431084 880.60949036 908 883 C908.66 883 909.32 883 910 883 C910 883.99 910 884.98 910 886 C911.32 886.33 912.64 886.66 914 887 C914.33 885.35 914.66 883.7 915 882 C913.68 881.34 912.36 880.68 911 880 C911 878.02 911 876.04 911 874 C912.98 873.67 914.96 873.34 917 873 C917.64687807 870.27107717 918.29253718 867.54187553 918.9375 864.8125 C919.21110352 863.65911133 919.21110352 863.65911133 919.49023438 862.48242188 C920.39120113 858.66559908 921.26637997 854.85343574 922 851 C920.35 850.34 918.7 849.68 917 849 C917 847.68 917 846.36 917 845 C917.78375 844.773125 918.5675 844.54625 919.375 844.3125 C922.21875 843.21875 922.21875 843.21875 923.3125 840.375 C923.539375 839.59125 923.76625 838.8075 924 838 C925.32 838 926.64 838 928 838 C930.125 842.625 930.125 842.625 929 846 C929.09268505 848.06618749 929.09268505 848.06618749 929.4375 850.1875 C929.623125 851.445625 929.80875 852.70375 930 854 C930.721875 853.731875 931.44375 853.46375 932.1875 853.1875 C933.5796875 853.0946875 933.5796875 853.0946875 935 853 C937.375 855.1875 937.375 855.1875 940 858 C941.18591455 858.70577658 942.39586123 859.3725195 943.625 860 C947.10311529 862.06110536 948.58742638 863.23313702 950 867 C949.5 869.25 949.5 869.25 948 871 C945.375 871.75 945.375 871.75 943 872 C943.0928125 873.7634375 943.0928125 873.7634375 943.1875 875.5625 C943.21144173 880.03960301 941.9879056 883.0241888 940 887 C939.34 887 938.68 887 938 887 C937.67 888.32 937.34 889.64 937 891 C933.7 891.66 930.4 892.32 927 893 C927 893.66 927 894.32 927 895 C926.01 894.67 925.02 894.34 924 894 C924 893.34 924 892.68 924 892 C923.34 892.33 922.68 892.66 922 893 C921.67 893.99 921.34 894.98 921 896 C920.34 896 919.68 896 919 896 C918.67 896.99 918.34 897.98 918 899 C912.36529617 899.5497272 909.61012242 897.95047835 905 895 C904.85304688 895.60328125 904.70609375 896.2065625 904.5546875 896.828125 C903.36570292 901.06473673 902.49290751 903.52949738 899.25 906.625 C895.18666383 908.34410376 893.22488811 908.20711089 889 907 C885.5625 905.3125 885.5625 905.3125 883 903 C882.39891004 899.7273991 882.4047685 897.9920525 884.125 895.125 C886.78034983 893.5317901 888.96789518 893.79785968 892 894 C892 894.66 892 895.32 892 896 C892.66 896 893.32 896 894 896 C894.99 893.03 895.98 890.06 897 887 C896.21625 886.608125 895.4325 886.21625 894.625 885.8125 C891.62221269 883.73914686 890.79461144 882.5316064 890 879 C890.66 878.01 891.32 877.02 892 876 C893.65 876.66 895.3 877.32 897 878 C897.103125 876.865625 897.20625 875.73125 897.3125 874.5625 C897.89741433 869.7984152 899.36903429 865.49401964 901 861 C901.33 860.01 901.66 859.02 902 858 C901.154375 858.20625 900.30875 858.4125 899.4375 858.625 C895.44344849 859.06071471 892.76300035 858.32811777 889 857 C888 856 888 856 887.6875 853.1875 C888 850 888 850 889.625 847.5625 C892 846 892 846 894.9375 846.125 C897.72654089 846.92186882 900.34748064 847.82977087 903 849 C902.79375 847.824375 902.5875 846.64875 902.375 845.4375 C901.81052474 841.09954633 902.54958627 838.09528583 904 834 C903.278125 833.7525 902.55625 833.505 901.8125 833.25 C898.75286734 831.89016326 896.5326262 830.17082246 894 828 C893.67 828.33 893.34 828.66 893 829 C890.66055264 828.71269945 888.3260857 828.38063221 886 828 C886.33 830.31 886.66 832.62 887 835 C887.99 835.33 888.98 835.66 890 836 C890.75 838.1875 890.75 838.1875 891 841 C889.0625 843.8125 889.0625 843.8125 887 846 C883.5625 845.1875 883.5625 845.1875 880 844 C879.67 843.01 879.34 842.02 879 841 C875.62713384 846.84180419 876.3588723 853.13861233 877.79296875 859.5390625 C879.41354118 866.27498185 879.41354118 866.27498185 884 871 C884.80078125 872.83984375 884.80078125 872.83984375 885.3125 874.9375 C885.49425781 875.62714844 885.67601562 876.31679688 885.86328125 877.02734375 C886 879 886 879 884 882 C880.875 883.1875 880.875 883.1875 878 884 C878.02320313 884.75925781 878.04640625 885.51851562 878.0703125 886.30078125 C878.09738281 887.79158203 878.09738281 887.79158203 878.125 889.3125 C878.15980469 890.79169922 878.15980469 890.79169922 878.1953125 892.30078125 C878 895 878 895 876 898 C876.020625 898.825 876.04125 899.65 876.0625 900.5 C876 903 876 903 874.81640625 904.625 C871.73043377 906.96104798 868.67510382 906.52016177 864.9296875 906.42578125 C859.1692061 905.58859129 853.73190372 902.51135196 850 898 C850.26095544 895.32520673 850.8004757 893.39904859 852 891 C855.83931146 891.60075557 858.8166947 892.75847281 862.25 894.5625 C864.98426363 896.23472602 864.98426363 896.23472602 868 897 C868.33 889.74 868.66 882.48 869 875 C867.123125 874.4225 865.24625 873.845 863.3125 873.25 C855.04239766 870.4770259 855.04239766 870.4770259 852 867 C852 865.68 852 864.36 852 863 C857.72398793 863.74660712 863.34853777 864.82877141 869 866 C868.76603516 865.19949219 868.76603516 865.19949219 868.52734375 864.3828125 C866.03795977 854.85391224 867.06051322 847.48974291 872 839 C872.33 838.67 872.66 838.34 873 838 C871.22882813 837.70996094 871.22882813 837.70996094 869.421875 837.4140625 C867.86452669 837.15137724 866.30723809 836.88833782 864.75 836.625 C863.58404297 836.43550781 863.58404297 836.43550781 862.39453125 836.2421875 C854.66933399 834.92164096 854.66933399 834.92164096 852 833 C851.46702927 830.6016317 851.2126285 828.43704971 851 826 C849.43679639 812.75505794 849.43679639 812.75505794 841 803 C840.3125 800.8125 840.3125 800.8125 840 799 C839.34 798.67 838.68 798.34 838 798 C838.144375 799.15757812 838.28875 800.31515625 838.4375 801.5078125 C838.62518776 803.04685211 838.81267727 804.58591591 839 806.125 C839.09539063 806.88554688 839.19078125 807.64609375 839.2890625 808.4296875 C839.79830188 812.64909952 840.10888068 816.74004344 840 821 C840.763125 821.20625 841.52625 821.4125 842.3125 821.625 C845.87313444 823.44671994 846.64197328 825.3031495 848 829 C846.81953922 832.54138233 846.35354271 832.53904168 843.1875 834.125 C838.21045344 837.15760902 836.38287636 840.38947305 835 846 C833.60760707 855.13822323 833.05014379 865.11056844 836 874 C838.7929709 876.58557538 838.7929709 876.58557538 842 878 C843.9375 880.5625 843.9375 880.5625 845 883 C844.67 883.99 844.34 884.98 844 886 C843.34 886 842.68 886 842 886 C841.67 886.99 841.34 887.98 841 889 C838.36 889 835.72 889 833 889 C833 896.26 833 903.52 833 911 C836.3 912.32 839.6 913.64 843 915 C843.33 916.32 843.66 917.64 844 919 C843.34 919 842.68 919 842 919 C841.67 919.99 841.34 920.98 841 922 C839.88625 921.79375 838.7725 921.5875 837.625 921.375 C835.830625 921.189375 835.830625 921.189375 834 921 C833.34 921.66 832.68 922.32 832 923 C831.01 922.34 830.02 921.68 829 921 C829 920.34 829 919.68 829 919 C813.95935169 917.64293951 813.95935169 917.64293951 799.21484375 920.30859375 C797 921 797 921 794 921 C794.144375 920.443125 794.28875 919.88625 794.4375 919.3125 C795.02769958 916.88612396 795.51657635 914.44961731 796 912 C794.70787598 912.00523682 793.41575195 912.01047363 792.08447266 912.01586914 C787.30241587 912.03393367 782.52036211 912.04543736 777.73828125 912.05493164 C775.66633599 912.05996852 773.5943943 912.06679825 771.52246094 912.07543945 C768.54881918 912.08753321 765.57522431 912.09323467 762.6015625 912.09765625 C761.20618759 912.10539818 761.20618759 912.10539818 759.78262329 912.11329651 C758.92188202 912.11337204 758.06114075 912.11344757 757.17431641 912.11352539 C756.41486725 912.115746 755.65541809 912.11796661 754.87295532 912.12025452 C753 912 753 912 751 911 C750.21625 910.896875 749.4325 910.79375 748.625 910.6875 C745.28902612 909.81379256 743.98081985 908.81885902 742 906 C742.18376512 902.93724796 742.63026545 900.7394691 744 898 C743.46761719 898.18046875 742.93523438 898.3609375 742.38671875 898.546875 C739.33118205 899.12697689 736.88252463 898.73416159 733.8125 898.25 C732.74644531 898.09015625 731.68039062 897.9303125 730.58203125 897.765625 C727.75021555 897.16035141 725.36559881 896.42474699 722.67578125 895.42578125 C717.80577129 893.74675111 713.47622028 893.73659749 708.375 893.9375 C696.01157593 894.13028637 685.04833269 893.08766585 673.375 888.6875 C672.61622559 888.40382568 671.85745117 888.12015137 671.07568359 887.82788086 C666.4524366 885.96209639 663.20158691 883.96772541 660 880 C659.45472927 876.18310492 659.59811031 873.88838773 661.1875 870.375 C663.30419656 867.60139761 665.3128947 865.23925442 668 863 C670.6640625 862.86328125 670.6640625 862.86328125 673 863 C673.03738281 862.12601563 673.07476563 861.25203125 673.11328125 860.3515625 C673.55402171 852.10712329 674.50853486 844.11816767 675.98364258 835.99267578 C676.59934789 832.57834456 677 829.48415766 677 826 C677.33 825.34 677.66 824.68 678 824 C678.37579745 821.02004365 678.70715356 818.050729 679 815.0625 C679.12918823 813.77230957 679.12918823 813.77230957 679.26098633 812.45605469 C679.43159731 810.74511167 679.60065703 809.03401316 679.76806641 807.32275391 C679.96058392 805.39474168 680.17131383 803.46855823 680.38671875 801.54296875 C681.06516489 795.2431117 681.02592141 790.07776422 679 784 C678.96045766 781.66700175 678.95598268 779.33291811 679 777 C682.42012751 777.95003542 683.88645743 778.86374891 686.1875 781.625 C692.89704158 794.11862915 689.54588295 808.55633931 688 822 C688.845625 821.7834375 689.69125 821.566875 690.5625 821.34375 C700.92388494 818.80050097 709.44934425 818.92280018 720 820 C720.84949219 820.08378906 721.69898438 820.16757812 722.57421875 820.25390625 C725.04988219 820.49875208 727.52495163 820.74902006 730 821 C731.87497452 821.18775465 733.74997391 821.37526111 735.625 821.5625 C737.08333333 821.70833333 738.54166667 821.85416667 740 822 C739.7834375 821.47535156 739.566875 820.95070313 739.34375 820.41015625 C735.17014958 808.79749954 735.67279962 795.50183313 740 784 C740.33 783.34 740.66 782.68 741 782 C733.63895329 777.83137857 726.97027303 777.35177162 718.625 777.25 C717.47 777.22035156 716.315 777.19070313 715.125 777.16015625 C709.80101771 777.03396705 704.48518329 776.99903026 699.16015625 777.046875 C694.61034922 777.05851134 690.314103 776.66078576 685.8125 776 C684.51957031 775.814375 683.22664062 775.62875 681.89453125 775.4375 C680.93933594 775.293125 679.98414063 775.14875 679 775 C677.875 769.375 677.875 769.375 679 766 C679.93294473 752.22090792 679.93294473 752.22090792 677 739 C674.59867226 737.45511683 674.59867226 737.45511683 672 737 C670 734 670 734 670 731.5625 C671.44968593 727.84767981 673.56238882 726.95318817 677 725 C679.73242569 724.22450623 682.22059831 723.63311836 685 723.1875 C685.73968018 723.0627832 686.47936035 722.93806641 687.24145508 722.80957031 C695.369339 721.5796301 703.08517961 722.16176683 711.18359375 723.54296875 C714.16658929 724.02703321 716.98331765 724.07182577 720 724 C713.31606802 716.78135346 704.69991252 712.34995626 696 708 C696 707.34 696 706.68 696 706 C695.28328125 705.731875 694.5665625 705.46375 693.828125 705.1875 C690.96942097 703.98716019 688.40853175 702.59193518 685.75 701 C684.87859375 700.484375 684.0071875 699.96875 683.109375 699.4375 C681 698 681 698 680 696 C678.28896016 695.27609853 676.57676431 694.55463416 674.85546875 693.85546875 C672.18975643 692.62643507 670.13022844 691.00112369 668 689 C668 688.34 668 687.68 668 687 C666.35 687.33 664.7 687.66 663 688 C663.33 689.32 663.66 690.64 664 692 C662.35 692 660.7 692 659 692 C656.54152539 703.34918466 655.3894125 714.39819322 655 726 C655.66 726 656.32 726 657 726 C659.72439665 731.68569736 661.68535198 737.08370299 660.5625 743.5 C660.376875 743.995 660.19125 744.49 660 745 C659.34 745 658.68 745 658 745 C658 745.66 658 746.32 658 747 C657.01 747.33 656.02 747.66 655 748 C650.09828007 756.98920067 652.31141521 773.2636245 654.734375 782.9296875 C655.2540271 784.62100801 655.79860723 786.3050792 656.37890625 787.9765625 C657 790 657 790 657 793 C657.66 793 658.32 793 659 793 C660.20643566 796.61930698 660.32268559 799.19231005 660 803 C658 806.4375 658 806.4375 656 809 C654.35 808.67 652.7 808.34 651 808 C650.98018066 808.64549805 650.96036133 809.29099609 650.93994141 809.95605469 C650.84453672 812.88777221 650.73492029 815.81879232 650.625 818.75 C650.5940625 819.76578125 650.563125 820.7815625 650.53125 821.828125 C650.47324219 823.29765625 650.47324219 823.29765625 650.4140625 824.796875 C650.3826416 825.69760742 650.3512207 826.59833984 650.31884766 827.52636719 C649.98249207 830.13582725 649.44865587 831.80868272 648 834 C645.375 834.75 645.375 834.75 643 835 C639.7675933 830.15138996 640.52150198 824.90755456 641.44726562 819.28222656 C642.21570652 815.615628 643.04503553 811.96841701 643.9296875 808.328125 C644.47028433 805.8413796 644.94632449 803.54491906 645 801 C643.27746326 798.45061634 643.27746326 798.45061634 641 797 C641 796.34 641 795.68 641 795 C640.443125 794.87882813 639.88625 794.75765625 639.3125 794.6328125 C635.48283661 793.79183912 631.66924517 792.92697962 627.875 791.9375 C624.24455493 791.05916652 620.70103316 790.47976356 617 790 C614.99902542 789.6725678 612.99866686 789.34123581 611 789 C611 788.34 611 787.68 611 787 C604.8704555 787.62764399 598.97935065 788.49576084 593 790 C592.94446551 791.33282775 592.90653811 792.66638865 592.875 794 C592.85179687 794.7425 592.82859375 795.485 592.8046875 796.25 C592.92589358 799.1825569 592.92589358 799.1825569 593.97265625 802.640625 C595.29761324 807.64445193 595.41393117 812.59719811 595.5625 817.75 C595.62260157 819.59908232 595.68626642 821.44805308 595.75390625 823.296875 C595.77783447 824.10479492 595.8017627 824.91271484 595.82641602 825.74511719 C595.99507729 827.93605322 596.40066304 829.89009237 597 832 C597.63389648 832.0501123 598.26779297 832.10022461 598.92089844 832.15185547 C622.26493091 834.02158273 622.26493091 834.02158273 632 836 C632.77859375 836.14179687 633.5571875 836.28359375 634.359375 836.4296875 C640.10693527 837.55938038 645.8109612 839.24362967 651 842 C653 845 653 845 652.625 847.6875 C652.41875 848.450625 652.2125 849.21375 652 850 C651.34 850 650.68 850 650 850 C650 850.66 650 851.32 650 852 C649.12988281 851.96519531 649.12988281 851.96519531 648.2421875 851.9296875 C647.46101562 851.91164063 646.67984375 851.89359375 645.875 851.875 C645.10929688 851.85179687 644.34359375 851.82859375 643.5546875 851.8046875 C640.46627593 852.04080459 637.92818757 853.00066873 635 854 C630.35899351 854.90041084 625.69770631 855.47974963 621 856 C619.6696875 856.14888672 619.6696875 856.14888672 618.3125 856.30078125 C608.94476866 856.81307906 599.90019355 853.58243958 591 851 C591 850.34 591 849.68 591 849 C590.34 849 589.68 849 589 849 C589 848.34 589 847.68 589 847 C587.68 846.34 586.36 845.68 585 845 C584.62059885 839.43544976 584.62059885 839.43544976 586.48901367 837.29101562 C588.64910355 834.01580422 588.41096797 830.885952 588.36328125 827.09375 C588.36402901 825.95117737 588.36402901 825.95117737 588.36479187 824.78552246 C588.36245611 823.1784402 588.35275693 821.57135395 588.33618164 819.96435547 C588.31258125 817.5084553 588.31562517 815.05364111 588.32226562 812.59765625 C588.3166886 811.03384771 588.30957857 809.47004374 588.30078125 807.90625 C588.30169266 807.17386108 588.30260406 806.44147217 588.30354309 805.68688965 C588.25261362 802.01351057 588.19616789 799.04150504 586 796 C585.21625 795.690625 584.4325 795.38125 583.625 795.0625 C580.1576311 793.65904116 578.86688729 792.23115108 577 789 C577.21052632 782.78947368 577.21052632 782.78947368 580 780 C580.99 780 581.98 780 583 780 C583 779.34 583 778.68 583 778 C584.27875 777.68546875 585.5575 777.3709375 586.875 777.046875 C590.0499129 775.85800804 590.0499129 775.85800804 591.94140625 773.17773438 C592.47273852 770.8620461 592.77565962 768.61507998 593 766.25 C593.10699219 765.46367188 593.21398437 764.67734375 593.32421875 763.8671875 C594.43458868 755.3454722 594.43458868 755.3454722 593 747 C592.77223006 744.19927333 592.6198924 741.39999859 592.4765625 738.59375 C591.93334452 735.63721937 591.20949302 734.92276492 589 733 C587.43340728 729.20719656 586.75903047 726.09648206 587 722 C590.72965139 719.96564469 592.66905042 719 597 719 C597.53935898 702.36230673 597.53935898 702.36230673 595 686 C593.68 686.33 592.36 686.66 591 687 C587.47472032 682.76966439 585.25136058 680.0108846 584.5625 674.5 C585 671 585 671 587.1875 668.75 C588.5796875 667.88375 588.5796875 667.88375 590 667 C590.70125 666.484375 591.4025 665.96875 592.125 665.4375 C603.27780633 659.86109683 617.80688328 658.10118316 630 660 C630 659.34 630 658.68 630 658 C628.28483825 656.64925745 628.28483825 656.64925745 626.0625 655.3125 C622.59087753 653.06972168 619.22826584 650.75202672 615.9375 648.25 C615.18339844 647.67765625 614.42929687 647.1053125 613.65234375 646.515625 C613.10707031 646.01546875 612.56179688 645.5153125 612 645 C612 644.34 612 643.68 612 643 C611.34 643 610.68 643 610 643 C610 642.34 610 641.68 610 641 C609.278125 640.7525 608.55625 640.505 607.8125 640.25 C604.72393418 638.87730408 602.48988582 637.27646704 600 635 C600 634.34 600 633.68 600 633 C599.34 633 598.68 633 598 633 C596.375 631.625 596.375 631.625 595 630 C595 629.34 595 628.68 595 628 C594.34 628 593.68 628 593 628 C593 627.34 593 626.68 593 626 C592.46375 625.773125 591.9275 625.54625 591.375 625.3125 C588.17539839 623.54429911 585.70962777 621.46329797 583 619 C583 618.34 583 617.68 583 617 C581.68 616.67 580.36 616.34 579 616 C579 615.34 579 614.68 579 614 C578.34 614 577.68 614 577 614 C577 613.34 577 612.68 577 612 C576.01 611.67 575.02 611.34 574 611 C574 610.34 574 609.68 574 609 C573.27425781 608.7525 572.54851563 608.505 571.80078125 608.25 C568.72154736 606.87572546 566.68533961 605.25344071 564.1875 603 C563.39730469 602.29875 562.60710938 601.5975 561.79296875 600.875 C560 599 560 599 560 597 C559.34 597 558.68 597 558 597 C556.37890625 595.3203125 556.37890625 595.3203125 554.5625 593.125 C552.41599116 590.53806278 550.83223438 588.88815626 548 587 C548 586.34 548 585.68 548 585 C547.360625 584.690625 546.72125 584.38125 546.0625 584.0625 C544 583 544 583 543 582 C543.22430171 583.5723328 543.44887759 585.1446267 543.67431641 586.71679688 C543.90550699 588.33755723 544.134079 589.95869207 544.36083984 591.58007812 C546.16913574 604.39893579 548.28763158 617.10192335 551.0625 629.75 C551.43024536 631.4530127 551.43024536 631.4530127 551.80541992 633.19042969 C553.0196345 638.56725944 554.40348345 643.10415856 557 648 C556.6875 651.375 556.6875 651.375 556 654 C556.70125 654.268125 557.4025 654.53625 558.125 654.8125 C564.32437091 657.37310972 569.38136442 660.12794807 573.9375 665.125 C576.42539074 671.85693966 572.57659245 679.67563671 570 686 C566.1484375 685.203125 566.1484375 685.203125 564.8125 683.375 C564 681 564 681 563.5 677.3125 C563.335 676.219375 563.17 675.12625 563 674 C562.34 673.67 561.68 673.34 561 673 C560.2402721 679.07405098 559.85134055 684.98393121 559.8671875 691.1015625 C559.86623077 691.94109467 559.86527405 692.78062683 559.86428833 693.64559937 C559.86361238 695.41200842 559.86542549 697.17842004 559.86962891 698.94482422 C559.87494467 701.59739004 559.86968483 704.24978339 559.86328125 706.90234375 C559.85916559 711.93602978 559.91613107 716.96709022 560 722 C560.01190369 723.13979309 560.01190369 723.13979309 560.02404785 724.3026123 C560.05406257 726.39889103 560.11828455 728.49092601 560.1953125 730.5859375 C560.24582764 732.34623291 560.24582764 732.34623291 560.29736328 734.14208984 C560.72037436 737.19311972 560.72037436 737.19311972 563.40576172 738.73681641 C564.26186035 739.15366699 565.11795898 739.57051758 566 740 C569.64489115 744.137444 570.65410583 747.38620449 570.3828125 752.7578125 C569.50998196 757.87010566 567.22673643 761.10550469 563 764.1875 C561.515 765.0846875 561.515 765.0846875 560 766 C558.9790625 767.0828125 558.9790625 767.0828125 557.9375 768.1875 C555.585528 770.38773187 554.19854419 770.84007279 551 771 C548.42722948 770.21387568 547.37363317 769.63050598 546 767.3125 C546 762.65103912 549.07084647 758.95570077 552.1875 755.75 C552.785625 755.1725 553.38375 754.595 554 754 C554.33 753.01 554.66 752.02 555 751 C554.2575 750.71125 553.515 750.4225 552.75 750.125 C550 749 550 749 548.11328125 748.01953125 C540.29751945 744.2488957 531.31734335 743.30287332 522.81420898 742.09008789 C518.06159301 741.39766354 513.61643207 740.36274539 509 739 C497.6986414 736.57496515 486.54503501 735.3090495 475 735 C473.72116943 734.95915283 473.72116943 734.95915283 472.41650391 734.91748047 C459.27569019 734.54094607 446.90472634 735.4965427 434 738 C433.54022989 742.12140805 433.54022989 742.12140805 436.5 744.625 C437.325 745.40875 438.15 746.1925 439 747 C439 747.66 439 748.32 439 749 C439.66 749 440.32 749 441 749 C441 749.66 441 750.32 441 751 C441.66 751 442.32 751 443 751 C449.41196256 761.57239628 451.51542613 770.73729762 449 783 C449.556875 782.97679687 450.11375 782.95359375 450.6875 782.9296875 C451.8321875 782.90261719 451.8321875 782.90261719 453 782.875 C453.7425 782.85179687 454.485 782.82859375 455.25 782.8046875 C458.23812855 783.01691254 460.99039539 783.68062897 463.88085938 784.44726562 C465.93840585 784.98393443 467.99892603 785.44998535 470.078125 785.89453125 C478.83228566 787.80243614 486.838821 790.21460208 495 794 C495.89847656 794.39058594 496.79695313 794.78117188 497.72265625 795.18359375 C507.78527014 799.599561 518.14782856 804.14782856 526 812 C526 812.66 526 813.32 526 814 C526.66 814 527.32 814 528 814 C529.15271525 815.24853289 530.24895002 816.54968938 531.3125 817.875 C533.96037737 821.0103527 535.88449127 823.00230091 540 824 C539.55011719 823.37867188 539.10023438 822.75734375 538.63671875 822.1171875 C536.42600583 817.90680823 535.65071955 813.7814118 534.8125 809.125 C534.63960449 808.16625977 534.46670898 807.20751953 534.28857422 806.21972656 C533.10753598 799.04971907 532.63155383 792.01283187 532.625 784.75 C532.62346924 783.8233252 532.62193848 782.89665039 532.62036133 781.94189453 C532.7580884 773.40897172 534.10399177 765.41708999 537.375 757.5 C537.77460937 756.4996875 538.17421875 755.499375 538.5859375 754.46875 C540.13604819 751.7624794 541.03809587 750.89683153 544 750 C544.66 750.33 545.32 750.66 546 751 C545.855625 751.75539063 545.71125 752.51078125 545.5625 753.2890625 C541.6306332 776.60721698 542.20445396 803.07102107 554.390625 823.85546875 C556.02897571 827.05661517 556.25827627 828.50740043 556 832 C556.29044914 833.34332728 556.60955794 834.68225804 557 836 C546.57394307 837.45774656 536.02783416 837.62995245 526.84765625 831.58203125 C526.27917969 831.12183594 525.71070313 830.66164063 525.125 830.1875 C521.73082296 827.79938772 521.73082296 827.79938772 518 828.3125 C517.3296875 828.44398438 516.659375 828.57546875 515.96875 828.7109375 C512.54603002 829.21347972 510.16003438 828.29787126 507 827 C505.83875603 826.03915983 504.69418423 825.05798591 503.5625 824.0625 C495.26593867 817.48302196 482.15652259 817.87106895 472.06640625 817.30859375 C467.89961781 816.8892609 464.80389978 815.72904535 461 814 C458.36199055 812.93223427 455.77502381 811.92819909 453.0625 811.0625 C445.76361871 808.53023506 442.00278614 805.56767823 438 799 C436.875 796.4375 436.875 796.4375 437 794 C438.14619051 791.48577566 439.48968043 789.33413025 441 787 C440.34 786.34 439.68 785.68 439 785 C439.09670846 782.68192753 439.30269281 780.3679962 439.5625 778.0625 C440.12118111 771.42686676 440.55926032 764.89083375 437 759 C434.56366714 757.29836717 432.19886683 756.21721902 429.4453125 755.109375 C425.11411111 753.14442102 423.25146107 749.9069883 420.6875 746 C419.47482785 742.47222648 419.28031564 739.64199831 420.8046875 736.1640625 C422.58563909 733.25312784 423.90639475 731.35432044 427.23046875 730.27734375 C428.02066406 730.10332031 428.81085938 729.92929687 429.625 729.75 C431.99804838 729.2238445 431.99804838 729.2238445 434 728 C435.7509669 724.4631632 436.30788097 720.85970028 437 717 C437.31839844 716.00355469 437.63679688 715.00710938 437.96484375 713.98046875 C439.63067219 708.32641913 440.00060486 702.40186882 440.625 696.5625 C440.7590625 695.35400391 440.893125 694.14550781 441.03125 692.90039062 C441.35953069 689.93414009 441.68228061 686.96739719 442 684 C441.44642822 683.74968018 440.89285645 683.49936035 440.32250977 683.24145508 C439.59862061 682.90009521 438.87473145 682.55873535 438.12890625 682.20703125 C437.41033447 681.87421143 436.6917627 681.5413916 435.95141602 681.19848633 C433.29564192 679.56740976 432.19846238 677.57982297 431.33203125 674.6171875 C430.37047928 667.03789552 430.33436804 658.313691 435 652 C437.64417414 650.26476072 438.78465943 650 442 650 C441.82041748 649.44094971 441.64083496 648.88189941 441.45581055 648.3059082 C440.92729291 645.63218079 441.20182504 643.77896817 441.70703125 641.10546875 C441.88049072 640.15712158 442.0539502 639.20877441 442.23266602 638.23168945 C442.42401123 637.22710693 442.61535645 636.22252441 442.8125 635.1875 C444.0568487 628.4057731 445.23699564 621.65849305 446.0625 614.8125 C446.59563402 610.44176163 447.38818196 606.40993927 448.625 602.1875 C451.48175806 591.45653062 451.4086352 577.60464286 448 567 C447.34 566.34 446.68 565.68 446 565 C442.49516044 565.14828167 439.06029811 565.58530459 435.578125 566.00390625 C431.51902804 565.99947492 429.44782159 565.06065139 426 563 C424.948125 562.4121875 424.948125 562.4121875 423.875 561.8125 C419.66849192 557.74620886 417.25809183 551.80706613 417 546 C419.32145814 539.26667118 423.12872271 532.09037221 429.7421875 528.828125 C433.97624333 527.27514951 438.3281527 526.14063503 442.6953125 525.02734375 C445.87931 524.03751947 448.22147637 522.80938223 451 521 C456.3746018 518.3126991 461.08922356 517.38869051 467 517 C467 517.66 467 518.32 467 519 C467.94875 518.814375 468.8975 518.62875 469.875 518.4375 C473 518 473 518 475 519 C474.2575 518.319375 474.2575 518.319375 473.5 517.625 C472 516 472 516 472 514 C471.34 514 470.68 514 470 514 C469.34 512.35 468.68 510.7 468 509 C467.34 509 466.68 509 466 509 C464.30859375 507.35546875 464.30859375 507.35546875 462.4375 505.1875 C461.81746094 504.47980469 461.19742187 503.77210938 460.55859375 503.04296875 C459 501 459 501 458 498 C457.01 498 456.02 498 455 498 C453.3125 496.625 453.3125 496.625 452 495 C452 494.34 452 493.68 452 493 C451.360625 492.731875 450.72125 492.46375 450.0625 492.1875 C448 491 448 491 447 488 C446.01 487.67 445.02 487.34 444 487 C444 486.34 444 485.68 444 485 C443.34 485 442.68 485 442 485 C440.63360658 483.3603279 439.3050581 481.68889872 438 480 C436.88625 478.9171875 436.88625 478.9171875 435.75 477.8125 C434 476 434 476 434 474 C433.01 473.67 432.02 473.34 431 473 C431 472.34 431 471.68 431 471 C430.34 471 429.68 471 429 471 C429 470.34 429 469.68 429 469 C428.01 468.67 427.02 468.34 426 468 C426 467.34 426 466.68 426 466 C424.35 465.34 422.7 464.68 421 464 C421 463.34 421 462.68 421 462 C420.360625 461.731875 419.72125 461.46375 419.0625 461.1875 C417 460 417 460 416 457 C415.34 457 414.68 457 414 457 C412.375 455.625 412.375 455.625 411 454 C411 453.34 411 452.68 411 452 C409.68 451.34 408.36 450.68 407 450 C407 449.34 407 448.68 407 448 C406.34 448 405.68 448 405 448 C405 447.34 405 446.68 405 446 C404.01 445.67 403.02 445.34 402 445 C402 444.34 402 443.68 402 443 C401.34 443 400.68 443 400 443 C395 437.52380952 395 437.52380952 395 435 C394.401875 434.731875 393.80375 434.46375 393.1875 434.1875 C390.98180967 432.99012525 389.56416813 431.95521016 388 430 C388 429.01 388 428.02 388 427 C387.195625 426.6596875 387.195625 426.6596875 386.375 426.3125 C381.68926914 423.72301716 377.56748136 419.97911382 374 416 C374 415.34 374 414.68 374 414 C373.40445312 413.74347656 372.80890625 413.48695313 372.1953125 413.22265625 C369.80303629 411.89030313 368.57271801 410.56631395 366.875 408.4375 C364.79096366 405.78974334 364.79096366 405.78974334 362 404 C362 403.34 362 402.68 362 402 C361.34 402 360.68 402 360 402 C355.23255814 397.69767442 355.23255814 397.69767442 354 394 C353.34 394 352.68 394 352 394 C352 393.34 352 392.68 352 392 C351.34 392 350.68 392 350 392 C348.7659252 390.56580496 347.53784628 389.12554257 346.35546875 387.6484375 C344.3964368 385.26598366 342.20703289 383.15185707 340 381 C339.195625 380.175 338.39125 379.35 337.5625 378.5 C335.6459447 376.63018995 333.76763118 374.97758153 331.6875 373.3125 C330.800625 372.549375 329.91375 371.78625 329 371 C329 370.34 329 369.68 329 369 C328.41734375 368.7421875 327.8346875 368.484375 327.234375 368.21875 C324.8197097 366.90165983 323.18259823 365.44911616 321.25 363.5 C320.63640625 362.8915625 320.0228125 362.283125 319.390625 361.65625 C318 360 318 360 318 358 C317.34 358 316.68 358 316 358 C315.67 357.34 315.34 356.68 315 356 C313.02463255 356.34786708 313.02463255 356.34786708 311 357 C310.67 357.66 310.34 358.32 310 359 C307.9375 359.625 307.9375 359.625 306 360 C305.61901856 369.66537752 305.2858084 379.33140265 305 389 C304.96841797 390.0430127 304.93683594 391.08602539 304.90429688 392.16064453 C304.61580889 402.92901333 305.11169767 412.97539207 307.34375 423.53125 C307.90088108 426.47608569 308.13751769 429.02045013 308 432 C307.34 432 306.68 432 306 432 C306 432.66 306 433.32 306 434 C306.66 434 307.32 434 308 434 C308 434.66 308 435.32 308 436 C308.556875 436.061875 309.11375 436.12375 309.6875 436.1875 C313.15830262 437.40697119 314.68165522 439.14665258 317 442 C318.2355027 445.03727747 319.13705722 447.8508723 320 451 C320.42979365 452.48211816 320.8609028 453.96385516 321.29296875 455.4453125 C321.75915934 457.06732184 322.22398819 458.68972314 322.6875 460.3125 C323.0278125 461.49622192 323.0278125 461.49622192 323.375 462.70385742 C323.58511719 463.45771729 323.79523438 464.21157715 324.01171875 464.98828125 C324.29728638 466.00208862 324.29728638 466.00208862 324.58862305 467.03637695 C325 469 325 469 325 473 C324.34 473.33 323.68 473.66 323 474 C321.88365848 475.65051288 321.88365848 475.65051288 320.875 477.5625 C320.25625 478.696875 319.6375 479.83125 319 481 C318.34 481 317.68 481 317 481 C317 481.99 317 482.98 317 484 C316.34 484 315.68 484 315 484 C314.67 485.98 314.34 487.96 314 490 C312.02 490 310.04 490 308 490 C307.67 490.99 307.34 491.98 307 493 C306.34 493 305.68 493 305 493 C305 493.66 305 494.32 305 495 C303.35 495.33 301.7 495.66 300 496 C300.165 496.9075 300.33 497.815 300.5 498.75 C301.12680521 503.08540273 301.01592417 507.35902855 300.9609375 511.73046875 C301.01451697 516.21507053 301.4797234 520.63485313 301.9765625 525.08984375 C302.00186408 528.23145619 301.35467309 530.19241416 300 533 C300.99 533.66 301.98 534.32 303 535 C303 535.66 303 536.32 303 537 C303.928125 537.12375 303.928125 537.12375 304.875 537.25 C307 538 307 538 308.25 540.0625 C308.4975 540.701875 308.745 541.34125 309 542 C309.66 542 310.32 542 311 542 C314.34763874 545.26648386 315.87152032 548.78363262 316.359375 553.40234375 C316.38468196 559.33049895 316.11011259 565.17190892 315 571 C314.34 571 313.68 571 313 571 C313 571.66 313 572.32 313 573 C312.34 573 311.68 573 311 573 C310.87625 573.721875 310.7525 574.44375 310.625 575.1875 C310.0095069 577.95721894 309.11555626 580.3970354 308 583 C307.34 583 306.68 583 306 583 C305.67 584.32 305.34 585.64 305 587 C304.34 587 303.68 587 303 587 C303 587.66 303 588.32 303 589 C300.35261084 590.4606285 299.10551666 591 296 591 C294 588 294 588 294.24609375 585.296875 C294.93714036 582.27488877 295.69579384 579.280411 296.51171875 576.28979492 C299.51158359 566.23576239 299.51158359 566.23576239 299 556 C297.05525122 554.22289327 297.05525122 554.22289327 295 553 C292.88171696 560.9057349 292.86139187 568.62292524 292.97753906 576.73339844 C293.04252083 582.29769471 292.94274477 587.81334692 292.64453125 593.37109375 C292.54893921 595.24003296 292.54893921 595.24003296 292.45141602 597.14672852 C292.31972189 599.58442666 292.17116393 602.02128742 292.00366211 604.45678711 C291.68379419 610.67130019 291.79211928 614.98972717 295.04956055 620.37060547 C296 622 296 622 296.50390625 624.640625 C297.20305529 627.96571176 298.91586278 630.044735 300.9375 632.75 C301.64777344 633.71421875 302.35804688 634.6784375 303.08984375 635.671875 C304.78746719 638.06365289 304.78746719 638.06365289 307 639 C307 640.32 307 641.64 307 643 C307.99 643.33 308.98 643.66 310 644 C313.58274072 652.86256915 312.15932514 661.93854628 310 671 C309.34 671 308.68 671 308 671 C307.71125 671.7425 307.4225 672.485 307.125 673.25 C306.17697356 675.56739797 305.15154089 677.77917115 304 680 C303.34 680 302.68 680 302 680 C301.67 680.99 301.34 681.98 301 683 C300.34 683 299.68 683 299 683 C298.67 684.65 298.34 686.3 298 688 C297.01 688 296.02 688 295 688 C295 688.66 295 689.32 295 690 C290.61538462 693 290.61538462 693 288 693 C288 693.66 288 694.32 288 695 C286.02 695 284.04 695 282 695 C282 695.66 282 696.32 282 697 C277.70834802 697.02935775 273.41672236 697.04691802 269.125 697.0625 C267.92101562 697.07087891 266.71703125 697.07925781 265.4765625 697.08789062 C246.82239224 697.13858131 246.82239224 697.13858131 238.1875 693.625 C237.12917969 693.20476563 236.07085937 692.78453125 234.98046875 692.3515625 C232.16400181 691.07437042 229.63090258 689.61804712 227 688 C225.23802793 687.08686119 223.46724016 686.19050514 221.6875 685.3125 C220.80449219 684.87550781 219.92148438 684.43851563 219.01171875 683.98828125 C218.34785156 683.66214844 217.68398437 683.33601562 217 683 C217 682.34 217 681.68 217 681 C216.40832031 680.80664062 215.81664062 680.61328125 215.20703125 680.4140625 C208.32498307 678.14624238 208.32498307 678.14624238 205.5 676.875 C202.37471383 675.78114984 199.3745738 675.52108211 196.0859375 675.24609375 C194 675 194 675 191 674 C190.67 674.66 190.34 675.32 190 676 C189.13375 675.7525 188.2675 675.505 187.375 675.25 C182.95445651 674.92255233 181.60585037 676.54802175 178 679 C173.12219653 680.25685734 168.00312998 680.10423187 163 680 C163 680.66 163 681.32 163 682 C160.69 682 158.38 682 156 682 C156 682.66 156 683.32 156 684 C146.87873442 686.46758876 138.02426945 687.22295338 129 684 C127.4375 682.125 127.4375 682.125 127 680 C127.51904643 676.55410844 128.93340828 674.46798943 131.0625 671.75 C131.88427734 670.69039062 131.88427734 670.69039062 132.72265625 669.609375 C133.14417969 669.07828125 133.56570312 668.5471875 134 668 C133.01 667.67 132.02 667.34 131 667 C129.47153339 663.94306678 129.76757555 661.37015453 130 658 C131.375 655.5625 131.375 655.5625 133 654 C133.66 654 134.32 654 135 654 C135 653.34 135 652.68 135 652 C135.66 652 136.32 652 137 652 C136.85780029 651.3095459 136.71560059 650.6190918 136.5690918 649.90771484 C134.78496813 640.07510687 134.72806082 630.43735035 134.79418945 620.47167969 C134.81242103 617.63727743 134.81469849 614.80320484 134.81445312 611.96875 C134.83515238 601.60487297 135.1306962 591.32960995 136 581 C135.34 581 134.68 581 134 581 C133.9175 580.38125 133.835 579.7625 133.75 579.125 C133.18741541 576.81562433 133.18741541 576.81562433 130.9375 575.75 C130.298125 575.5025 129.65875 575.255 129 575 C129 574.01 129 573.02 129 572 C128.278125 571.731875 127.55625 571.46375 126.8125 571.1875 C124 570 124 570 121.625 568.5625 C118.91479902 566.85524988 118.91479902 566.85524988 115.375 565.5625 C112.05415161 564.02507019 110.73012503 563.15493389 109 560 C109 559.34 109 558.68 109 558 C108.34 558 107.68 558 107 558 C101.89070279 545.86541912 103.30837314 534.47807522 107.22265625 522.33984375 C111.47355618 514.35188894 118.1812388 511.71358199 126.5 509.125 C127.41136719 508.81820313 128.32273438 508.51140625 129.26171875 508.1953125 C134.36451617 506.54592344 138.64020652 505.63188232 144 506 C145.33100148 488.72972388 145.33100148 488.72972388 141 473 C141 472.01 141 471.02 141 470 C140.34 470 139.68 470 139 470 C139 469.34 139 468.68 139 468 C138.34 468 137.68 468 137 468 C137 467.34 137 466.68 137 466 C136.071875 465.896875 135.14375 465.79375 134.1875 465.6875 C130.73585853 464.94302831 130.1980361 464.56437546 128 462 C123.3762285 457.81658769 118.51993522 454.88263283 113 452 C113 451.34 113 450.68 113 450 C112.34 450 111.68 450 111 450 C105.48607618 443.77955669 101.72380286 435.73318307 102.12890625 427.32421875 C103.05060221 421.85216795 104.98296156 417.62612561 108 413 C108.66 413 109.32 413 110 413 C110.33 412.01 110.66 411.02 111 410 C113.6171875 408.61328125 113.6171875 408.61328125 116.875 407.3125 C117.94492188 406.87550781 119.01484375 406.43851562 120.1171875 405.98828125 C123 405 123 405 126 405 C126.33 404.01 126.66 403.02 127 402 C128.79418945 401.20043945 128.79418945 401.20043945 131.11328125 400.61328125 C131.94923828 400.39736328 132.78519531 400.18144531 133.64648438 399.95898438 C134.52626953 399.74564453 135.40605469 399.53230469 136.3125 399.3125 C137.18068359 399.08755859 138.04886719 398.86261719 138.94335938 398.63085938 C142.81320816 397.65374483 145.97070289 397 150 397 C150.34032731 386.47506286 149.8727554 377.21424144 147 367 C146.69835937 365.7625 146.39671875 364.525 146.0859375 363.25 C143.0943386 350.1241074 143.0943386 350.1241074 136 339 C134.989375 338.855625 133.97875 338.71125 132.9375 338.5625 C125.48315109 337.49759301 119.39301485 334.8859502 113 331 C111.67353844 330.3197633 110.34391123 329.64507739 109 329 C109 328.34 109 327.68 109 327 C108.34 327 107.68 327 107 327 C101.14662815 320.12228807 99.5576227 313.09319849 99.73046875 304.15234375 C100.1603931 300.71917974 101.43251284 298.06966236 103 295 C103.66 295 104.32 295 105 295 C105.103125 294.401875 105.20625 293.80375 105.3125 293.1875 C106.09824033 290.68741714 106.96918853 289.62464918 109 288 C109.66 288 110.32 288 111 288 C111 287.34 111 286.68 111 286 C112.61739155 284.70668139 114.29673889 283.49043466 116 282.3125 C120.33870649 279.24692746 124.35552571 276.05858304 128.24609375 272.4453125 C130 271 130 271 131.91015625 270.1796875 C134.29506115 269.01457419 134.29506115 269.01457419 136.24609375 266.0546875 C139.23661893 262.30370471 142.5259545 261.30688282 147.0625 260.125 C147.81039795 259.91576904 148.5582959 259.70653809 149.32885742 259.4909668 C154.81397558 258.0564155 159.90347933 257.59504147 165.58203125 258.01953125 C168.32847788 257.99734671 169.60865925 257.27821172 172 256 C177.72032136 254.8295052 182.56366987 254.56795757 188 257 C188 256.34 188 255.68 188 255 C187.01 254.67 186.02 254.34 185 254 C184.0846991 252.64399866 183.17740927 251.28173577 182.31640625 249.890625 C180.05839813 246.64766972 177.29940142 243.83950371 174.609375 240.953125 C173 239 173 239 173 237 C172.34 237 171.68 237 171 237 C169.1554358 234.8049389 167.40902228 232.60100438 165.6875 230.3125 C161.68250365 225.00900756 161.68250365 225.00900756 157.14453125 220.16796875 C155 218 155 218 155 216 C154.34 216 153.68 216 153 216 C151.4921875 214.5390625 151.4921875 214.5390625 149.875 212.625 C149.33617187 211.99851563 148.79734375 211.37203125 148.2421875 210.7265625 C147 209 147 209 147 207 C146.34 207 145.68 207 145 207 C143.2734375 205.1015625 143.2734375 205.1015625 141.375 202.625 C140.74335938 201.81289062 140.11171875 201.00078125 139.4609375 200.1640625 C138 198 138 198 138 196 C137.34 196 136.68 196 136 196 C136 195.34 136 194.68 136 194 C135.01 193.67 134.02 193.34 133 193 C131.40101411 190.92305637 129.93677116 188.87110765 128.5 186.6875 C125.48200249 182.14045922 125.48200249 182.14045922 122.21875 177.76953125 C121 176 121 176 121 173 C120.34 173 119.68 173 119 173 C117.47162688 171.2031289 116.02655272 169.33495095 114.625 167.4375 C114.21942871 166.8904541 113.81385742 166.3434082 113.39599609 165.77978516 C111.2877658 162.89981481 109.32935748 160.01075145 107.625 156.875 C106.16227936 153.78216949 106.16227936 153.78216949 103 152 C103 151.34 103 150.68 103 150 C102.34 150 101.68 150 101 150 C101 149.01 101 148.02 101 147 C100.34 147 99.68 147 99 147 C96 143.53846154 96 143.53846154 96 141 C95.34 141 94.68 141 94 141 C90 136.52941176 90 136.52941176 90 134 C89.34 134 88.68 134 88 134 C86.4921875 132.5390625 86.4921875 132.5390625 84.875 130.625 C84.33617188 129.99851563 83.79734375 129.37203125 83.2421875 128.7265625 C82 127 82 127 82 125 C81.25363281 124.7628125 80.50726563 124.525625 79.73828125 124.28125 C76.56387816 122.79593729 75.26742363 121.29135721 73.1875 118.5 C72.58292969 117.7059375 71.97835937 116.911875 71.35546875 116.09375 C70 114 70 114 70 112 C69.34 112 68.68 112 68 112 C65 108.53846154 65 108.53846154 65 106 C64.34 106 63.68 106 63 106 C61.44921875 104.0234375 61.44921875 104.0234375 59.6875 101.375 C57.59591725 98.28575854 55.51263568 95.31415584 53.0625 92.5 C51 90 51 90 51 88 C50.34 88 49.68 88 49 88 C46.8904339 85.28215669 45.21097911 82.25770154 43.4375 79.3125 C42.67663086 78.08756836 42.67663086 78.08756836 41.90039062 76.83789062 C41.17432617 75.64389648 41.17432617 75.64389648 40.43359375 74.42578125 C39.99072021 73.69786377 39.54784668 72.96994629 39.09155273 72.2199707 C37.90968292 69.81631553 37.41261722 67.63698601 37 65 C36.34 65 35.68 65 35 65 C34.67 63.35 34.34 61.7 34 60 C33.01 59.67 32.02 59.34 31 59 C29.75390625 57.109375 29.75390625 57.109375 28.5625 54.75 C27.11260714 51.9812287 25.82607645 49.79129174 23.8125 47.375 C22 45 22 45 20.9375 41.25 C20.628125 40.1775 20.31875 39.105 20 38 C18.515 37.505 18.515 37.505 17 37 C14.95703125 34.56640625 14.95703125 34.56640625 12.8125 31.5625 C12.09707031 30.57378906 11.38164062 29.58507812 10.64453125 28.56640625 C9 26 9 26 9 24 C8.34 24 7.68 24 7 24 C7 23.34 7 22.68 7 22 C6.34 22 5.68 22 5 22 C-0.70172783 15.83644998 -1.26538111 10.09412393 -1 2 C-0.67 1.34 -0.34 0.68 0 0 Z M189 292 C189 292.66 189 293.32 189 294 C187.98421875 293.96519531 186.9684375 293.93039062 185.921875 293.89453125 C177.3461173 293.69181442 169.12322646 293.79771543 161 297 C160.67 297.66 160.34 298.32 160 299 C159.195625 299.12375 158.39125 299.2475 157.5625 299.375 C154.84016601 299.72567164 154.84016601 299.72567164 153.6875 302.0625 C153.460625 302.701875 153.23375 303.34125 153 304 C151.68 304 150.36 304 149 304 C149 304.66 149 305.32 149 306 C149.66 306 150.32 306 151 306 C151.0825 306.5775 151.165 307.155 151.25 307.75 C151.84156555 310.12543023 151.84156555 310.12543023 153.828125 311.6953125 C156.49781866 314.52826081 157.94399658 317.61077598 159.5 321.125 C159.80260742 321.79152588 160.10521484 322.45805176 160.41699219 323.14477539 C162.45055575 327.6603545 164.39498311 332.20717934 166.16796875 336.83203125 C166.91662474 338.78275461 167.73543379 340.70620639 168.5625 342.625 C172.234057 352.77221523 173.27174989 363.22969802 173.3125 373.9375 C173.31789795 374.80076904 173.3232959 375.66403809 173.32885742 376.5534668 C173.26281555 382.51963172 172.36275791 386.86758943 171 393 C185.52 393 200.04 393 215 393 C215 393.66 215 394.32 215 395 C223.88044537 397.20623565 232.19336828 398.387872 241.30859375 398.69140625 C245.1137646 399.00951048 248.36362708 399.86390242 252 401 C253.45482829 401.32843114 254.91284715 401.64338879 256.375 401.9375 C266.05818255 404.07108259 274.25048983 407.70876974 282.4375 413.3125 C284.76701788 415.18333019 284.76701788 415.18333019 287 415 C287 415.66 287 416.32 287 417 C288.96147874 418.38938077 290.96166576 419.7260411 293 421 C293 419.68 293 418.36 293 417 C295.475 416.505 295.475 416.505 298 416 C299.90704669 402.37823795 300.04784982 389.08094698 299.5625 375.375 C299.45674048 372.17456899 299.3551625 368.97401363 299.25390625 365.7734375 C299.22857819 365.01059448 299.20325012 364.24775146 299.17715454 363.46179199 C299.00718735 358.10239791 298.97837119 352.75602798 299.07788086 347.39404297 C298.96702189 343.9862591 298.16100054 341.1927515 297 338 C296.34 338 295.68 338 295 338 C295.061875 337.0925 295.12375 336.185 295.1875 335.25 C294.98313144 331.70761168 294.47346304 330.47346304 292 328 C291.34 328 290.68 328 290 328 C289.773125 327.319375 289.54625 326.63875 289.3125 325.9375 C286.32529927 319.25186028 282.27931467 314.82739084 276.25 310.875 C275.60240723 310.44832031 274.95481445 310.02164062 274.28759766 309.58203125 C261.21520919 301.41841983 245.41910082 299.594873 230.35546875 298.21875 C227.20079376 297.92577852 224.05645814 297.55475459 220.91015625 297.18359375 C218.82212012 296.95216319 218.82212012 296.95216319 216 297 C214.59824731 296.71522579 213.20260468 296.39956963 211.8125 296.0625 C208.83047124 295.3713653 205.91819923 294.82626892 202.875 294.5 C199.08171477 294.01054384 195.66135024 293.07686772 192 292 C191.01 292 190.02 292 189 292 Z M175 421 C174.67 421.99 174.34 422.98 174 424 C173.410979 423.98952637 172.82195801 423.97905273 172.21508789 423.96826172 C169.49760354 423.92620446 166.78018804 423.9005182 164.0625 423.875 C163.13630859 423.85824219 162.21011719 423.84148437 161.25585938 423.82421875 C155.94311843 423.78693636 151.21172969 424.2242715 146.06079102 425.51904297 C143.03844615 426.22441193 140.02957372 426.42971113 136.9375 426.625 C135.81214844 426.69976562 134.68679687 426.77453125 133.52734375 426.8515625 C132.69332031 426.90054687 131.85929688 426.94953125 131 427 C129.31048008 432.97830127 130.59065999 436.31558519 133.53515625 441.70703125 C135.36199917 444.56664936 137.47944071 446.73795961 140 449 C140.598125 449.825 141.19625 450.65 141.8125 451.5 C145.17641765 455.34447731 149.45803521 457.72901761 154 460 C154 457.03 154 454.06 154 451 C157.3 451.66 160.6 452.32 164 453 C164.09087891 454.57587891 164.09087891 454.57587891 164.18359375 456.18359375 C164.76321115 466.05448033 164.76321115 466.05448033 165.75390625 475.890625 C166.03245928 478.2782224 166.23553151 480.66722453 166.4375 483.0625 C166.78273545 487.03270762 167.25210128 490.97213835 167.78393555 494.92163086 C168.72970088 501.97798519 169.27183013 508.87200992 169 516 C173.60491695 516.86342193 177.13276101 516.91870922 181.8125 516.1875 C185.19725792 515.89737789 188.44688206 516.38041699 191.80078125 516.84375 C194.17711753 517.15355259 194.17711753 517.15355259 197 516 C200.19875736 516.35541748 203.30129902 516.83876131 206.4375 517.5625 C211.04266269 518.34874729 215.5299251 518.49002497 220 517 C221.67542976 517.28604898 223.34385343 517.61781233 225 518 C225.66 518 226.32 518 227 518 C228.95421741 518.2318563 230.90819716 518.46647643 232.859375 518.72265625 C234.71590443 518.963192 236.57649426 519.17198119 238.4375 519.375 C241.24748007 519.86797896 243.42526746 520.46921721 246.0625 521.4375 C251.15908423 523.23219462 256.29876475 523.84345683 261.640625 524.53125 C264.40351465 524.91676949 267.04216815 525.40954764 269.75 526.0625 C273.69608183 527.0048479 277.59990264 527.43038436 281.640625 527.75390625 C284.13798111 528.01439207 286.54616731 528.47355717 289 529 C290.34717669 518.36692688 291.15750857 507.96065682 291.03344727 497.23925781 C290.82482071 477.10778822 290.82482071 477.10778822 293 471 C293.66 470.67 294.32 470.34 295 470 C295.33 471.65 295.66 473.3 296 475 C298.97675459 471.90672105 298.97675459 471.90672105 300 468 C300.66 468 301.32 468 302 468 C303.4606285 465.35261084 304 464.10551666 304 461 C303.443125 460.75765625 302.88625 460.5153125 302.3125 460.265625 C297.71308715 458.2456126 293.19017437 456.13731228 288.7265625 453.83203125 C286.82824674 452.87221046 286.82824674 452.87221046 284 452 C282.9375 450.0625 282.9375 450.0625 282 448 C281.01 447.01 281.01 447.01 280 446 C279.01 446 278.02 446 277 446 C277 445.34 277 444.68 277 444 C275.824375 443.87625 275.824375 443.87625 274.625 443.75 C273.75875 443.5025 272.8925 443.255 272 443 C271.73960937 442.4121875 271.47921875 441.824375 271.2109375 441.21875 C268.4548411 436.16887015 262.07404576 433.3864493 257 431 C253.52881225 430.41926897 250.4672851 430.43646834 247 431 C247 430.34 247 429.68 247 429 C246.22914063 428.86722656 245.45828125 428.73445313 244.6640625 428.59765625 C243.66117187 428.42105469 242.65828125 428.24445313 241.625 428.0625 C240.62726563 427.88847656 239.62953125 427.71445312 238.6015625 427.53515625 C236 427 236 427 234 426 C232.6696875 426.2784375 232.6696875 426.2784375 231.3125 426.5625 C228.08925696 426.98821134 226.17369171 426.67613322 223.125 425.67578125 C220.4016961 424.80973056 217.64800005 424.12735173 214.875 423.4375 C213.88242188 423.18871094 212.88984375 422.93992187 211.8671875 422.68359375 C206.37369073 421.37383635 202.64249083 421.14830327 197 422 C196.01 421.505 196.01 421.505 195 421 C194.05125 421.165 193.1025 421.33 192.125 421.5 C189.02507728 421.99598764 187.92037091 421.73276706 185 421 C183.25113019 420.93375493 181.49997252 420.91447405 179.75 420.9375 C178.85796875 420.94652344 177.9659375 420.95554687 177.046875 420.96484375 C176.37140625 420.97644531 175.6959375 420.98804688 175 421 Z M185 544 C184.01 544 183.02 544 182 544 C182 544.66 182 545.32 182 546 C154.25638756 546.40744121 154.25638756 546.40744121 141.27050781 544.44775391 C136.31744883 543.7828491 133.25992014 543.96374356 129 547 C127.87594619 548.9909859 127.87594619 548.9909859 127.625 551.1875 C127.41875 552.445625 127.2125 553.70375 127 555 C129.97 555.495 129.97 555.495 133 556 C133 556.66 133 557.32 133 558 C136.08809695 559.76462683 137.23312136 560 141 560 C141 560.66 141 561.32 141 562 C142.60149886 562.67305018 144.20631029 563.33822227 145.8125 564 C146.70582031 564.37125 147.59914062 564.7425 148.51953125 565.125 C151.0331433 566.16633237 151.0331433 566.16633237 154 566 C155.25664978 563.09399739 156 561.20395416 156 558 C156.66 558 157.32 558 158 558 C158 557.34 158 556.68 158 556 C158.66 556 159.32 556 160 556 C159.67 557.051875 159.34 558.10375 159 559.1875 C157.31076231 565.96858273 156.93150652 573.57345196 159.01953125 580.26953125 C160.26393559 585.00421709 160.0916931 589.26418319 159.9375 594.125 C159.80815223 601.59272143 160.21396299 608.093057 162.24609375 615.30859375 C163.75418092 620.69238681 164.09498417 625.66968004 164 631.25 C163.74247264 635.78958368 163.74247264 635.78958368 165 640 C181.5407642 637.47270215 181.5407642 637.47270215 197 631.375 C202.00883969 628.74870101 206.4145351 628.23667224 212 628 C218.05456062 627.46889819 222.57742589 625.5502205 228 623 C234.7755449 619.81893909 241.05705854 618.33678126 248.4921875 617.4375 C251.69883738 617.03756148 254.82791233 616.48404083 258 615.875 C264.66234184 614.72259493 271.25913707 614.82050957 278 615 C277.68450195 614.13544189 277.36900391 613.27088379 277.04394531 612.38012695 C274.1119061 602.88665574 274.97017705 593.02040734 276.25 583.3125 C276.38841309 582.19415771 276.52682617 581.07581543 276.66943359 579.92358398 C279.72521299 555.82436102 279.72521299 555.82436102 282 549 C277.38 548.34 272.76 547.68 268 547 C268 547.66 268 548.32 268 549 C267.319375 548.855625 266.63875 548.71125 265.9375 548.5625 C260.64054991 547.54819041 255.70591586 546.97713873 250.3125 547.125 C244.88654853 547.18566281 240.35479981 546.18449679 235.15625 544.734375 C227.60830255 542.9781694 219.72152958 542.94168029 212 543 C212 543.66 212 544.32 212 545 C211.37351562 544.91621094 210.74703125 544.83242188 210.1015625 544.74609375 C209.28429687 544.64425781 208.46703125 544.54242187 207.625 544.4375 C206.81289062 544.33308594 206.00078125 544.22867188 205.1640625 544.12109375 C202.95100814 543.81762672 202.95100814 543.81762672 201 545 C198.9765625 544.9140625 198.9765625 544.9140625 196.625 544.625 C195.85414063 544.53476562 195.08328125 544.44453125 194.2890625 544.3515625 C192 544 192 544 189.8984375 543.3984375 C187.79090055 542.78950755 187.79090055 542.78950755 185 544 Z M466 546 C464.33441259 546.33868491 462.66802244 546.67351874 461 547 C461.25394531 547.52207031 461.50789063 548.04414062 461.76953125 548.58203125 C466.48422164 558.66475863 468.54554529 568.05624234 468.4375 579.1875 C468.42722778 580.82887939 468.42722778 580.82887939 468.41674805 582.50341797 C468.23817972 591.57896905 466.86330952 599.39153869 464 608 C463.58673794 609.28239053 463.17398416 610.56494497 462.76171875 611.84765625 C461.93942892 614.37170908 461.08846785 616.88056568 460.22265625 619.390625 C459.03887613 622.88523468 457.97738404 626.39781629 456.9375 629.9375 C455.80237639 633.71969466 454.54162605 637.13898904 452.6875 640.625 C452.130625 641.73875 451.57375 642.8525 451 644 C451.33 644.99 451.66 645.98 452 647 C453.485 646.505 453.485 646.505 455 646 C455.99 646.66 456.98 647.32 458 648 C459.9672679 648.2000681 459.9672679 648.2000681 462.08984375 648.01171875 C462.87423828 647.96466797 463.65863281 647.91761719 464.46679688 647.86914062 C465.28212891 647.80919922 466.09746094 647.74925781 466.9375 647.6875 C467.74896484 647.63916016 468.56042969 647.59082031 469.39648438 647.54101562 C473.82456597 647.28861943 473.82456597 647.28861943 478.13891602 646.35083008 C478.75307373 646.23505615 479.36723145 646.11928223 480 646 C480.66 646.66 481.32 647.32 482 648 C483.11375 647.649375 484.2275 647.29875 485.375 646.9375 C489 646 489 646 491 647 C491 646.34 491 645.68 491 645 C491.99 645.66 492.98 646.32 494 647 C495.97536745 646.65213292 495.97536745 646.65213292 498 646 C499.32 646 500.64 646 502 646 C502.99 645.67 503.98 645.34 505 645 C505 645.66 505 646.32 505 647 C511.93150756 649.03164877 517.68971211 648.9411192 524.86328125 648.19140625 C527.70997582 648.01769761 529.32683968 648.22716553 532 649 C534.08033429 649.21827342 536.16427484 649.40380352 538.25 649.5625 C539.86648438 649.68818359 539.86648438 649.68818359 541.515625 649.81640625 C542.33546875 649.87699219 543.1553125 649.93757812 544 650 C543.74605469 648.90945313 543.49210938 647.81890625 543.23046875 646.6953125 C539.77558944 631.65285895 536.87223348 616.80145346 536.2109375 601.35546875 C536.09440243 598.14847053 536.09440243 598.14847053 535.48852539 595.65649414 C534.95332862 592.74621122 534.9198266 590.09813798 534.97265625 587.140625 C534.98490234 586.02429688 534.99714844 584.90796875 535.00976562 583.7578125 C535.04468797 581.4348299 535.08369477 579.11190482 535.12695312 576.7890625 C535.19161205 570.17103163 534.7346524 564.39440491 533 558 C531.68 557.67 530.36 557.34 529 557 C528.979375 556.236875 528.95875 555.47375 528.9375 554.6875 C528.21622198 551.65607106 528.21622198 551.65607106 524.8125 550.25 C521.5955837 549.07356574 518.40437333 548.41516748 515 548 C515 548.66 515 549.32 515 550 C513.948125 549.34 512.89625 548.68 511.8125 548 C508.65861684 546.19143521 506.67149392 545.71014522 503 546 C501.32995171 545.68404492 499.66362417 545.34820041 498 545 C495.33064389 544.57958908 492.69257468 544.26925747 490 544 C489.67 544.33 489.34 544.66 489 545 C485.77052676 545.15378444 482.93061706 544.98665713 479.75 544.375 C474.8592429 543.88592429 470.74256912 544.88679246 466 546 Z M233 643 C232.278125 643.144375 231.55625 643.28875 230.8125 643.4375 C228.56675271 644.13445606 227.52459304 645.24671801 226 647 C225.505 646.01 225.505 646.01 225 645 C224.34 645.66 223.68 646.32 223 647 C220.49940039 647.80664504 218.66053211 648 216 648 C214.65812182 648.6492959 213.32520503 649.31731862 212 650 C208.35714286 651.17857143 208.35714286 651.17857143 206 650 C205.34 650.33 204.68 650.66 204 651 C204 651.66 204 652.32 204 653 C202.31970703 652.98259766 202.31970703 652.98259766 200.60546875 652.96484375 C199.13281417 652.95546378 197.66015778 652.9463638 196.1875 652.9375 C195.44951172 652.92912109 194.71152344 652.92074219 193.95117188 652.91210938 C190.70077932 652.89740172 188.10595105 652.96468298 185 654 C183.88625 653.95875 182.7725 653.9175 181.625 653.875 C177.74619829 654.00875178 176.08876656 654.75362432 173 657 C173.33 657.66 173.66 658.32 174 659 C175.27230469 658.87431641 175.27230469 658.87431641 176.5703125 658.74609375 C192.78911805 657.33808755 205.42414494 659.23948104 220.125 666.265625 C222.12994978 667.18234595 222.12994978 667.18234595 225 667 C225 667.66 225 668.32 225 669 C227.90548882 671.04169485 229.40142046 672 233 672 C233 672.66 233 673.32 233 674 C235.31 674.66 237.62 675.32 240 676 C240 676.66 240 677.32 240 678 C246.50523369 681.42391143 252.0561677 682.69451916 259.375 682.875 C260.75328979 682.92503174 260.75328979 682.92503174 262.15942383 682.97607422 C269.18483891 683.15638844 276.57861979 683.2106901 283 680 C283 679.34 283 678.68 283 678 C283.58394531 677.9278125 284.16789062 677.855625 284.76953125 677.78125 C289.40818933 676.15650111 291.76716933 671.14418048 294 667 C295.26062513 662.77358839 295.38565351 659.36462011 294.1875 655.125 C292.1284478 651.44038027 290.73484023 649.80718076 287 648 C286.505 647.01 286.505 647.01 286 646 C283.31864354 645.57662793 280.69787763 645.25205085 278 645 C270.67058824 644.27511312 270.67058824 644.27511312 267.5625 643 C264.46646264 641.7917903 261.61893911 641.52217628 258.32421875 641.22265625 C256.19513352 641.01869346 254.11176711 640.70799322 252 640.375 C245.36423829 639.54222512 239.23393637 640.68039577 233 643 Z M442 665 C440.29356993 668.77210857 439.76224084 670.33677709 441.1875 674.3125 C442.78215543 677.26611334 442.78215543 677.26611334 446 678 C452.58418013 688.49423932 448.44081491 705.67391644 446 717 C445.81050781 717.88300781 445.62101562 718.76601563 445.42578125 719.67578125 C444.96290924 721.78660891 444.48339531 723.89377758 444 726 C445.4694104 725.75769653 445.4694104 725.75769653 446.96850586 725.51049805 C451.15570707 724.91543846 455.28003476 724.83828884 459.50390625 724.83203125 C460.30424789 724.82870285 461.10458954 724.82537445 461.92918396 724.82194519 C463.61757844 724.81690606 465.30598278 724.81453593 466.99438477 724.81469727 C469.53093668 724.81252701 472.06704136 724.79438397 474.60351562 724.77539062 C484.27295673 724.74159339 493.4638216 725.25786689 503 727 C504.16366089 727.21257446 504.16366089 727.21257446 505.35083008 727.42944336 C507.27763223 727.79637613 509.20142868 728.17899048 511.125 728.5625 C518.6185058 729.98605442 526.04773226 730.46845498 533.66455078 730.70922852 C539.91193692 730.91193692 539.91193692 730.91193692 541 732 C542.51469448 732.23192865 544.03754562 732.41215238 545.5625 732.5625 C546.38878906 732.64628906 547.21507812 732.73007812 548.06640625 732.81640625 C548.70449219 732.87699219 549.34257813 732.93757812 550 733 C550.01458252 731.92218262 550.02916504 730.84436523 550.04418945 729.73388672 C550.10294252 725.66684692 550.18015667 721.60031722 550.26245117 717.53369141 C550.29534361 715.7863809 550.32348164 714.03897323 550.34643555 712.29150391 C550.54340784 697.68202727 551.87179487 684.50071586 558 671 C556.85660156 670.86722656 555.71320313 670.73445312 554.53515625 670.59765625 C553.0442438 670.4194969 551.55335982 670.24109918 550.0625 670.0625 C549.30775391 669.97548828 548.55300781 669.88847656 547.77539062 669.79882812 C542.11328125 669.11328125 542.11328125 669.11328125 541 668 C532.65311856 666.96936372 524.25947953 666.89200395 515.86328125 667.03686523 C511.77747001 667.08793787 508.00891391 666.76921738 504 666 C502.46014329 665.79817412 500.91849483 665.60930243 499.375 665.4375 C498.64023437 665.35371094 497.90546875 665.26992188 497.1484375 665.18359375 C492.41855237 664.77940357 487.92535937 665.31609183 483.2421875 665.87890625 C481 666 481 666 479 665 C477.3603125 665.2475 477.3603125 665.2475 475.6875 665.5 C472.24767906 665.9664164 470.30877426 665.69658405 467 665 C466.195625 665.165 465.39125 665.33 464.5625 665.5 C461.46959105 666.10349443 459.061976 665.6408787 456 665 C456 665.66 456 666.32 456 667 C454.6696875 666.7525 454.6696875 666.7525 453.3125 666.5 C450.11543763 665.93314723 450.11543763 665.93314723 447.3125 666 C445 666 445 666 442 665 Z M629 672 C626.66045145 671.71352467 624.32787927 671.36950465 622 671 C613.36980744 670.56694374 605.32831701 671.7692008 597 674 C597 674.99 597 675.98 597 677 C597.66 677 598.32 677 599 677 C605.32166201 688.98935898 606.38634382 702.69260183 606 716 C606.55236328 715.97905273 607.10472656 715.95810547 607.67382812 715.93652344 C621.4150992 715.48682981 632.91989266 716.63996422 646 721 C646.09796875 719.86820313 646.1959375 718.73640625 646.296875 717.5703125 C646.44693781 716.08844222 646.59803321 714.60667624 646.75 713.125 C646.8428125 712.00544922 646.8428125 712.00544922 646.9375 710.86328125 C647.171875 708.6953125 647.171875 708.6953125 648 705 C649.95703125 703.76171875 649.95703125 703.76171875 652 703 C655.2915742 697.49916583 655.17389294 692.22376535 653.8125 686.125 C651.93816145 679.02134248 650.06776642 675.40210505 644 671 C639.49354066 669.45831654 632.46774375 668.53225625 629 672 Z M597 726 C597 726.66 597 727.32 597 728 C598.485 728.99 598.485 728.99 600 730 C600.4765625 732.546875 600.4765625 732.546875 600.625 735.75 C600.68558594 736.9153125 600.74617187 738.080625 600.80859375 739.28125 C600.90333984 741.12203125 600.90333984 741.12203125 601 743 C601.11472656 744.2065625 601.22945312 745.413125 601.34765625 746.65625 C602.00379505 753.59472922 601.98111142 759.32082437 600 766 C599.66013333 767.66534667 599.32297514 769.33129513 599 771 C598.34 771 597.68 771 597 771 C597 771.66 597 772.32 597 773 C597.99 773 598.98 773 600 773 C600 772.34 600 771.68 600 771 C606.58356021 771.32305118 612.41524877 771.91911841 618.58984375 774.25 C621.54287549 775.1689337 624.43425308 775.53962786 627.5 775.9375 C632.5059872 776.63261374 636.53824075 777.81365041 641.0546875 780.046875 C643.61978648 781.30367049 646.27396088 782.16121873 649 783 C648.37510122 778.20910936 647.46233073 773.57999185 646.375 768.875 C644.23900727 758.77746546 645.04966194 749.65864379 648.37890625 739.92578125 C649.10231546 738.02000108 649.10231546 738.02000108 649 736 C631.57567313 726.62270269 616.51199441 725.58922117 597 726 Z M710.625 739.5625 C702.83738343 740.8604361 694.79863572 739.73895702 687 739 C687.0721875 739.70382812 687.144375 740.40765625 687.21875 741.1328125 C689.28014187 763.06373161 689.28014187 763.06373161 686 770 C692.89096857 770.09298158 699.69738813 770.09211947 706.5625 769.4375 C713.14993572 768.86851224 719.43738253 769.34207261 726 770 C727.39992188 770.07541016 727.39992188 770.07541016 728.828125 770.15234375 C734.48698285 770.49966886 737.52009654 771.52807482 742 775 C742.66 775 743.32 775 744 775 C743.76216797 773.75863281 743.76216797 773.75863281 743.51953125 772.4921875 C742.07350934 762.77231088 741.65929231 753.51175288 747 745 C747 744.01 747 743.02 747 742 C735.08224284 738.47127861 722.8706583 736.66221251 710.625 739.5625 Z M766 755 C766.33 755.99 766.66 756.98 767 758 C767.99 757.67 768.98 757.34 770 757 C768.68 756.34 767.36 755.68 766 755 Z M751 757 C750.67 758.32 750.34 759.64 750 761 C750.99 760.34 751.98 759.68 753 759 C752.34 758.34 751.68 757.68 751 757 Z M751 771 C751.15597656 771.59167969 751.31195312 772.18335938 751.47265625 772.79296875 C753.56874309 781.30224843 753.56874309 781.30224843 752 785 C751.38125 785.28875 750.7625 785.5775 750.125 785.875 C746.73714955 787.66856788 746.24575645 790.50001759 745 794 C742.50111763 804.0989315 742.94525699 816.36242054 747 826 C748.97778586 828.19175809 748.97778586 828.19175809 751 830 C751.33 830.66 751.66 831.32 752 832 C752.66 832 753.32 832 754 832 C753.75 834.875 753.75 834.875 753 838 C750.9467977 839.48680166 749.52244878 839.95390158 747.0078125 840.17578125 C744.7221292 840.85909256 744.7221292 840.85909256 743.69921875 843.5546875 C739.24385087 858.17655121 742.98931697 869.71841652 747 884 C747.66 884 748.32 884 749 884 C749.17015625 882.79601562 749.3403125 881.59203125 749.515625 880.3515625 C749.75947813 878.77589613 750.00432134 877.20038276 750.25 875.625 C750.35957031 874.8309375 750.46914063 874.036875 750.58203125 873.21875 C751.52789071 867.34446493 751.52789071 867.34446493 754.109375 865.4609375 C754.73328125 865.30882812 755.3571875 865.15671875 756 865 C755.01 864.67 754.02 864.34 753 864 C751.7736243 861.54724859 751.88584686 859.9494219 751.90234375 857.2109375 C751.90556641 856.26992188 751.90878906 855.32890625 751.91210938 854.359375 C751.92048828 853.37453125 751.92886719 852.3896875 751.9375 851.375 C751.94201172 850.38242187 751.94652344 849.38984375 751.95117188 848.3671875 C751.96297855 845.9113984 751.979446 843.45572896 752 841 C753.98 840.505 753.98 840.505 756 840 C761.62260821 846.80903012 762.83825208 852.28339638 763 861 C766.81248345 861.02936502 770.62493726 861.04692035 774.4375 861.0625 C776.04141602 861.07506836 776.04141602 861.07506836 777.67773438 861.08789062 C783.87624228 861.10684631 789.8549481 860.82063259 796 860 C795.319375 858.6696875 795.319375 858.6696875 794.625 857.3125 C792.2639313 851.78468988 791.65359993 845.9321298 791 840 C790.85304688 838.71029297 790.85304688 838.71029297 790.703125 837.39453125 C790.26352226 829.90907348 793.10025196 823.77875526 796 817 C796.33 816.01 796.66 815.02 797 814 C796.16863525 813.9906543 795.33727051 813.98130859 794.48071289 813.97167969 C791.35473157 813.92729941 788.22968104 813.86552396 785.10424805 813.79248047 C783.10293229 813.75084123 781.1012406 813.7287345 779.09960938 813.70703125 C772.31083527 813.53602938 766.82681427 813.19599109 760.82983398 809.84863281 C758.73138378 808.71951283 758.73138378 808.71951283 755 809 C754.87625 808.360625 754.7525 807.72125 754.625 807.0625 C754.41875 806.381875 754.2125 805.70125 754 805 C753.34 804.67 752.68 804.34 752 804 C750.73770492 799.52459016 750.73770492 799.52459016 752 797 C751.72057545 795.32345271 751.39171753 793.65391846 751 792 C753.31 792.33 755.62 792.66 758 793 C759.32 797.29 760.64 801.58 762 806 C772.56414624 806.20315666 782.55389223 805.53740351 793 804 C792.83886719 802.80246094 792.67773438 801.60492187 792.51171875 800.37109375 C791.39708986 791.40474277 790.84544459 781.30911082 795 773 C781.05857907 764.36488822 765.75661436 763.28631522 751 771 Z M800 777 C800 777.99 800 778.98 800 780 C800.66 779.01 801.32 778.02 802 777 C801.34 777 800.68 777 800 777 Z M799 781 C797.00881759 785.97011673 796.75154305 790.12333135 796.875 795.375 C796.88402344 796.11105469 796.89304687 796.84710937 796.90234375 797.60546875 C796.92569856 799.4037888 796.96156164 801.20193911 797 803 C800.96 802.505 800.96 802.505 805 802 C805.75 805.1875 805.75 805.1875 806 809 C804.67341833 810.67204564 803.33932956 812.33814806 802 814 C797.33884561 826.80078221 798.00819363 840.14745752 802 853 C802.5775 854.093125 803.155 855.18625 803.75 856.3125 C805.56913212 860.22363407 804.76015396 862.78460076 804 867 C804 867.99 804 868.98 804 870 C804.495 869.505 804.495 869.505 805 869 C806.65159769 869.20193279 808.30260041 869.41367431 809.94580078 869.67529297 C812.02160422 870.00341498 814.09800955 870.27693187 816.18359375 870.53515625 C816.88291016 870.62216797 817.58222656 870.70917969 818.30273438 870.79882812 C819.00720703 870.88583984 819.71167969 870.97285156 820.4375 871.0625 C821.16904297 871.15337891 821.90058594 871.24425781 822.65429688 871.33789062 C824.43612723 871.55916368 826.21805361 871.77966329 828 872 C827.80083984 871.05640625 827.80083984 871.05640625 827.59765625 870.09375 C827.04186689 867.39999718 826.51985382 864.70089468 826 862 C825.7525 860.783125 825.505 859.56625 825.25 858.3125 C824.23622981 849.28072922 825.79243754 839.46417286 831 832 C831 831.34 831 830.68 831 830 C829.9378125 829.73445312 828.875625 829.46890625 827.78125 829.1953125 C822.74869792 827.93717448 817.71614583 826.67903646 812.68359375 825.42089844 C811.58724609 825.14681152 811.58724609 825.14681152 810.46875 824.8671875 C808.75171875 824.43792969 808.75171875 824.43792969 807 824 C806.957279 822.33388095 806.95936168 820.66617115 807 819 C808 818 808 818 810.59204102 817.88647461 C811.71795654 817.89171143 812.84387207 817.89694824 814.00390625 817.90234375 C815.21884766 817.90556641 816.43378906 817.90878906 817.68554688 817.91210938 C818.96494141 817.92048828 820.24433594 817.92886719 821.5625 817.9375 C822.84576172 817.94201172 824.12902344 817.94652344 825.45117188 817.95117188 C828.63416022 817.96300455 831.81705762 817.97948932 835 818 C835 816.68 835 815.36 835 814 C834.34 814 833.68 814 833 814 C832.7506643 812.39884424 832.52621352 810.79379841 832.3125 809.1875 C832.18488281 808.29417969 832.05726563 807.40085937 831.92578125 806.48046875 C832.0185589 803.37974219 832.89504941 803.09936716 835 801 C834.96085361 798.72847219 834.96085361 798.72847219 834.25 796.3125 C833.19186255 791.86440366 832.50474241 787.5426817 832 783 C828.20652758 781.15745625 826.04697783 780.75477605 822 782 C821.34 782.37125 820.68 782.7425 820 783.125 C816.49078595 784.66028115 813.48360711 783.16120237 810 782 C807.91105965 782.52660718 807.91105965 782.52660718 805.8125 783.4375 C804.73935547 783.86869141 804.73935547 783.86869141 803.64453125 784.30859375 C803.10183594 784.53675781 802.55914063 784.76492188 802 785 C802 784.34 802 783.68 802 783 C801.34 783 800.68 783 800 783 C799.67 782.34 799.34 781.68 799 781 Z M449 795 C448.34 795 447.68 795 447 795 C447 795.66 447 796.32 447 797 C458.39641485 802.93940139 470.26979792 804.57095591 483 804 C478.46683176 799.46683176 472.09699414 797.52424854 466 796 C464.54980469 795.57654297 464.54980469 795.57654297 463.0703125 795.14453125 C462.01585937 794.84933594 460.96140625 794.55414062 459.875 794.25 C458.38613281 793.82460938 458.38613281 793.82460938 456.8671875 793.390625 C453.55351932 792.93917157 451.97366779 793.58004791 449 795 Z M854 806 C854.93460019 810.09786237 855.87026899 813.7042133 857.5625 817.5625 C859 821 859 821 860 828 C865.28 828 870.56 828 876 828 C876.144375 826.39125 876.28875 824.7825 876.4375 823.125 C876.92581354 817.74657518 877.45224442 812.37266641 878 807 C865.67288402 801.508113 865.67288402 801.508113 854 806 Z M683 831 C682.93941406 832.22074219 682.87882813 833.44148437 682.81640625 834.69921875 C682.33864506 844.14581681 681.79537445 853.57396661 681 863 C681.90878906 863.32871094 681.90878906 863.32871094 682.8359375 863.6640625 C688.40946964 865.77343005 693.37589175 868.27449751 698.42578125 871.4296875 C701.10824056 873.06602838 703.84546131 874.53547065 706.625 876 C710.05315391 877.83444753 713.09585722 879.75336741 716.125 882.1875 C723.07996893 887.57654286 731.33025749 888.94538745 740 889 C742.23209694 888.57237404 742.23209694 888.57237404 744 888 C743.52820313 886.90945313 743.52820313 886.90945313 743.046875 885.796875 C741.66267147 882.54483057 740.32621901 879.27609909 739 876 C738.59652344 875.0409375 738.19304688 874.081875 737.77734375 873.09375 C733.74707889 862.57750333 734.24914284 852.00335435 736 841 C737.65 840.34 739.3 839.68 741 839 C737.69290198 834.03935297 732.87375352 833.63098547 727.25 832.4375 C726.10015625 832.18871094 724.9503125 831.93992187 723.765625 831.68359375 C715.56483519 830.19486116 707.57805525 829.84276237 699.25 829.875 C697.72826172 829.86919922 697.72826172 829.86919922 696.17578125 829.86328125 C695.19480469 829.86457031 694.21382812 829.86585938 693.203125 829.8671875 C692.32301758 829.86831543 691.44291016 829.86944336 690.53613281 829.87060547 C687.9375659 830.00318541 685.53484411 830.42689986 683 831 Z M930 861 C928.24252386 865.50353262 927.80705592 869.17639811 928 874 C931.465 873.505 931.465 873.505 935 873 C935.33 870.36 935.66 867.72 936 865 C935.01 864.67 934.02 864.34 933 864 C933 863.34 933 862.68 933 862 C932.01 861.67 931.02 861.34 930 861 Z M757 866 C757.49113281 867.42505859 757.49113281 867.42505859 757.9921875 868.87890625 C759.33003345 873.56136707 759.22058789 878.10295873 759.125 882.9375 C759.11597656 883.81212891 759.10695313 884.68675781 759.09765625 885.58789062 C759.0742957 887.72538064 759.03843247 889.86272786 759 892 C758.34 892.33 757.68 892.66 757 893 C756.34444881 895.52733235 756.34444881 895.52733235 756 898 C754.02 898.495 754.02 898.495 752 899 C752.66 900.98 753.32 902.96 754 905 C764.17557694 907.1519347 776.26858573 904.40855141 786 901 C787.24952811 898.81043601 787.24952811 898.81043601 787.3125 895.25 C788.29169895 885.79461012 791.08794419 877.09407938 796 869 C795.24493164 868.98018066 794.48986328 868.96036133 793.71191406 868.93994141 C790.22431407 868.84350761 786.73721903 868.73431721 783.25 868.625 C782.06277344 868.5940625 780.87554688 868.563125 779.65234375 868.53125 C771.95114296 868.27875161 764.56279551 867.4795262 757 866 Z M802 870 C801.00296241 873.21859221 800.0099301 876.43831341 799.0234375 879.66015625 C798.45221378 881.52426419 797.87740545 883.38731794 797.2890625 885.24609375 C796.26879753 888.56565151 795.50419358 891.52935507 796 895 C797.485 895.99 797.485 895.99 799 897 C800.16796875 899.96875 800.16796875 899.96875 801.1875 903.5 C801.70376953 905.24796875 801.70376953 905.24796875 802.23046875 907.03125 C803 910 803 910 803 912 C803.99 911.855625 804.98 911.71125 806 911.5625 C812.68866708 910.61290055 819.22670653 909.72353904 826 910 C825.9278125 909.21238281 825.855625 908.42476562 825.78125 907.61328125 C825.27314234 901.65007334 825.02088804 895.918936 825.3125 889.9375 C825.4274336 885.24066595 825.4274336 885.24066595 822.8125 881.5 C821.11765704 880.68128122 821.11765704 880.68128122 819 880 C816.78997194 879.19212109 814.58178883 878.37918563 812.375 877.5625 C811.26898437 877.19253906 810.16296875 876.82257812 809.0234375 876.44140625 C805.60859635 874.81340059 804.11565387 873.0909187 802 870 Z M670 872 C669.01 873.485 669.01 873.485 668 875 C670.66400509 877.66400509 673.58065244 878.20131895 677.125 879.125 C677.79990479 879.30385742 678.47480957 879.48271484 679.17016602 879.66699219 C683.95226965 880.87532062 688.10415525 881.3996608 693 881 C688.06499191 875.24249056 682.43908925 872.92976234 675 872.25 C673.33422535 872.15041565 671.66762206 872.06130963 670 872 Z M924 881 C923.67 881.99 923.34 882.98 923 884 C926.3 883.67 929.6 883.34 933 883 C933 882.67 933 882.34 933 882 C930.03 881.67 927.06 881.34 924 881 Z M921 884 C921.33 884.66 921.66 885.32 922 886 C922.33 885.34 922.66 884.68 923 884 C922.34 884 921.68 884 921 884 Z " fill="#FF3E75" transform="translate(1,0)"/>
<path d="" fill="#FF3E75" transform="translate(0,0)"/>
<path d="M0 0 C2 1 2 1 2 1 Z " fill="#FF3E75" transform="translate(189,654)"/>
<path d="" fill="#FF3E75" transform="translate(0,0)"/>
</svg>
