<?xml version="1.0" encoding="UTF-8" standalone="no"?>
<svg
   viewBox="0 0 512 512"
   version="1.1"
   id="svg1"
   sodipodi:docname="basketball.svg"
   inkscape:export-filename="basketball.png"
   inkscape:export-xdpi="96"
   inkscape:export-ydpi="96"
   inkscape:version="1.3 (0e150ed, 2023-07-21)"
   xmlns:inkscape="http://www.inkscape.org/namespaces/inkscape"
   xmlns:sodipodi="http://sodipodi.sourceforge.net/DTD/sodipodi-0.dtd"
   xmlns:xlink="http://www.w3.org/1999/xlink"
   xmlns="http://www.w3.org/2000/svg"
   xmlns:svg="http://www.w3.org/2000/svg">
  <defs
     id="defs1">
    <linearGradient
       id="swatch1"
       inkscape:swatch="solid">
      <stop
         style="stop-color:#b5ab9a;stop-opacity:1;"
         offset="0"
         id="stop1" />
    </linearGradient>
    <linearGradient
       inkscape:collect="always"
       xlink:href="#swatch1"
       id="linearGradient1"
       x1="0"
       y1="256"
       x2="512"
       y2="256"
       gradientUnits="userSpaceOnUse" />
  </defs>
  <sodipodi:namedview
     id="namedview1"
     pagecolor="#505050"
     bordercolor="#ffffff"
     borderopacity="1"
     inkscape:showpageshadow="0"
     inkscape:pageopacity="0"
     inkscape:pagecheckerboard="1"
     inkscape:deskcolor="#505050"
     inkscape:zoom="0.4609375"
     inkscape:cx="256"
     inkscape:cy="254.91525"
     inkscape:window-width="1512"
     inkscape:window-height="1030"
     inkscape:window-x="156"
     inkscape:window-y="157"
     inkscape:window-maximized="0"
     inkscape:current-layer="svg1"
     inkscape:export-bgcolor="#ffffff00" />
  <!--!Font Awesome Free 6.5.2 by @fontawesome - https://fontawesome.com License - https://fontawesome.com/license/free Copyright 2024 Fonticons, Inc.-->
  <path
     d="M86.6 64l85.2 85.2C194.5 121.7 208 86.4 208 48c0-14.7-2-28.9-5.7-42.4C158.6 15 119 35.5 86.6 64zM64 86.6C35.5 119 15 158.6 5.6 202.3C19.1 206 33.3 208 48 208c38.4 0 73.7-13.5 101.3-36.1L64 86.6zM256 0c-7.3 0-14.6 .3-21.8 .9C238 16 240 31.8 240 48c0 47.3-17.1 90.5-45.4 124L256 233.4 425.4 64C380.2 24.2 320.9 0 256 0zM48 240c-16.2 0-32-2-47.1-5.8C.3 241.4 0 248.7 0 256c0 64.9 24.2 124.2 64 169.4L233.4 256 172 194.6C138.5 222.9 95.3 240 48 240zm463.1 37.8c.6-7.2 .9-14.5 .9-21.8c0-64.9-24.2-124.2-64-169.4L278.6 256 340 317.4c33.4-28.3 76.7-45.4 124-45.4c16.2 0 32 2 47.1 5.8zm-4.7 31.9C492.9 306 478.7 304 464 304c-38.4 0-73.7 13.5-101.3 36.1L448 425.4c28.5-32.3 49.1-71.9 58.4-115.7zM340.1 362.7C317.5 390.3 304 425.6 304 464c0 14.7 2 28.9 5.7 42.4C353.4 497 393 476.5 425.4 448l-85.2-85.2zM317.4 340L256 278.6 86.6 448c45.1 39.8 104.4 64 169.4 64c7.3 0 14.6-.3 21.8-.9C274 496 272 480.2 272 464c0-47.3 17.1-90.5 45.4-124z"
     id="path1"
     style="fill:url(#linearGradient1)" />
</svg>
