<svg width="140" height="83" viewBox="0 0 140 83" fill="none" xmlns="http://www.w3.org/2000/svg">
<path d="M63.7927 13.1261C62.2102 13.3189 60.9434 16.3232 61.8932 16.3232C62.8429 16.1318 66.0092 12.8063 63.7927 13.1261Z" fill="#EBD9CD"></path>
<path d="M51.1918 49.0615C51.2549 49.1261 51.3827 49.1261 51.1918 49.0615V49.0615Z" fill="#EBD9CD"></path>
<path d="M51.1923 49.0631C51.066 48.9985 51.0014 48.9985 51.1923 49.0631V49.0631Z" fill="#EBD9CD"></path>
<path d="M53.1555 46.9515C54.6123 46.8244 56.1319 44.6497 53.6611 44.9696C52.9013 45.0967 49.2923 45.7364 48.7867 46.4403C48.0897 47.3356 49.6093 47.3356 49.9892 47.2727C51.2546 46.9529 50.2434 48.6806 51.1918 49.0633C52.9656 49.7644 52.2058 47.0157 53.1555 46.9515Z" fill="#EBD9CD"></path>
<path d="M59.6767 12.6146C62.5888 11.2709 57.7143 11.4637 59.6767 12.6146V12.6146Z" fill="#EBD9CD"></path>
<path d="M62.7801 11.4647C63.5399 10.9521 67.2746 9.29004 64.1097 9.29004C63.2871 9.29004 60.5007 9.99397 61.6404 11.3376C62.0831 11.8474 62.8429 11.399 62.7801 11.4647Z" fill="#EBD9CD"></path>
<path d="M87.4749 10.7606C88.0434 10.6335 87.4749 10.505 87.4749 10.7606V10.7606Z" fill="#EBD9CD"></path>
<path d="M69.4912 39.5975C68.3515 39.8531 66.6419 40.1101 66.1349 41.3252C65.755 42.2205 67.783 41.8364 67.783 41.8364C68.7942 41.835 70.6309 39.3419 69.4912 39.5975Z" fill="#EBD9CD"></path>
<path d="M87.4749 10.761C87.3492 8.26796 84.8785 11.4007 87.2864 12.3589C88.6146 12.8072 89.6286 10.4412 87.4749 10.761Z" fill="#EBD9CD"></path>
<path d="M68.4786 31.9261C68.29 31.8619 68.1615 31.799 68.0987 31.7334C68.1615 31.8605 68.2886 31.9261 68.4786 31.9261Z" fill="#EBD9CD"></path>
<path d="M76.1394 20.4165C76.4565 19.3942 77.0249 19.1386 76.9621 17.9863C76.8364 16.6441 78.2275 13.8954 78.8616 12.6803C79.8755 14.3423 81.1409 14.151 80.0641 16.0058C79.6842 16.7083 80.1898 18.0519 80.0641 18.8816C79.747 20.6093 79.43 20.9291 78.1646 22.0786C77.4677 22.7183 77.4048 23.6778 76.835 24.3803C76.2637 25.02 75.2525 24.4446 74.6813 25.0829C74.7441 23.6122 76.0123 22.5898 76.0752 21.1191C76.0137 22.0786 76.1394 20.545 76.1394 20.4165ZM74.1771 13.8312C73.4801 15.3661 72.5946 17.091 72.4675 18.6916C72.3404 19.9696 71.0736 20.4165 71.1365 21.6973C71.1993 22.7197 71.3907 23.2323 70.6937 24.0633C69.744 25.2784 70.6309 27.1961 69.4912 27.9C68.3515 28.6025 69.9968 29.435 69.1741 30.0104C68.6685 30.3931 67.7816 30.6501 67.5288 31.2884C67.4031 31.5453 67.6545 31.6724 68.0987 31.7353C68.6699 31.7995 69.4926 31.7353 69.6183 31.7353C70.2524 31.7353 70.6323 32.375 71.3292 32.1822C72.0248 31.9909 72.4047 31.287 73.2287 31.287C74.0514 31.287 74.5584 31.1599 75.0011 31.0314C75.0248 31.0314 75.0472 31.03 75.0723 31.0286C75.279 30.9224 75.4788 30.8163 75.6352 30.7115C75.6268 30.7283 75.6157 30.7436 75.6073 30.7576C75.6394 30.7241 75.6687 30.6892 75.6994 30.6487C76.205 30.3288 76.6492 29.8819 77.5361 29.3051C78.8657 28.5397 80.7024 26.1723 81.6507 24.9572C82.7276 23.4865 83.1075 21.6317 83.6773 19.9067C83.7416 19.714 83.8044 19.5869 83.8687 19.3942C83.9315 19.3942 83.9315 19.2671 83.9315 19.2014C84.4371 17.8592 85.0084 16.8354 85.1969 15.5575C85.1969 15.7544 85.1969 15.9276 85.1662 16.091C85.2235 15.8703 85.2402 15.6496 85.1969 15.429C85.2598 14.9178 85.2598 14.3437 85.1969 13.6384C84.9441 11.6565 84.4371 11.1453 83.4245 9.48327C82.1563 7.56422 83.0446 6.92594 84.31 5.77367C85.324 4.81554 85.0698 2.70515 83.3603 3.15348C82.4734 3.40908 81.7764 4.11161 81.2066 4.81554C80.6367 5.51807 79.6241 5.00689 78.9272 5.58232C78.6101 5.83792 78.1045 6.73319 77.6618 7.18013C76.9648 7.88267 75.888 10.1858 75.7623 11.528C75.7595 11.785 74.4941 13.063 74.1771 13.8312Z" fill="#EBD9CD"></path>
<path d="M75.0709 31.0264C75.0262 31.0487 74.9829 31.0711 74.9369 31.0934C75.233 31.0934 75.4732 30.9803 75.6045 30.7568C75.4578 30.9216 75.2972 31.011 75.0709 31.0264Z" fill="#EBD9CD"></path>
<path d="M85.1648 16.0908C85.1397 16.19 85.1075 16.2891 85.0684 16.3883C85.1173 16.2905 85.1466 16.1928 85.1648 16.0908Z" fill="#EBD9CD"></path>
<path d="M67.5288 14.0218C67.9716 15.5567 67.783 16.0037 66.6433 17.0917C65.3751 18.3068 66.2006 20.4801 64.8067 21.6323C63.7927 22.4634 63.4128 24.1254 63.2242 25.4048C63.0329 27.0026 61.8303 27.7708 61.2619 29.1772C61.0705 29.7527 61.0077 30.3281 60.9448 30.9678C60.7563 32.0544 59.868 32.2458 59.3624 33.2053C58.6026 34.6131 59.4252 36.1453 58.2227 37.4261C57.2729 38.4484 56.9573 40.0477 55.5634 40.6859C54.9936 40.9429 53.1569 41.5812 53.2212 42.4136C53.2212 43.436 57.2743 42.4765 57.7171 42.3494C59.9965 41.6469 61.7689 41.1343 63.5427 39.5365C64.4282 38.7697 66.4548 39.1524 67.5316 38.6412C69.1769 37.8744 70.3809 36.9791 72.1547 36.4037C73.2315 36.0196 75.3838 35.5713 76.0807 34.6131C76.7777 33.5265 75.4466 33.398 74.7497 33.7165C73.4843 34.2291 72.2175 33.7807 70.9521 34.2933C69.3697 34.9316 68.4185 33.5894 66.709 34.3562C66.5176 34.4204 64.6824 35.5084 64.8095 34.7402C65.0008 33.2681 65.8235 31.1577 66.3291 29.8155C66.8347 28.1535 66.5833 27.578 67.9115 26.4272C68.4171 25.9802 68.4814 24.5081 68.9255 23.7413C69.6211 22.5891 69.1783 21.6938 70.1909 20.6072C71.2035 19.4563 71.2678 18.1769 71.5834 16.7076C72.1547 13.9575 73.9257 11.9128 75.0025 9.35405C75.1282 9.0342 76.0793 7.37215 75.8252 6.98806C75.0025 5.83579 73.4829 7.37075 72.9131 8.01043C72.0904 8.90571 70.1909 8.90571 69.7468 10.0566C69.4926 10.632 68.5442 11.1432 68.0358 11.5287C66.6419 12.3597 64.6167 14.0218 67.5288 14.0218Z" fill="#EBD9CD"></path>
<path d="M86.0182 5.90052C87.4121 6.22036 89.2473 2.95909 87.1579 3.85437C86.1439 4.30271 85.1313 5.70777 86.0182 5.90052Z" fill="#EBD9CD"></path>
<path d="M11.111 44.1387C10.5398 44.2658 9.71712 45.0982 10.4769 45.3538C11.8708 45.7365 12.3764 43.8189 11.111 44.1387Z" fill="#EBD9CD"></path>
<path d="M52.7756 19.1373C52.9642 19.073 53.0927 18.9445 53.1555 18.6903C53.3441 18.4976 53.4726 18.2434 53.4726 18.3705C53.4726 16.7084 46.1274 18.9459 46.95 20.8007C48.5325 24.1248 51.446 20.7351 52.7756 19.1373Z" fill="#EBD9CD"></path>
<path d="M26.117 24.7633C28.0165 25.2759 28.4593 25.85 29.8532 24.5706C30.423 23.9952 33.5879 24.3792 32.891 22.7172C31.8784 20.4155 29.916 22.3974 28.6478 23.1641C28.078 23.5468 25.5472 23.6111 25.4815 24.315C25.3572 24.5706 26.1799 24.7633 26.117 24.7633Z" fill="#EBD9CD"></path>
<path d="M55.4349 17.0907C56.8917 18.2415 59.2339 14.2777 58.6012 14.3406C57.2716 14.342 54.2938 16.1968 55.4349 17.0907Z" fill="#EBD9CD"></path>
<path d="M7.31061 44.5217C8.19611 44.5859 12.7563 42.2842 11.4266 41.6445C9.5914 40.8135 5.41111 44.3946 7.31061 44.5217Z" fill="#EBD9CD"></path>
<path d="M25.4843 27.1937C26.7497 26.7468 25.6729 25.3389 24.9787 26.427C24.7245 26.8739 24.9145 27.258 25.4843 27.1937Z" fill="#EBD9CD"></path>
<path d="M42.7069 30.6466C41.4415 30.5195 40.3646 32.1816 42.0099 31.926C43.0239 31.7332 43.0868 30.7108 42.7069 30.6466Z" fill="#EBD9CD"></path>
<path d="M52.9013 20.2245L52.8385 20.2874L52.9013 20.2245ZM53.534 28.2234V28.3602C53.5368 28.3155 53.5368 28.2694 53.534 28.2234C53.5913 27.3183 54.2128 25.8043 55.3078 26.6186C55.562 26.8113 54.4223 28.8574 54.4223 29.56C54.4852 31.6704 52.0144 34.1635 50.749 35.6984C48.2797 38.5756 48.4696 36.8507 49.8635 34.3562C50.3691 33.4609 51.446 32.4386 51.5088 31.479C51.6904 29.8868 53.4404 29.7611 53.5312 28.4035C53.5298 28.3463 53.5312 28.2862 53.534 28.2234ZM51.4446 22.909C50.7476 23.2916 50.0507 23.4844 49.8621 24.3168C49.6708 24.9551 49.7993 25.7219 49.4194 26.2987C48.9766 26.937 48.2168 26.8742 47.8369 27.6409C47.0143 29.2387 45.3033 29.4315 44.6064 30.7737C44.2279 31.4134 44.4178 32.3715 44.6064 33.331C44.6064 33.4581 44.6706 33.778 44.7335 33.9707C44.7963 34.5462 44.7963 35.0559 44.6706 35.4414C44.4793 36.0811 44.2907 36.4638 44.2279 36.8493C44.1008 37.5518 44.1008 38.0644 44.1637 39.3424C44.1637 40.5575 42.1371 41.4528 43.024 43.1148C44.0379 44.9054 47.647 43.9473 49.1666 43.4347C50.4976 42.9877 50.8775 41.8369 51.763 40.7488C52.7756 39.5337 54.3581 40.1734 54.738 38.2544C54.9922 37.0392 54.6123 37.0392 55.752 36.401C56.3861 36.0169 56.8917 35.5057 57.2087 34.8018C57.7143 33.7151 57.8414 32.4358 58.2842 31.2849C58.9183 29.6871 60.2479 28.8561 60.8806 27.194C61.1348 26.4272 61.8317 25.2749 61.5775 24.4439C61.1348 22.909 61.3234 23.2288 62.3373 21.8866C62.8429 21.2469 61.9574 20.096 62.5259 19.6491C63.0971 19.3921 63.9826 18.434 63.3485 17.6672C62.7158 17.0275 61.322 18.2426 60.8164 18.4982C60.4365 17.8585 61.4504 17.7314 60.5622 17.2202C59.7395 16.7077 58.7269 17.3473 57.9671 17.7314C56.8903 18.3711 55.9405 19.2035 55.1165 20.1617C54.3567 19.9689 53.3441 19.6505 52.71 20.3544C52.0144 21.1827 52.5214 22.3349 51.4446 22.909Z" fill="#EBD9CD"></path>
<path d="M44.1784 36.9346C44.1311 37.0125 44.0838 37.0723 44.0365 37.1682C44.0838 37.0723 44.1311 37.0125 44.1784 36.9346Z" fill="#EBD9CD"></path>
<path d="M53.5354 28.3604C53.5354 28.3758 53.5326 28.3884 53.5326 28.4025C53.5326 28.4263 53.534 28.4502 53.5354 28.474V28.3604Z" fill="#EBD9CD"></path>
<path d="M49.0395 17.0908C49.0395 17.0908 52.3957 17.2179 51.0018 16.0042C50.1792 15.3016 48.1526 16.7081 49.0395 17.0908Z" fill="#EBD9CD"></path>
<path d="M41.3144 45.8C42.1999 45.6072 43.0882 44.7133 42.5169 44.4577C40.2375 43.3069 39.7948 46.0556 41.3144 45.8Z" fill="#EBD9CD"></path>
<path d="M56.5103 12.2955C57.65 12.2313 56.5732 10.8248 56.0676 11.7201C55.8134 12.167 56.4475 12.2313 56.5103 12.2955Z" fill="#EBD9CD"></path>
<path d="M119.893 31.222C119.259 31.9245 121.92 32.3729 122.11 31.1577C122.3 29.8798 119.831 31.3491 119.893 31.222Z" fill="#EBD9CD"></path>
<path d="M126.416 11.6562C126.986 11.3364 128.443 11.2093 128.633 10.5053C129.392 8.07648 122.49 14.0222 126.416 11.6562Z" fill="#EBD9CD"></path>
<path d="M108.624 9.35453C108.624 10.6967 110.65 9.41878 109.763 8.84194C109.383 8.65199 108.624 8.90619 108.624 9.35453Z" fill="#EBD9CD"></path>
<path d="M121.413 14.4063C119.768 14.9817 121.919 15.6856 121.73 15.6856C123.187 15.5557 122.554 13.9579 121.413 14.4063Z" fill="#EBD9CD"></path>
<path d="M90.197 3.27974C90.5141 3.40684 90.1342 3.98227 90.5141 4.30211C91.3367 5.00604 92.2236 3.85517 92.7292 3.34399C92.9834 3.087 96.9724 2.00037 96.7196 1.36209C96.3397 0.0827215 88.2975 2.44871 90.197 3.27974Z" fill="#EBD9CD"></path>
<path d="M118.248 5.77248C119.642 5.70823 119.262 4.04478 118.185 4.7501C117.614 5.1328 117.424 5.77248 118.248 5.77248Z" fill="#EBD9CD"></path>
<path d="M105.33 8.32953C105.013 9.41615 104.633 9.28906 103.685 9.80024C101.658 10.9525 102.988 12.8059 101.785 13.8297C100.454 14.9806 101.343 16.0672 99.6317 17.0896C98.4934 17.7292 98.1135 19.7754 97.8593 20.9891C97.4794 22.5883 97.6679 23.4193 96.2768 24.4417C94.8201 25.594 94.7572 26.872 94.3773 28.5983C94.0603 30.069 92.3507 31.2184 91.6552 32.6263C90.5783 34.6725 89.3129 35.3764 87.2864 36.2717C86.4637 36.6544 84.0558 38.4449 86.3994 38.1265C87.7305 37.9337 89.4386 37.0398 90.6426 36.4644C91.4024 36.0803 91.7823 35.185 92.5421 34.8652C93.1762 34.6096 93.936 34.8652 94.5044 34.4183C95.0757 33.9713 95.2014 33.1403 95.5184 32.5635C95.8983 31.8609 96.7838 32.4364 97.2908 31.988C99.2532 30.3902 99.8873 27.1275 100.901 24.9557C101.724 23.228 101.344 25.851 101.281 26.2337C101.217 27.1289 101.977 27.5759 101.344 28.4726C100.838 29.2379 100.141 29.4949 99.9501 30.4531C99.8244 31.2198 99.8244 31.988 99.3803 32.6277C98.809 33.3945 97.7978 33.5872 97.5436 34.6739C97.1637 36.5287 95.5813 36.2088 94.5673 37.551C93.7446 38.7033 91.6552 37.551 91.3381 39.2787C90.9582 41.5805 94.6944 39.9813 95.517 39.5986C97.8593 38.4463 101.66 37.9365 103.305 35.699C104.255 34.4197 104.762 32.5649 106.091 31.6696C107.548 30.6472 108.751 29.8162 110.143 28.5368C110.777 27.9614 110.84 27.1289 110.65 26.3636C111.41 26.1708 112.233 25.9795 112.423 25.0842C112.802 23.4864 114.196 22.7182 114.765 21.2475C115.019 20.6092 115.779 20.4165 116.096 19.7768C116.476 18.9458 116.284 17.922 116.791 17.0909C117.236 16.3242 118.122 16.5155 118.754 16.0686C119.388 15.6216 119.008 14.8535 119.134 14.2138C119.134 14.3409 123.25 11.1439 123.884 10.824C125.023 10.2486 131.545 7.30855 131.228 5.77359C131.102 5.19816 126.036 6.15628 125.466 6.28617C124.452 6.47752 123.63 7.1172 122.553 7.30855C121.16 7.56415 120.146 9.0991 118.944 9.16196C117.234 9.2262 116.284 10.6969 115.335 11.912C114.828 12.6788 113.244 11.912 112.421 12.7445C111.788 13.3841 108.244 16.3242 111.156 15.4945C110.65 16.8996 108.749 16.8368 108.306 18.3075C107.8 20.098 108.622 20.4807 107.167 21.8243C105.076 23.8048 107.355 29.0494 103.621 30.0075C103.429 29.1765 104.696 27.8971 104.696 26.939C104.76 25.4669 104.887 24.3174 105.013 22.9096C104.57 22.0785 106.533 17.922 105.393 17.475C106.85 16.2599 108.306 12.169 106.787 10.6341C107.357 10.4413 107.737 10.1215 107.989 9.54744C108.369 8.13958 108.307 8.972 109.129 7.81974C109.889 6.73451 110.269 6.28618 111.409 5.3895C112.674 4.49423 111.851 3.08916 110.332 3.66459C108.749 4.24003 108.305 5.96633 106.658 6.47752C105.71 6.98731 105.584 7.56275 105.33 8.32953Z" fill="#EBD9CD"></path>
<path d="M131.735 4.36648C132.749 3.98378 131.926 2.57592 131.165 3.7268C130.532 4.55922 131.482 4.43072 131.735 4.36648Z" fill="#EBD9CD"></path>
<path d="M110.713 7.43529C109.89 8.65041 111.156 8.65041 111.978 8.45767C113.372 8.07497 114.005 6.41152 115.397 6.09168C117.36 5.64474 115.777 3.91704 114.321 5.25925C113.309 6.28582 111.536 6.22157 110.713 7.43529Z" fill="#EBD9CD"></path>
<path d="M113.308 2.3212C113.625 2.38545 114.322 2.32121 114.511 2.00136C115.335 0.786246 112.106 2.12846 113.308 2.3212Z" fill="#EBD9CD"></path>
<path d="M93.996 10.9521C93.6161 11.5275 92.8563 11.2076 92.3507 11.1448C91.5281 11.0177 91.0853 11.7831 90.5141 12.2314C89.88 12.7426 88.5518 13.4451 88.4247 13.3166C87.285 12.4214 86.5252 13.4437 86.9679 14.596C87.285 15.4913 86.7766 18.6883 85.8282 19.5193C84.8142 20.4789 84.4343 22.3965 83.9916 23.6759C83.3589 25.4664 81.9021 26.5531 81.1423 28.2794C80.3825 30.0071 78.99 30.5811 78.4202 32.5644C78.0403 33.9695 77.6604 34.9946 76.5207 35.9528C75.888 36.3997 70.758 39.918 71.772 40.8775C72.5317 41.58 74.6212 40.5576 75.4438 40.3649C76.3307 40.1721 77.1548 40.3649 77.7232 39.4696C78.7372 39.7252 79.8141 39.8523 80.6996 39.1498C82.282 37.9347 84.4343 37.4249 85.3226 35.5044C86.1453 33.9066 87.792 34.1622 88.6146 32.6915C88.9945 31.989 92.7306 28.0238 90.3884 28.3436C88.9317 28.535 88.2347 31.0294 86.7151 30.9009C85.9553 30.8367 85.3226 30.5811 84.7528 31.2208C84.6271 31.4121 83.803 32.4987 83.4874 32.306C82.4734 31.7948 91.4652 24.6982 92.0993 24.1228C93.5561 22.8434 94.6958 21.1814 94.8857 19.1352C95.0771 17.0249 91.0225 20.9887 90.1998 21.0529C90.0113 21.0529 91.3395 16.6408 92.9862 16.3209C94.8857 15.9382 94.6343 13.1882 96.5324 12.677C98.749 12.1001 98.8118 11.8445 99.6359 9.60704C99.8272 9.09446 102.739 7.4324 101.915 6.98546C100.586 6.21868 99.4459 7.75224 98.3691 7.36955C96.7196 6.85976 94.8187 9.73833 93.996 10.9521Z" fill="#EBD9CD"></path>
<path d="M98.6191 14.9166C97.3537 14.7895 95.3899 18.1137 95.2628 18.7533C96.1497 20.0313 100.012 15.0437 98.6191 14.9166Z" fill="#EBD9CD"></path>
<path d="M73.6701 43.2436C72.9103 44.0746 73.4158 45.5453 74.684 45.0341C75.7595 44.5872 76.6464 43.3721 77.0905 42.3483C77.4704 41.2617 76.5193 41.3259 76.5835 41.3259C75.5709 41.5159 74.367 42.4754 73.6701 43.2436Z" fill="#EBD9CD"></path>
<path d="M92.2237 27.2583C93.6804 26.9384 92.415 26.1717 92.1608 26.1074C91.084 26.1703 91.084 27.5125 92.2237 27.2583Z" fill="#EBD9CD"></path>
<path d="M83.4846 39.4709C81.7108 40.6218 83.8016 41.7727 84.3701 40.4304C84.8142 39.598 83.9287 39.2153 83.4846 39.4709Z" fill="#EBD9CD"></path>
<path d="M102.038 6.15771C103.052 6.03061 104.508 6.92449 103.748 5.26243C104.319 5.00684 106.281 4.74985 106.47 3.92022C106.534 3.40763 104.95 3.34478 104.635 3.47328C103.683 3.85597 101.468 4.17581 101.341 5.51942C101.278 6.22196 102.101 6.15771 102.038 6.15771Z" fill="#EBD9CD"></path>
<path d="M110.016 31.4777V31.6048C109.827 32.6914 107.674 33.5224 107.674 34.9303C107.674 35.8256 112.36 32.6285 112.928 32.1802C119.893 27.1298 110.333 29.6871 110.016 31.4777Z" fill="#EBD9CD"></path>
<path d="M105.077 36.145C104.001 37.0403 100.898 40.2373 103.051 40.1102C104.508 40.1102 106.851 34.6743 105.077 36.145Z" fill="#EBD9CD"></path>
<path d="M110.396 34.5474C110.333 35.7625 112.233 34.4832 111.281 34.0348C110.587 33.7792 110.396 34.7388 110.396 34.5474Z" fill="#EBD9CD"></path>
<path d="M107.23 37.1042C107.799 38.3835 109.826 36.5287 108.624 36.0175C108.054 35.6963 106.913 36.336 107.23 37.1042Z" fill="#EBD9CD"></path>
<path d="M115.652 24.5082C113.309 23.8686 112.93 28.729 112.233 28.6634C113.309 28.7276 117.614 25.0208 115.652 24.5082Z" fill="#EBD9CD"></path>
<path d="M121.667 38.2558C123.377 38.32 122.047 35.8255 121.224 36.8479C120.59 37.6803 121.793 38.2558 121.667 38.2558Z" fill="#EBD9CD"></path>
<path d="M72.9103 70.5461C72.5304 71.2487 71.7706 71.5056 71.5164 72.2738C71.0108 71.954 70.251 71.697 69.6183 71.8897C67.9702 72.4652 70.6937 73.4247 71.1365 73.4889C73.036 73.616 72.7203 72.3367 74.1757 71.7612C76.3308 70.9288 73.7972 68.9483 72.9103 70.5461Z" fill="#EBD9CD"></path>
<path d="M78.4188 73.1682C78.1018 74.3191 81.0153 74.1906 80.951 73.104C80.951 72.0188 78.673 72.273 78.4188 73.1682Z" fill="#EBD9CD"></path>
<path d="M69.9353 69.5242C69.8096 71.3148 75.1896 67.6066 72.5946 67.4138C72.4661 67.3496 69.9982 68.4362 69.9353 69.5242Z" fill="#EBD9CD"></path>
<path d="M72.9312 70.5043C72.9382 70.4889 72.9466 70.4721 72.9522 70.4609C72.9452 70.4763 72.9382 70.4917 72.9312 70.5043Z" fill="#EBD9CD"></path>
<path d="M72.9536 70.4611C72.955 70.4568 72.9564 70.4539 72.9593 70.4482C72.9578 70.4525 72.955 70.4568 72.9536 70.4611Z" fill="#EBD9CD"></path>
<path d="M73.0192 70.328C73.0262 70.3112 73.0332 70.3 73.036 70.293C73.0332 70.2986 73.0262 70.3112 73.0192 70.328Z" fill="#EBD9CD"></path>
<path d="M73.0359 70.294C73.0407 70.2861 73.0391 70.2861 73.0359 70.294V70.294Z" fill="#EBD9CD"></path>
<path d="M72.9591 70.4488C72.9675 70.4307 72.9772 70.4112 72.9856 70.3945C72.9786 70.4098 72.9689 70.4293 72.9591 70.4488Z" fill="#EBD9CD"></path>
<path d="M72.9102 70.5459C72.9158 70.5333 72.9242 70.5193 72.9312 70.5039C72.9242 70.5179 72.9186 70.5305 72.9102 70.5459Z" fill="#EBD9CD"></path>
<path d="M87.3478 64.2804C89.5015 64.3446 91.6538 61.5303 92.6022 59.8683C93.9961 57.438 93.6162 54.1782 94.8816 51.8122C95.3886 50.7884 96.2126 50.213 96.9724 49.3819C98.0478 48.2953 97.478 47.4 97.9221 46.1207C98.5562 44.2673 100.202 42.7952 100.898 40.8775C101.911 38.2559 99.316 39.2154 98.302 40.5577C97.6051 41.5172 96.4654 41.9655 95.7056 42.7952C94.883 43.6904 94.9458 45.0969 93.9332 45.7366C91.5267 47.4615 91.3996 47.9098 91.2111 50.9797C91.2111 51.2996 89.3744 56.0316 88.9317 55.9031C87.792 55.5846 90.577 50.9797 90.1342 49.9574C89.6915 48.9978 88.2976 48.4224 88.8688 47.1444C89.6286 45.4824 89.8814 44.65 88.806 42.9236C88.5518 42.4739 90.3884 38.6386 88.1719 39.7895C86.5266 40.6219 85.3226 42.5396 84.1829 43.8818C82.7262 45.6095 82.0292 45.8637 82.0292 48.4867C82.0292 49.509 80.6996 49.9574 80.5096 50.9169C80.1297 52.8345 80.3211 54.0497 79.4342 55.8402C78.6115 57.5023 78.6744 59.5484 77.8518 61.4032C77.092 63.1309 76.3322 64.9201 75.1925 66.3908C74.6869 67.0305 75.1296 67.9886 75.8894 68.1813C77.2819 68.4369 78.3587 66.3265 78.8015 65.3042C79.3727 64.0891 80.4468 64.793 81.0809 63.5136C81.6507 62.427 81.4608 61.2761 82.2206 60.2537C82.7262 59.6141 83.486 59.1015 83.6773 58.2718C83.9301 57.1852 83.4231 55.7774 84.0572 54.755C85.2598 52.7088 84.817 58.1447 84.9427 58.4003C85.3226 59.1671 84.2458 60.1909 83.803 60.7663C83.0432 61.7259 83.2318 62.494 82.8519 63.5164C82.1563 65.4983 80.6996 67.1618 80.2568 69.1437C79.6856 71.5097 83.3603 67.673 83.5488 67.6087C85.1313 67.1618 85.9553 66.5863 86.588 65.0514C86.778 64.4075 87.7277 64.2804 87.3478 64.2804Z" fill="#EBD9CD"></path>
<path d="M83.2946 70.4818C81.8379 71.0573 84.1173 72.7836 84.3086 71.2486C84.3715 70.5475 83.6745 70.3547 83.2946 70.4818Z" fill="#EBD9CD"></path>
<path d="M64.0455 66.5818C64.2346 66.5179 64.4238 66.3899 64.0455 66.5818V66.5818Z" fill="#EBD9CD"></path>
<path d="M94.7558 58.9091C94.7558 58.9733 101.024 54.624 97.3523 54.624C96.5296 54.6897 94.1874 57.9495 94.7558 58.9091Z" fill="#EBD9CD"></path>
<path d="M61.2605 68.4997C61.4518 68.4355 61.5775 68.3726 61.7032 68.2441C61.5762 68.3084 61.4504 68.4355 61.2605 68.4997Z" fill="#EBD9CD"></path>
<path d="M69.0484 59.7392C69.237 59.4836 69.3026 59.2266 69.3655 58.9082C69.3334 58.9697 69.3026 59.0325 69.2719 59.0968C69.2412 59.2294 69.1909 59.351 69.1197 59.4697C69.0931 59.5563 69.068 59.6443 69.0484 59.7392Z" fill="#EBD9CD"></path>
<path d="M63.6656 57.6935C62.9058 57.2466 63.9826 56.1585 64.4896 56.0314C65.6922 55.7759 66.0078 52.5788 67.3389 52.5788C68.7314 52.5788 66.1363 56.8639 65.1223 57.1837C65.5022 57.0538 63.9826 57.8862 63.6656 57.6935ZM68.6043 44.1386C68.0987 44.7141 67.6545 45.4166 67.0218 46.0563C66.8333 46.3133 66.5791 46.5689 66.3249 46.8231L68.6043 44.1386ZM68.9842 59.6768C69.0359 59.6098 69.0805 59.5413 69.1211 59.4729C69.1643 59.3402 69.216 59.2173 69.2733 59.0986C69.2914 59.019 69.3012 58.9352 69.3012 58.8444C69.4269 58.5259 69.554 58.1418 69.6811 57.822C70.1239 56.7354 70.758 55.9043 70.8837 54.625C70.9465 53.6669 70.1239 51.6193 70.6295 50.7897C71.1365 49.9572 72.0234 49.4475 71.4521 48.3594C70.6295 46.7616 71.6435 47.1443 71.7692 45.6736C71.832 44.9068 73.2259 41.9012 71.6435 42.221C70.2496 42.4766 69.3641 43.1163 68.6671 43.9459L66.3249 46.7602C65.5651 47.5913 64.6153 48.4223 63.6027 48.7407C63.0329 48.9335 61.5133 49.5732 61.9574 50.4684C62.0831 50.6612 62.9714 50.7883 63.0343 51.0439C63.0971 52.1961 59.9308 54.9434 59.171 55.7116C57.9685 56.991 58.7283 58.653 57.2087 59.741C55.9433 60.6363 55.4978 62.2341 54.3595 63.3208C54.1681 63.5135 50.6233 66.3264 52.5228 66.5806C54.4223 66.8376 54.9922 64.2789 56.6375 64.5987C58.4113 64.9186 58.854 61.5931 60.0565 61.85C61.3219 62.1056 62.653 59.6112 64.5525 59.9952C64.1097 61.0819 62.9044 61.1461 62.653 62.4255C62.3359 63.7677 62.0189 64.216 61.1334 65.3027C59.9937 66.7077 59.5509 68.3083 57.3973 67.4759C56.3847 67.0932 55.8777 68.4354 56.6375 69.0109C57.2716 69.4578 58.4113 69.2665 59.1082 69.2036C60.0579 69.1394 60.6906 68.8195 61.2605 68.5011C62.146 67.9242 62.8429 67.1575 63.9826 66.582C66.4534 65.3041 67.9073 62.2984 68.9842 59.6768Z" fill="#EBD9CD"></path>
<path d="M65.6293 73.9984C64.6796 73.2959 64.4268 74.9579 65.438 74.7652C65.8179 74.7024 66.0721 74.3183 65.6293 73.9984Z" fill="#EBD9CD"></path>
<path d="M54.9279 67.9247C54.9279 66.7096 53.0284 67.9889 53.9139 68.6272C54.6109 69.1398 54.9279 67.7976 54.9279 67.9247Z" fill="#EBD9CD"></path>
<path d="M66.5148 71.5696C65.1852 70.9942 64.4254 72.9118 65.755 72.9118C66.5148 72.9761 67.2118 71.8238 66.5148 71.5696Z" fill="#EBD9CD"></path>
<path d="M70.3781 67.1576C70.8837 66.7107 71.3278 66.3909 71.8977 66.071C72.3404 65.5598 72.1519 64.4732 72.8474 64.1534C74.367 63.3866 75.1897 63.0025 75.5067 61.1477C75.6981 59.8055 77.152 59.8055 77.152 58.2705C77.152 56.2886 78.5459 55.1377 78.6716 53.0902C78.7345 51.4924 80.1912 50.1502 79.937 48.6781C79.6842 46.9531 79.7484 46.8875 80.5711 45.4182C81.0138 44.6514 82.3449 42.3483 81.3937 41.5186C80.1912 40.432 78.7345 42.0941 78.3546 43.0536C77.849 44.3958 75.9481 44.0117 75.6324 45.5467C75.3796 46.699 75.3796 47.8484 75.2525 48.9993C75.1897 49.8317 74.1771 50.1516 73.9871 50.9812C73.7343 52.0678 74.367 53.1558 73.7986 54.1782C73.4815 54.8179 72.9117 55.2648 72.6589 55.9059C71.8991 58.0792 71.5192 59.8697 70.4423 61.9787C69.3655 63.3209 68.9227 64.8559 67.9101 66.1353C67.2132 67.0305 64.9966 67.3504 64.8709 68.5655C64.6796 70.2276 67.1503 69.7806 67.466 68.5655C67.7188 67.7331 69.8725 67.9244 70.3781 67.1576Z" fill="#EBD9CD"></path>
<path d="M124.516 48.8705C123.502 49.1904 123.251 48.6778 122.427 48.2308C120.97 47.5283 120.653 49.9585 121.667 50.5326C122.933 51.2351 126.986 48.9976 126.605 48.742C125.973 48.2951 125.151 48.6778 124.516 48.8705Z" fill="#EBD9CD"></path>
<path d="M9.21152 54.3692C10.9211 53.9865 9.97132 54.8818 11.4281 54.9447C12.7577 55.0089 13.9603 54.3692 15.2913 54.6248C18.9632 55.4572 21.8124 54.7519 25.1058 52.8999C26.8782 51.8775 28.8406 52.1331 30.5515 51.3007C32.134 50.5339 32.7038 49.3188 34.6662 49.0004C36.8198 48.6163 37.3883 46.7615 38.3394 45.0352C39.1621 43.5644 41.1258 42.2851 41.4429 40.6873C41.5686 40.0476 41.5686 39.3451 41.5686 38.6397C41.5686 38.0643 42.3912 38.257 42.5183 37.5531C42.7097 36.4679 42.0127 35.8911 42.3298 34.7402C42.5183 34.0376 40.2403 34.5474 39.9875 34.6131C39.2277 34.8058 39.3534 34.1661 38.5308 34.6759C37.8967 35.06 37.4539 35.7626 36.7584 36.148C36.567 35.8911 36.6313 33.8463 35.3016 35.3156C34.479 36.2109 34.8589 36.9777 33.5907 37.4903C32.641 37.873 27.8294 40.9429 30.8686 41.711C32.0083 42.0309 36.4413 37.8743 37.074 39.8562C37.581 41.5183 33.3393 42.7334 32.7681 43.8843C32.4524 44.524 30.3616 44.077 29.6646 44.5882C28.0822 45.8033 27.5123 44.5882 25.9299 45.2908C21.9409 46.9528 23.0806 44.524 24.853 42.0309C25.4871 41.1356 26.6268 41.1356 27.1953 40.049C28.2093 38.1942 28.9691 37.4274 30.4887 35.8924C32.0069 34.3589 33.9064 33.9748 35.4902 32.6968C36.0614 32.2499 35.9329 30.9691 36.6927 30.7778C37.5796 30.5222 38.3408 30.011 39.1635 29.6926C41.1258 28.8601 44.355 29.7554 45.8117 27.7735C46.5715 26.6869 44.7977 26.1757 45.1148 25.4075C45.6204 24.0653 47.7112 24.705 46.6972 22.8502C45.2405 20.1644 43.2781 21.0596 40.8088 22.0178C37.6425 23.2329 34.2863 24.448 31.3742 26.1743C28.8406 27.5822 27.1953 28.9872 25.2315 30.9691C23.7748 32.5041 21.0526 34.486 20.5456 36.5964C20.6085 36.4693 9.14867 43.8843 15.3542 41.9038C14.2145 43.6287 16.8095 44.077 14.4673 45.0994C13.7075 45.4193 12.9491 47.147 12.5692 47.3383C11.618 47.8495 10.7954 49.2559 10.5412 50.344C10.1613 51.6862 10.5412 51.3021 9.08582 52.1345C6.67933 53.3455 5.47399 55.2645 9.21152 54.3692Z" fill="#EBD9CD"></path>
<path d="M87.6635 68.1165C85.8897 67.7338 86.4609 70.2912 87.6635 69.2674C88.2333 68.8191 88.1076 68.1808 87.6635 68.1165Z" fill="#EBD9CD"></path>
<path d="M132.114 29.1758C130.405 29.3685 131.355 31.7974 132.369 30.1982C132.811 29.4314 132.052 29.1758 132.114 29.1758Z" fill="#EBD9CD"></path>
<path d="M139.46 5.51827C139.08 5.39117 134.394 6.15796 134.394 5.83811C133.064 5.83811 131.417 6.79764 130.722 7.88426C130.278 8.52394 129.962 10.5715 131.292 10.0589C133.254 9.35637 133.951 7.50157 136.168 7.18173C136.737 7.18033 140.599 5.96521 139.46 5.51827Z" fill="#EBD9CD"></path>
<path d="M129.321 28.4719C129.264 28.4496 129.204 28.4286 129.138 28.4077C127.746 28.1521 127.683 29.9427 126.48 30.2625C125.909 30.3896 123.692 31.6704 123.504 32.1801C123.25 32.8841 122.238 37.4876 124.201 35.8255C125.466 34.8031 126.036 33.2682 127.24 32.2458C128.039 31.6229 131.29 29.2499 129.321 28.4719Z" fill="#EBD9CD"></path>
<path d="M119.768 49.0618C118.374 46.4403 115.716 47.5269 113.437 47.0799C112.297 46.8243 107.991 46.8244 109.383 44.6497C110.586 42.7963 111.917 42.7963 113.626 41.8368C114.703 41.1971 114.892 39.7892 116.223 39.6621C119.578 39.2794 119.199 36.785 121.477 34.6746C123.631 32.6927 117.931 34.9944 118.248 35.1215C117.108 34.5461 117.298 32.884 115.399 34.7388C114.068 35.6983 112.233 35.7612 111.283 37.169C110.397 38.5113 108.561 37.9358 107.548 39.1509C106.408 40.556 104.445 40.6859 103.369 42.1566C102.484 43.4988 101.975 44.267 100.836 45.4165C99.823 46.376 99.3174 48.1666 100.457 49.316C101.09 49.8915 103.052 50.4027 103.244 51.2979C103.623 52.7058 104.636 52.3846 105.586 51.7449C106.535 51.1694 108.244 50.2099 108.941 51.8091C109.575 53.2798 106.281 53.6625 105.522 53.8553C103.749 54.4307 103.244 56.157 102.421 57.6277C101.597 58.9699 99.6987 59.6096 99.1903 61.0803C98.2406 63.9575 95.2642 62.1041 93.3647 64.086C92.6692 64.7899 90.8954 64.9813 91.0853 66.2607C91.2767 67.6029 93.239 67.7314 94.253 67.9227C96.2154 68.3054 97.4822 66.6433 99.3817 66.8361C101.091 66.9632 102.294 65.5581 103.813 64.9813C105.144 64.4701 106.6 64.0232 107.549 62.808C108.309 61.7857 108.625 60.4421 109.512 59.4825C110.462 58.523 111.918 59.1627 113.058 58.2032C114.198 57.1808 114.388 55.583 115.717 54.6877C117.237 53.6639 116.603 52.5773 117.49 51.3622C118.058 50.5968 120.653 50.7881 119.768 49.0618Z" fill="#EBD9CD"></path>
<path d="M118.311 53.09C117.994 54.3051 120.021 53.9211 120.085 52.8344C119.325 51.6193 118.311 53.09 118.311 53.09Z" fill="#EBD9CD"></path>
<path d="M91.6538 68.8201C89.1845 68.5645 87.9819 72.6568 90.5141 71.1219C91.9066 70.228 93.1734 68.9486 91.6538 68.8201Z" fill="#EBD9CD"></path>
<path d="M116.474 45.2254C116.537 44.7128 115.018 44.3301 114.638 44.3301C110.08 45.6723 116.157 46.8232 116.474 45.2254Z" fill="#EBD9CD"></path>
<path d="M1.61214 58.2685H1.67499H1.86633H1.67499H1.61214C-0.0331602 58.5241 -0.541555 61.4656 0.66239 60.8259C1.35934 60.506 3.57588 58.0772 1.61214 58.2685Z" fill="#EBD9CD"></path>
<path d="M14.5301 67.2218C14.7214 67.5416 16.1125 66.6464 15.227 66.1994C14.5929 65.8782 13.3904 66.9662 14.5301 67.2218Z" fill="#EBD9CD"></path>
<path d="M9.46432 78.3457C9.65567 76.4909 4.52424 78.0259 5.53823 79.8807C6.17233 81.0316 9.46432 78.6013 9.46432 78.3457Z" fill="#EBD9CD"></path>
<path d="M3.8287 54.8163C3.3231 54.8805 1.5493 56.1585 2.75185 56.1585C3.25885 56.1585 4.46279 56.7982 4.90554 56.2227C5.41114 55.5188 4.52564 54.752 3.8287 54.8163Z" fill="#EBD9CD"></path>
<path d="M12.4407 79.434C11.9351 79.3069 8.26179 79.9466 9.40148 80.9047C9.78138 81.2246 10.5412 82.504 10.8582 82.3769C12.0608 81.9914 13.3262 79.6254 12.4407 79.434Z" fill="#EBD9CD"></path>
<path d="M21.2412 63.0651C22.0513 61.8081 17.5442 63.0218 17.7467 64.8235C17.7188 64.6755 17.6559 64.5079 17.7593 64.9199C18.0135 66.2621 20.9884 63.512 21.2412 63.0651Z" fill="#EBD9CD"></path>
<path d="M17.878 57.7119C17.6461 58.2105 18.2034 58.3976 18.392 58.3976C20.0652 58.3976 18.8068 56.3487 18.0204 57.4605C17.9743 57.5275 17.9269 57.6029 17.885 57.6951C17.8836 57.6993 17.8822 57.7049 17.878 57.7119Z" fill="#EBD9CD"></path>
<path d="M26.2442 54.752C25.2302 54.752 24.4704 55.7115 23.4578 55.7743C22.4438 55.8386 20.6714 55.1347 20.2286 56.4783C19.9116 57.5006 22.6351 57.1166 22.6351 57.0537C24.2176 60.6991 27.638 54.8176 26.2442 54.752Z" fill="#EBD9CD"></path>
<path d="M20.1658 65.8777C20.5457 66.0048 21.4954 65.8134 21.6854 65.3651C21.9382 64.5354 18.9618 65.4307 20.1658 65.8777Z" fill="#EBD9CD"></path>
<path d="M32.5753 75.4685C31.5613 74.8931 29.7889 75.7241 28.8392 76.171C28.3336 76.428 26.624 78.4085 28.2065 78.0258C28.8392 77.8987 33.3365 75.9168 32.5753 75.4685Z" fill="#EBD9CD"></path>
<path d="M34.0963 68.308C34.2848 67.2213 31.0571 68.8206 31.8169 69.2032C32.1968 69.4588 33.5278 68.8205 33.6535 68.7563C33.7792 68.6278 33.9692 68.4351 34.0963 68.308Z" fill="#EBD9CD"></path>
<path d="M62.463 72.7208C61.9574 72.6566 60.1208 73.7432 59.8666 73.0406C61.7661 71.4414 54.548 70.7389 53.7254 70.5462C52.2686 70.2277 51.3175 68.6285 49.9264 68.6928C49.4208 68.6928 45.4304 70.2277 46.6972 68.4358C47.2671 67.669 48.1526 67.2206 48.8495 66.5824C49.6093 65.9427 49.5465 65.1103 50.1149 64.3449C50.749 63.3853 52.0773 63.3211 52.7114 62.363C53.1541 61.7233 53.6611 60.3811 53.9139 59.6129C54.3567 58.5263 55.6235 58.4606 56.0034 57.2469C56.3833 56.2231 56.2575 55.7748 57.4601 55.3279C58.0313 55.1365 59.2967 54.3697 58.854 53.6029C58.2827 52.5163 56.8916 54.0499 56.1947 54.0499C56.5117 52.1951 58.5369 51.4925 59.678 50.4674C60.9434 49.3165 60.1208 47.8472 61.9574 47.2075C62.7801 46.9519 66.2006 45.8653 65.5036 44.3946C64.6181 42.604 62.7172 45.9295 61.6404 45.5455C62.2102 44.7787 62.8429 42.9239 61.1348 43.8205C60.2479 44.2675 59.9951 45.2913 59.1724 45.7382C58.2855 46.2494 57.2101 46.1209 56.3847 46.8248C55.6891 47.4003 55.6249 48.2955 55.3721 49.1252C55.1179 50.0204 54.2952 50.1489 53.6611 50.7244C53.0284 51.2998 52.9013 52.1294 52.9013 52.8976C52.9013 53.4745 51.763 53.73 51.446 53.9842C50.1778 55.0066 52.0158 56.1589 50.3691 57.1813C48.7867 58.2036 47.7098 60.2512 46.2531 61.5291C44.8606 62.8085 43.658 64.215 42.0756 65.3016C40.6817 66.1969 41.0616 66.581 42.7083 66.4539C41.5686 67.7318 39.9861 70.6747 38.5936 71.3772C37.9595 71.697 37.1997 71.8898 36.6313 72.3367C35.8086 72.975 36.1885 73.9345 35.0488 74.1273C32.8952 74.4471 33.8463 76.9402 35.7458 76.2377C36.5042 75.9807 37.0754 75.2781 37.7724 74.8298C39.0378 74.063 40.2417 75.4695 41.5071 74.8941C42.2041 74.6371 42.3298 73.7418 42.9639 73.4862C44.1036 73.0392 45.3704 73.8689 46.383 74.3172C48.8523 75.341 51.1317 75.1496 53.5382 74.5742C56.0718 73.9988 58.604 75.2767 61.2004 74.6371C62.2717 74.3829 63.5399 72.9122 62.463 72.7208Z" fill="#EBD9CD"></path>
<path d="M33.9692 70.9942C35.2989 70.4188 33.3351 69.2036 33.1466 70.4816C32.9552 71.2498 34.0949 70.9299 33.9692 70.9942Z" fill="#EBD9CD"></path>
<path d="M36.4288 70.0515C36.4707 70.0515 36.514 70.0487 36.5656 70.0348C37.3254 69.842 40.1747 67.6688 38.845 67.1576C38.6914 67.0989 38.5405 67.0752 38.3911 67.0752C36.817 67.0766 35.5223 70.0459 36.4288 70.0515Z" fill="#EBD9CD"></path>
<path d="M13.9603 56.032C13.8974 55.9677 13.6432 55.9049 13.5175 55.9049C13.491 55.9021 13.4616 55.8993 13.4351 55.8965C13.3234 55.8448 13.2326 55.8448 13.4142 55.8951C12.2591 55.775 10.3205 55.7219 9.27577 56.0334C8.45312 56.2261 6.67933 57.5041 8.26177 58.1438C8.83162 58.3337 14.5287 56.7345 13.9603 56.032Z" fill="#EBD9CD"></path>
<path d="M39.8576 58.7796C38.338 59.2265 37.8953 60.9542 36.4399 61.0813C36.3128 61.0813 32.4496 61.5925 33.6522 60.9542C36.1857 59.5463 35.9958 55.0714 38.6551 53.7291C39.9233 53.0895 45.5575 51.4274 44.672 54.0476C43.9737 56.2222 42.0113 58.077 39.8576 58.7796ZM31.12 68.3078C32.4496 67.6052 32.5767 66.8999 34.2234 66.9655C35.6173 66.9655 36.1857 65.3663 37.1355 65.4948C39.6691 65.7504 43.0882 63.1931 44.4178 61.1456C45.7475 59.165 47.8369 57.82 48.8495 55.8395C49.0409 55.4554 49.1666 55.1356 49.2294 54.6873C49.4208 53.792 50.6233 52.0671 50.6233 50.7877C50.6233 50.2123 50.432 49.7011 49.8007 49.4455C48.5981 48.9329 48.4696 49.3813 47.5213 48.3589C47.2042 48.1033 46.8872 47.9762 46.5073 48.039C44.9248 48.2318 43.7851 47.208 42.2655 47.208C40.8716 47.208 38.5922 48.2304 37.3254 48.9329C36.5028 49.3799 35.5517 51.3631 34.4762 51.0433C33.2737 50.6606 32.8281 52.3855 32.2597 53.0909C31.6256 53.7934 30.5501 53.218 29.7903 53.6663C28.7763 54.2417 30.0431 56.1608 29.0934 56.3521C27.5738 56.6091 27.6366 57.5672 27.8908 58.7824C28.3336 60.7643 24.2818 60.8928 23.1421 61.7238C20.9255 63.3858 26.117 64.7294 25.0402 66.1345C23.9647 67.5424 24.4703 69.5243 23.2678 71.0592C22.3166 72.2101 22.4451 74.1278 21.3054 75.0873C20.1657 76.0468 18.5833 77.3248 17.3794 78.0287C16.5567 78.5399 15.4799 78.1558 14.6572 78.667C13.7717 79.1796 13.8346 81.1615 14.7829 81.5442C15.7341 81.9283 16.9995 81.4171 17.8221 80.9687C19.2788 80.0735 21.0512 80.586 22.508 79.6265C23.5848 78.8597 24.0904 77.5804 25.2301 76.8136C26.1617 76.1865 27.2721 75.6194 27.6129 74.4546C27.9257 73.1766 28.9453 72.5551 29.8518 71.7618C31.1828 70.5453 29.916 68.9474 31.12 68.3078Z" fill="#EBD9CD"></path>
<path d="M27.5863 74.583C27.5794 74.6025 27.5738 74.6206 27.5738 74.6386C27.5766 74.6192 27.5835 74.6011 27.5863 74.583Z" fill="#EBD9CD"></path>
<path d="M27.6364 74.3828C27.6308 74.4065 27.6211 74.4287 27.6142 74.4537C27.603 74.4955 27.5947 74.5386 27.5863 74.5845C27.6044 74.5344 27.6364 74.476 27.6364 74.3828Z" fill="#EBD9CD"></path>
</svg>