    <svg width="119" height="61" viewBox="0 0 119 61" fill="none" xmlns="http://www.w3.org/2000/svg">
<g clip-path="url(#clip0_977_2618)">
<path d="M0.324587 0.353261L0 44.5802L7.89241 42.462L7.41258 14.9976L9.52416 22.9919H12.927L14.3771 14.0546L15.4779 38.3698L20.4684 36.4575L19.731 22.2741L19.8175 0.191406L15.9348 0.247704L11.3023 11.1993L7.14797 0.353261H0.324587Z" fill="#F7F0E8"></path>
<path d="M30.1284 22.6751L30.0508 28.998H25.3478L25.4254 10.3635H31.2063V18.1554H28.756V16.616H30.2254V12.83L26.6391 12.6823V20.8911L35.8105 19.971L36.1051 17.7825C36.1051 17.7825 37.7844 2.12122 28.9518 4.01422C19.7363 5.98815 20.7207 18.8275 20.7207 18.8275C20.7207 18.8275 20.6625 34.9391 28.6978 34.9391C35.2636 34.9391 35.5088 25.1944 35.3218 22.2106L30.1284 22.6751Z" fill="#F7F0E8"></path>
<path d="M50.6815 32.4341L44.9183 19.3784C44.9183 19.3784 49.4413 17.7282 49.4413 10.5538C49.4413 3.37937 44.8407 1.60952 37.444 1.43359L37.5357 34.028L42.4433 33.2751L41.3602 21.3523L45.0347 32.8141L50.6815 32.4341ZM40.9615 7.89724H44.1192V15.6012H40.9615V7.89724Z" fill="#F7F0E8"></path>
<path d="M103.497 0.431364L103.118 38.1418L108.031 39.9645L108.144 20.8357L111.594 20.6844L111.547 41.9384L118.663 44.8131L119 0.332844L112.417 0.295898L112.108 14.3069L108.608 14.1556L108.105 0.424327L103.497 0.431364Z" fill="#F7F0E8"></path>
<path d="M91.6006 0.93457L91.373 8.33592L89.5455 8.31129L89.4131 13.1212L91.2037 13.1529L90.551 29.6638C90.551 29.6638 89.9036 36.6887 96.5082 35.7721C104.051 34.7253 102.91 25.6826 101.315 24.1819C100.29 23.2178 96.4765 23.8476 96.4765 23.8476L96.2224 28.9848L97.8312 29.0147V26.4162H99.1561V30.445H95.1693L95.822 13.3376H100.41L100.675 8.60509L96.0178 8.53296L96.3671 1.19671L91.6006 0.93457Z" fill="#F7F0E8"></path>
<path d="M80.8875 32.8144L80.4076 0L73.3796 0.110836L73.833 10.6578C73.833 10.6578 64.1059 9.57408 65.2385 23.5939C66.3728 37.6137 75.0802 29.908 75.0802 29.908L75.0025 32.3358L80.8875 32.8144ZM69.6398 25.457L69.2993 17.3343H74.3992L74.7397 25.457H69.6398Z" fill="#F7F0E8"></path>
<path d="M82.5228 10.3955L82.7168 33.3561L87.6579 34.2322L88.547 10.6911L82.5228 10.3955Z" fill="#F7F0E8"></path>
<path d="M85.6575 9.37382C87.7687 9.37382 89.4802 7.40309 89.4802 4.97207C89.4802 2.54104 87.7687 0.570312 85.6575 0.570312C83.5463 0.570312 81.8348 2.54104 81.8348 4.97207C81.8348 7.40309 83.5463 9.37382 85.6575 9.37382Z" fill="#F7F0E8"></path>
<path d="M58.962 20.404L58.879 26.0179H54.3207L54.4036 9.22016H60.008V16.2978H57.6319V14.8992H59.0572V11.8872H55.8572V18.9209L64.3741 17.9814L64.6899 15.9125C64.6899 15.9125 66.4821 1.63056 57.8206 3.45495C49.3196 5.24415 49.8418 16.9118 49.8418 16.9118C49.8418 16.9118 49.6407 32.1561 57.429 32.1561C63.7937 32.1561 64.1748 22.6963 63.9931 19.987L58.962 20.404Z" fill="#F7F0E8"></path>
<path d="M11.0113 45.3679C11.2671 50.4206 11.5229 55.4979 11.7804 60.5981C12.89 60.2005 13.9978 59.7976 15.1057 59.3859C14.9063 56.5587 14.7088 53.7386 14.5094 50.929C14.9681 52.1587 15.4285 53.399 15.8872 54.6499C16.3582 54.5602 16.8292 54.4722 17.3002 54.3825C17.6565 52.7833 18.0111 51.1735 18.3674 49.5585C18.6215 52.31 18.8737 55.0721 19.1277 57.8448C20.2479 57.5175 21.3663 57.185 22.4865 56.8508C22.0966 51.7998 21.7086 46.7753 21.3205 41.7754C20.4437 42.027 19.5688 42.2768 18.692 42.5284C17.9635 44.5269 17.2349 46.5079 16.5063 48.4677C15.6596 47.0445 14.8146 45.6423 13.9696 44.263C12.9835 44.6342 11.9974 45.0019 11.0113 45.3679Z" fill="#F7F0E8"></path>
<path d="M22.4618 41.7284C22.4618 41.7266 22.6629 56.3973 27.1683 55.6285C31.6737 54.821 30.1443 39.8494 30.1443 39.8741C29.2129 40.1467 28.2814 40.423 27.35 40.6974C27.35 40.6868 28.449 49.3232 26.7291 49.478C25.907 49.5467 25.8947 41.0246 25.8947 41.0246C24.7498 41.2569 23.6067 41.4926 22.4618 41.7284Z" fill="#F7F0E8"></path>
<path d="M37.8762 41.9851C37.8762 41.9868 37.9062 38.3539 35.8299 38.3574C33.7536 38.3609 31.1075 39.2916 31.5449 43.25C31.9807 47.2084 34.6673 48.3361 34.2757 49.5747C33.8841 50.8079 32.3088 49.4797 32.307 49.4832C31.7478 50.5089 31.1904 51.531 30.6312 52.5479C30.6312 52.5426 32.4958 55.0039 34.6409 54.184C36.786 53.3748 39.9401 50.9874 35.8828 45.5653C35.8828 45.56 33.7888 43.5649 34.5262 42.5445C35.2636 41.5171 35.8034 43.2711 35.8034 43.2729C36.4949 42.8419 37.1864 42.4126 37.8762 41.9851Z" fill="#F7F0E8"></path>
<path d="M75.5512 39.6187C75.5512 39.6205 75.5935 35.6409 73.5155 35.4175C71.4374 35.1941 68.7843 35.9559 69.2094 40.4737C69.6345 44.9863 72.3194 46.4043 71.9243 47.759C71.5291 49.1154 69.9556 47.5478 69.9556 47.5478C69.3929 48.6703 68.8319 49.7962 68.2692 50.9239C68.2692 50.9257 70.1285 53.7652 72.2771 52.9084C74.4257 52.0393 77.5887 49.6449 73.5455 43.403C73.5455 43.4047 71.4568 41.0191 72.1977 39.9389C72.9386 38.8622 73.4731 40.8573 73.4731 40.8573C74.1647 40.4421 74.8579 40.0286 75.5512 39.6187Z" fill="#F7F0E8"></path>
<path d="M38.7177 37.6858C38.8358 42.881 38.9558 48.0797 39.074 53.2837C40.1113 53.1412 41.1485 52.9987 42.1876 52.8579C42.0729 47.6293 41.9582 42.4042 41.8436 37.1826C40.801 37.3462 39.7602 37.5134 38.7177 37.6858Z" fill="#F7F0E8"></path>
<path d="M50.8632 41.6159C49.7289 41.7444 48.5946 41.8763 47.4603 42.0118C47.4427 40.8418 47.4233 39.6719 47.4056 38.502C46.9434 38.5671 46.483 38.6339 46.0208 38.7008C46.0491 41.9256 46.0773 45.1504 46.1055 48.3751C46.6788 48.2678 47.2504 48.1623 47.8237 48.0567C47.7743 46.922 47.7267 45.7872 47.6773 44.6525C48.6563 44.5487 49.6354 44.4466 50.6145 44.3464C50.6145 44.3446 51.6588 52.0098 47.6138 52.2649C43.5706 52.5183 42.9884 45.4864 43.1278 43.2134C43.2671 40.9439 43.5847 36.3504 46.7018 36.0566C49.8206 35.7716 50.8261 39.4714 50.8632 41.6159Z" fill="#F7F0E8"></path>
<path d="M54.0861 34.8196C53.825 40.6217 53.5657 46.4203 53.3064 52.2172C54.416 52.1838 55.5256 52.1521 56.6352 52.124C56.8733 48.7391 57.1115 45.3542 57.3496 41.9676C58.2511 41.8761 59.1525 41.7881 60.0557 41.7019C60.068 40.7906 60.0804 39.881 60.0927 38.9697C59.2619 38.9732 58.4328 38.9803 57.6019 38.9891C57.5895 38.4859 57.5772 37.9828 57.5666 37.4796C59.3113 37.3987 61.0559 37.3301 62.8006 37.2738C62.8006 36.2147 62.8006 35.1556 62.8023 34.0947C59.8952 34.3006 56.9898 34.5433 54.0861 34.8196Z" fill="#F7F0E8"></path>
<path d="M64.8187 47.7504C64.7622 48.4524 64.7076 49.1561 64.6511 49.8581C63.8626 49.793 63.074 49.7279 62.2837 49.6645C62.4478 47.1223 62.6118 44.5819 62.7759 42.0415C63.7461 42.1224 65.699 42.2016 66.6692 42.2896C66.6057 43.3575 66.5422 44.4271 66.4787 45.4968C66.1435 45.4669 64.8275 45.444 64.4923 45.4158C64.5047 45.2047 64.5223 44.6118 64.5347 44.4007C64.7058 44.4148 65.2985 44.4042 65.4679 44.4183C65.4996 43.8888 65.5278 43.741 65.5596 43.2114C65.0057 43.1622 64.0284 43.1411 63.4745 43.0936C63.4004 44.3321 63.3263 45.5724 63.2522 46.8127C64.8504 46.8092 66.4469 46.811 68.0452 46.818C68.1192 46.4222 68.1916 46.0263 68.2639 45.6305C68.2639 45.6322 70.132 38.0585 64.9775 38.4103C60.3256 38.7534 60.2004 45.3525 60.2004 45.3455C60.2004 45.3472 59.6906 52.2612 63.732 52.5814C67.0343 52.8453 67.4877 48.5878 67.4401 47.7856C66.5686 47.7715 65.6937 47.7592 64.8187 47.7504Z" fill="#F7F0E8"></path>
<path d="M77.594 37.3842C77.4299 38.9165 77.2676 40.4506 77.1036 41.9847C76.5303 41.9232 75.9587 41.8616 75.3854 41.8C75.3131 42.4598 75.2407 43.1212 75.1684 43.781C75.7417 43.8584 76.3133 43.9376 76.8866 44.0185C76.7031 47.1764 76.5197 50.3396 76.3362 53.5046C77.0524 53.6154 77.7669 53.7263 78.4831 53.8371C78.7212 50.6475 78.9576 47.4614 79.1957 44.2824C79.6262 44.3475 80.0584 44.4126 80.4888 44.4777C80.5064 43.6561 80.5241 42.8327 80.5417 42.0111C80.1078 41.9777 79.6738 41.9443 79.2399 41.9126C79.3722 40.3979 79.5045 38.8831 79.635 37.3701C78.9558 37.3736 78.2749 37.3789 77.594 37.3842Z" fill="#F7F0E8"></path>
<path d="M81.5808 43.1113C81.2527 46.7759 80.9263 50.4493 80.5982 54.1315C81.4502 54.2916 82.3023 54.4517 83.1526 54.6118C83.6818 51.0106 84.2092 47.4251 84.7385 43.8555C83.6871 43.6057 82.6339 43.3576 81.5808 43.1113Z" fill="#F7F0E8"></path>
<path d="M81.3532 39.7858C81.355 38.4945 82.3005 37.504 83.4648 37.5814C84.6291 37.6588 85.5693 38.7601 85.5676 40.0339C85.5658 41.3076 84.6202 42.2857 83.456 42.2259C82.2935 42.1679 81.3514 41.0771 81.3532 39.7858Z" fill="#F7F0E8"></path>
<path d="M86.6136 40.1396C86.1585 45.0322 85.7016 49.946 85.2465 54.879C86.3366 55.1148 87.4268 55.3505 88.5188 55.5827C90.4945 50.9804 92.4685 46.4766 94.4407 42.0977C93.4758 41.8321 92.5126 41.5664 91.5477 41.3008C90.4346 44.0787 89.3214 46.8953 88.2066 49.7489C88.4271 46.6877 88.6458 43.6336 88.8663 40.5847C88.1148 40.4352 87.3651 40.2874 86.6136 40.1396Z" fill="#F7F0E8"></path>
<path d="M95.8856 42.8945C94.0756 47.1819 92.2622 51.5854 90.4487 56.084C91.3061 56.3303 92.1652 56.5766 93.0225 56.8193C93.6681 55.3802 94.3138 53.9517 94.9594 52.5355C95.3352 52.6815 95.7092 52.8275 96.0849 52.9718C95.7797 54.4496 95.4728 55.9327 95.1658 57.4228C96.2384 57.7606 97.3109 58.0948 98.3835 58.4256C98.9445 53.6034 99.5037 48.8216 100.061 44.0785C98.671 43.6827 97.2774 43.2886 95.8856 42.8945ZM96.5171 51.0137C96.1061 50.8641 95.6951 50.7128 95.284 50.5615C95.7321 49.1822 96.1819 47.8118 96.63 46.4501C96.9863 46.5486 97.3445 46.6471 97.7008 46.7456C97.3074 48.1601 96.9123 49.5834 96.5171 51.0137Z" fill="#F7F0E8"></path>
<path d="M102.592 45.1768C101.541 49.6295 100.486 54.1615 99.4313 58.7655C101.439 59.5326 103.446 60.2785 105.454 60.9998C105.842 59.6329 106.23 58.2747 106.618 56.9253C105.546 56.489 104.475 56.0457 103.402 55.5953C104.226 52.4954 105.048 49.4378 105.87 46.4259C104.778 46.0124 103.686 45.5955 102.592 45.1768Z" fill="#F7F0E8"></path>
</g>
<defs>
<clipPath id="clip0_977_2618">
<rect width="119" height="61" fill="white"></rect>
</clipPath>
</defs>
</svg>