
            <svg width="241" height="63" viewBox="0 0 241 63" fill="none" xmlns="http://www.w3.org/2000/svg">
              <path d="M32.6006 62.96C14.5207 62.96 0.840649 49.52 0.840649 31.92C0.840649 14.32 13.9607 0.879995 32.3607 0.879995C39.7207 0.879995 46.0407 3.12 50.5207 7.2V23.36C48.2807 18.64 42.2806 14.72 34.8407 14.72C24.8406 14.72 16.7606 22.16 16.7606 31.92C16.7606 41.6 23.7206 49.12 32.6006 49.12C33.0807 49.12 33.6407 49.04 34.3607 48.96V38.48H31.1607C27.6407 38.48 24.4406 46.64 24.4406 42.96V24.56H53.4807C57.1607 24.56 49.0007 27.76 49.0007 31.28V58.56C44.8406 61.44 38.7607 62.96 32.6006 62.96ZM52.8344 62C56.2744 61.92 57.0744 58.8 57.0744 55.28V8.56C57.0744 5.04 56.2744 1.84 52.5944 1.84H63.4744C83.8744 1.84 94.5944 9.84 94.5944 23.6C94.5944 35.36 86.8344 42.96 71.8744 44.96V55.28C71.9544 58.8 72.7544 62 76.3544 62H52.8344ZM71.8744 30.96C76.6744 30.96 80.2744 28.16 80.2744 23.68C80.2744 19.2 76.6744 16.4 71.8744 16.4V30.96ZM87.3544 62C89.9144 62 91.7544 60.56 93.1144 58.48L110.074 32.32L93.4344 6.24C91.6744 3.76 89.9144 1.84 87.0344 1.84H111.354C108.314 1.84 108.634 3.84 110.314 6.4L118.634 19.2L126.874 6.48C128.474 3.84 129.034 1.84 125.914 1.84H150.234C147.354 1.84 145.594 3.76 143.834 6.24L127.194 32.24L144.234 58.4C145.674 60.56 147.434 62 149.994 62H125.194C128.874 62 127.434 59.2 125.194 55.76L118.634 45.52L112.074 55.76L112.154 55.68C109.834 59.2 108.394 62 112.074 62H87.3544ZM189.504 62.4C161.104 53.76 145.264 32.4 147.104 1.84H166.384C163.264 1.84 161.904 4.16 161.984 7.04C162.384 19.2 165.024 29.04 172.544 36.24V8.56C172.544 5.04 171.744 1.84 168.064 1.84H191.824C188.144 1.84 187.344 5.04 187.344 8.56V47.76C187.344 52.72 187.344 59.36 189.504 62.4ZM192.441 62C195.881 61.92 196.681 58.8 196.681 55.28V8.56C196.681 5.04 195.881 1.84 192.201 1.84H215.961C212.281 1.84 211.481 5.04 211.481 8.56V55.28C211.481 58.8 212.361 62 215.961 62H192.441ZM216.6 62C220.04 61.92 220.84 58.8 220.84 55.28V8.56C220.84 5.04 220.04 1.84 216.36 1.84H240.12C236.44 1.84 235.64 5.04 235.64 8.56V55.28C235.64 58.8 236.52 62 240.12 62H216.6Z" fill="#FECF0A"></path>
            </svg>
          