<svg width="120" height="44" viewBox="0 0 120 44" fill="none" xmlns="http://www.w3.org/2000/svg">
<path d="M97.5032 19.5349H103.087C105.078 19.5349 107.799 19.1109 107.799 15.2263C107.799 12.4941 106.585 10.9154 102.506 10.9154H97.5032V19.5349ZM86.8202 0.59668H107.169C113.24 0.59668 118.482 4.78579 118.482 12.9801C118.482 17.4737 116.833 22.2074 113.288 23.847C116.201 25.2442 117.997 29.2506 118.387 34.6541C118.532 36.7785 118.581 41.9373 119.551 43.9411H108.867C108.332 41.7546 108.14 39.5096 107.993 37.2634C107.7 33.1352 107.41 28.8254 103.185 28.8254H97.5032V43.9411H86.819V0.59668H86.8202Z" fill="#EBD9CD"></path>
<path d="M54.4633 10.5369H62.4797V4.52785H60.9977V8.79698H59.0333V4.96014H57.6624V8.79698H55.944V4.61622H54.4633V10.5369ZM54.4633 16.7035H62.4797V11.1041H60.9977V14.9636H54.4633V16.7035ZM58.2356 21.9136V20.5595C58.2356 19.7498 58.0565 19.0309 57.0331 19.0309C56.0121 19.0309 55.833 19.7498 55.833 20.5595V21.9136H58.2356ZM54.4633 23.6547H62.4797V21.9148H59.6053V20.0842C59.6053 18.1102 58.3359 17.3472 57.0331 17.3472C55.7315 17.3472 54.4633 18.1102 54.4633 20.0842V23.6547ZM54.4633 26.0192H62.4809V24.2793H54.4633V26.0192ZM58.0887 31.5326V29.6255C58.0887 28.8505 57.752 28.429 56.9447 28.429C56.1697 28.429 55.833 28.8505 55.833 29.6255V31.5326H58.0887ZM54.4633 33.2725H62.4797V31.5326H59.3474V29.7927C59.3474 28.9162 59.7176 28.5938 60.5594 28.4732C61.1995 28.3848 61.9733 28.4063 62.4785 28.1961V26.4538C62.0295 26.7643 61.0861 26.7548 60.5809 26.787C59.7737 26.8431 58.9294 27.0855 58.7061 27.9394H58.6834C58.3228 27.0652 57.6158 26.6879 56.6737 26.6879C55.4616 26.6879 54.4621 27.5859 54.4621 29.0058V33.2725H54.4633ZM55.944 37.8497H62.4797V36.1074H55.944V33.7358H54.4633V40.2225H55.944V37.8497ZM63.9688 19.5349H69.5527C71.5457 19.5349 74.2648 19.1109 74.2648 15.2263C74.2648 12.4941 73.0504 10.9154 68.9711 10.9154H63.9688V19.5349ZM53.2846 0.59668H73.6331C79.7042 0.59668 84.949 4.78579 84.949 12.9801C84.949 17.4737 83.2975 22.2074 79.752 23.847C82.6657 25.2442 84.4618 29.2506 84.8511 34.6541C84.9967 36.7785 85.0457 41.9373 86.0154 43.9411H75.3312C74.7986 41.7546 74.604 39.5096 74.4571 37.2634C74.1669 33.1352 73.8767 28.8254 69.6494 28.8254H63.9676V43.9411H53.2834V0.59668H53.2846Z" fill="#EBD9CD"></path>
<path d="M1.58465 7.90101V10.761H16.526V8.57213L7.69398 8.6605V8.51839L16.526 7.58217V6.29247L7.69398 5.35625V5.21654L16.526 5.30371V3.11482H1.58465V5.97483L8.74245 6.87522V6.99942L1.58465 7.90101ZM1.58465 11.1205V15.0397H16.526V12.5845H9.31326V11.1205H7.34409V12.5845H3.53471V11.1205H1.58465ZM1.58465 18.2532V23.1277H3.53471V20.7084L16.526 22.9868V20.4803L3.53471 18.2532H1.58465ZM8.04864 25.7083H10.6806V23.6783H8.04864V25.7083ZM6.40428 26.1932H4.49124C1.85931 26.1932 1.50942 26.6863 1.50942 29.0532C1.50942 31.6302 1.98947 31.8774 4.49124 31.8774H6.73506V29.4401H4.14135C3.71742 29.4401 3.4977 29.3529 3.4977 29.0699C3.4977 28.7522 3.71742 28.6806 4.14135 28.6806H6.2574C7.05032 28.6806 7.43604 28.8585 7.84086 29.0353L14.5007 31.8415H16.526V26.192H14.5007V29.1583L8.44868 26.6159C7.76682 26.3329 7.1781 26.1932 6.40428 26.1932ZM13.9681 35.4861H4.14135C3.71742 35.4861 3.4977 35.3989 3.4977 35.1159C3.4977 34.7983 3.71742 34.7099 4.14135 34.7099H13.9681C14.392 34.7099 14.5926 34.7816 14.5926 35.0825C14.5926 35.381 14.4099 35.4861 13.9681 35.4861ZM1.50942 35.0992C1.50942 37.6416 1.98947 37.9234 4.49124 37.9234H13.617C16.1749 37.9234 16.5988 37.5711 16.5988 35.0634C16.5988 32.5736 16.1212 32.2559 13.617 32.2559H4.49124C1.93335 32.2559 1.50942 32.6094 1.50942 35.0992ZM1.58465 38.7462V40.7225C2.68806 40.8109 3.40455 41.4462 3.51561 42.4349H5.50389V41.2002H16.526V38.7462H1.58465ZM0 0.646484H18.027V43.9897H0V0.646484Z" fill="#EBD9CD"></path>
<path d="M21.1486 12.1H29.1662V6.08982H27.6842V10.3589H25.7186V6.5233H24.3489V10.3589H22.6305V6.17818H21.1486V12.1ZM21.1486 18.6894H29.1662V12.6792H27.6842V16.9483H25.7186V13.1115H24.3489V16.9483H22.6305V12.7676H21.1486V18.6894ZM24.7764 24.2064V22.2993C24.7764 21.5243 24.4385 21.1016 23.63 21.1016C22.855 21.1016 22.5183 21.5231 22.5183 22.2993V24.2064H24.7764ZM21.1486 25.9475H29.1662V24.2052H26.0327V22.4653C26.0327 21.5888 26.4029 21.2676 27.2448 21.1458C27.8848 21.0574 28.661 21.0789 29.1662 20.8687V19.1265C28.7172 19.4369 27.7726 19.4274 27.2675 19.4596C26.4602 19.5158 25.6183 19.7606 25.3926 20.6144H25.3699C25.0117 19.7379 24.3047 19.3605 23.3602 19.3605C22.1481 19.3605 21.1486 20.2585 21.1486 21.6784V25.9475ZM21.1486 33.2617H29.1662V31.5218H25.7067V28.3167H29.1662V26.5768H21.1486V28.3167H24.2259V31.5218H21.1486V33.2617ZM22.6317 37.8425H29.1674V36.1026H22.6317V33.7287H21.1498V40.2153H22.6317V37.8425ZM30.4344 19.5349H36.0183C38.0089 19.5349 40.7304 19.1109 40.7304 15.2263C40.7304 12.4941 39.516 10.9154 35.4367 10.9154H30.4344V19.5349ZM19.7502 0.59668H40.0987C46.1698 0.59668 51.4146 4.78579 51.4146 12.9801C51.4146 17.4737 49.763 22.2074 46.2176 23.847C49.1313 25.2442 50.9297 29.2506 51.3167 34.6541C51.4623 36.7785 51.5113 41.9373 52.481 43.9411H41.7968C41.2642 41.7546 41.0696 39.5096 40.9239 37.2634C40.6313 33.1352 40.3399 28.8254 36.115 28.8254H30.4332V43.9411H19.749V0.59668H19.7502Z" fill="#EBD9CD"></path>
</svg>