<svg width="1190" height="640" viewBox="0 0 1190 640" fill="none" xmlns="http://www.w3.org/2000/svg">
<g clip-path="url(#clip0_2998_19925)">
<rect width="1190" height="640" rx="16" fill="#F4E9E1"/>
<path d="M118.5 193.5V63L214.5 115V219L118.5 193.5Z" fill="#05FF00"/>
<path d="M520 234.5L439.5 235L471 251.5H535L520 234.5Z" fill="#05FF00"/>
<path d="M1190.5 478.5L1071.5 446.5V576L1190.5 640V478.5Z" fill="#05FF00"/>
<path d="M976.5 114.5H776L740 155H899.5L976.5 114.5Z" fill="#05FF00"/>
<path d="M838.5 452L790 426.5H690L712.5 452H838.5Z" fill="#05FF00"/>
<path d="M415 525H215L119 576H370L415 525Z" fill="#05FF00"/>
<rect x="515.5" y="275.5" width="159" height="89" stroke="#0E0E0E"/>
<rect x="495.5" y="264.5" width="199" height="110.5" stroke="#0E0E0E"/>
<rect x="470.5" y="251.5" width="249" height="137.375" stroke="#0E0E0E"/>
<rect x="439.5" y="234.5" width="311.5" height="170.969" stroke="#0E0E0E"/>
<rect x="400.5" y="213.5" width="389.625" height="212.961" stroke="#0E0E0E"/>
<rect x="351.5" y="187.5" width="487.288" height="264.455" stroke="#0E0E0E"/>
<rect x="290.5" y="154.5" width="609.362" height="330.32" stroke="#0E0E0E"/>
<rect x="214.5" y="114.5" width="761.95" height="410.398" stroke="#0E0E0E"/>
<rect x="118.5" y="62.5" width="952.688" height="513.748" stroke="#0E0E0E"/>
<path d="M4.58251e-05 0.0264323L516 275.526" stroke="#0E0E0E"/>
<path d="M1189.99 6.51065e-05L673.986 275.5" stroke="#0E0E0E"/>
<path d="M4.58251e-05 639.526L516 364.026" stroke="#0E0E0E"/>
<path d="M1189.99 639.526L673.986 364.026" stroke="#0E0E0E"/>
<line y1="319.5" x2="515" y2="319.5" stroke="#0E0E0E"/>
<line x1="675" y1="319.5" x2="1190" y2="319.5" stroke="#0E0E0E"/>
<line x1="594.5" y1="275" x2="594.5" y2="2.18557e-08" stroke="#0E0E0E"/>
<path d="M635.5 275L876.5 -1.00001" stroke="#0E0E0E"/>
<path d="M674 299L1191 162" stroke="#0E0E0E"/>
<path d="M674 341L1191 478" stroke="#0E0E0E"/>
<path d="M516 341L-0.999994 478" stroke="#0E0E0E"/>
<path d="M516 299L-0.999994 162" stroke="#0E0E0E"/>
<path d="M635.5 364L876.5 640" stroke="#0E0E0E"/>
<path d="M555.5 275L314.5 -1.00001" stroke="#0E0E0E"/>
<path d="M555.5 364L314.5 640" stroke="#0E0E0E"/>
<line x1="594.5" y1="640" x2="594.5" y2="365" stroke="#0E0E0E"/>
<path d="M520.5 310.724L538.509 315.723L561.053 233.748L542.973 229.092L520.5 310.724Z" fill="#05FF00" stroke="#05FF00" stroke-width="6.41" stroke-miterlimit="10"/>
<path d="M533.198 331.587L517.034 322.157L496.82 357.366L512.984 366.796L533.198 331.587Z" fill="#05FF00" stroke="#05FF00" stroke-width="8" stroke-miterlimit="10"/>
<path d="M406.083 310.724L388.088 315.723L365.53 233.748L383.624 229.092L406.083 310.724Z" fill="#05FF00" stroke="#05FF00" stroke-width="6.41" stroke-miterlimit="10"/>
<path d="M413.608 366.789L429.771 357.358L409.557 322.149L393.394 331.58L413.608 366.789Z" fill="#05FF00" stroke="#05FF00" stroke-width="8" stroke-miterlimit="10"/>
<path d="M182.222 309.411L200.897 309.339L200.755 234.749H182.094L182.222 309.411Z" fill="#05FF00" stroke="#05FF00" stroke-width="6.41" stroke-miterlimit="10"/>
<path d="M69.6751 309.411L51 309.339L51.1417 234.749H69.8027L69.6751 309.411Z" fill="#05FF00" stroke="#05FF00" stroke-width="6.41" stroke-miterlimit="10"/>
<path d="M195.845 331.557L179.681 322.127L159.467 357.336L175.631 366.766L195.845 331.557Z" fill="#05FF00" stroke="#05FF00" stroke-width="6.41" stroke-miterlimit="10"/>
<path d="M76.2483 366.78L92.4116 357.35L72.1979 322.141L56.0346 331.571L76.2483 366.78Z" fill="#05FF00" stroke="#05FF00" stroke-width="6.41" stroke-miterlimit="10"/>
<path d="M884.75 331.594L868.586 322.164L848.373 357.373L864.536 366.803L884.75 331.594Z" fill="#05FF00" stroke="#05FF00" stroke-width="8" stroke-miterlimit="10"/>
<path d="M765.181 366.817L781.344 357.387L761.131 322.178L744.967 331.608L765.181 366.817Z" fill="#05FF00" stroke="#05FF00" stroke-width="8" stroke-miterlimit="10"/>
<path d="M737.685 318.957L753.848 309.527L708.247 230.097L692.083 239.527L737.685 318.957Z" fill="#05FF00" stroke="#05FF00" stroke-width="8" stroke-miterlimit="10"/>
<path d="M937.651 239.5L921.487 230.07L875.886 309.501L892.049 318.931L937.651 239.5Z" fill="#05FF00" stroke="#05FF00" stroke-width="8" stroke-miterlimit="10"/>
<path d="M262.045 262.749C257.366 269.135 254.305 277.452 252.846 287.669V280.157V279.657H252.346H251.653L251.962 266.764C254.484 256.574 258.761 248.129 264.776 241.41C273.706 231.434 285.931 226.436 301.485 226.436C312.258 226.436 321.701 228.944 329.86 233.933C338.005 238.935 344.275 246.016 348.656 255.232L348.656 255.232C353.039 264.436 355.239 275.372 355.239 288.028V380.516H327.603V292.27C327.603 278.475 324.528 267.748 318.293 260.157C312.047 252.551 303.209 248.761 291.835 248.761C278.834 248.761 268.883 253.419 262.045 262.749ZM251.141 280.657H251.846V302.368H248.028V283.371H249.03H249.497L249.529 282.905C249.786 279.118 250.221 275.51 250.835 272.078L250.641 280.145L250.629 280.657H251.141ZM251.834 230.378L250.965 266.631C249.769 271.496 248.968 276.743 248.564 282.371H247.528H247.028V282.871V302.868V303.368H247.528H251.846V380.516H224.209V230.378H251.834Z" fill="#05FF00" stroke="#05FF00"/>
<path d="M599.787 378.86V378.884C590.444 374.594 583.015 368.598 577.484 360.884L577.484 360.884C571.911 353.124 568.679 344.045 567.826 333.632L593.36 332.752C594.028 339.309 596.094 345.134 599.577 350.244L599.577 350.245C603.143 355.463 607.889 359.463 613.791 362.228C619.689 364.992 626.295 366.361 633.599 366.361C643.125 366.361 651.107 364.229 657.54 359.92C664.01 355.587 667.256 349.576 667.256 341.935C667.256 335.933 664.981 331.088 660.436 327.461C655.926 323.861 649.107 321.155 640.032 319.334L640.026 319.333L614.408 314.49L614.408 314.49L614.399 314.489C600.193 312.071 589.609 307.218 582.566 299.95C575.525 292.683 572.01 283.471 572.01 272.273C572.01 262.88 574.45 254.595 579.306 247.413C584.165 240.228 590.974 234.686 599.74 230.778C608.509 226.868 618.385 224.922 629.377 224.922C640.96 224.922 651.24 227.137 660.201 231.541C669.167 235.947 676.34 242.104 681.716 250C687 257.775 689.872 266.648 690.351 276.659L665.718 278.115C665.246 271.783 663.479 266.057 660.411 260.973L660.41 260.972C657.245 255.751 652.912 251.703 647.406 248.819L647.405 248.818C641.901 245.95 635.799 244.519 629.094 244.519C623.411 244.519 618.216 245.486 613.529 247.428L613.527 247.429C608.828 249.391 605.081 252.318 602.303 256.228L602.302 256.229C599.52 260.159 598.144 264.603 598.144 269.545C598.144 275.125 600.004 279.742 603.721 283.386L603.721 283.386C607.428 287.006 612.76 289.408 619.651 290.634C619.652 290.634 619.653 290.634 619.654 290.634L645.267 295.476L645.273 295.477C661.305 298.296 673.347 303.369 681.499 310.655C689.616 317.923 693.687 327.424 693.687 339.207C693.687 348.608 691.109 356.83 685.948 363.895L685.948 363.895C680.781 370.981 673.62 376.383 664.458 380.081C655.272 383.782 644.993 385.644 633.599 385.644C621.189 385.644 610.166 383.483 600.491 379.174L599.787 378.86Z" fill="#05FF00" stroke="#05FF00"/>
<path d="M978.976 383.901C964.655 383.901 953.154 380.227 944.436 372.897L944.422 372.854L944.315 372.763C935.597 365.398 931.229 355.445 931.229 342.849C931.229 333.665 933.806 325.792 938.958 319.232L938.959 319.232C944.118 312.649 951.815 307.295 962.115 303.19L962.116 303.19C972.404 299.07 985.165 296.206 1000.41 294.595L1000.41 294.595L1031.16 291.267L1031.6 291.219V290.77V284.1C1031.6 276.569 1030.23 270.075 1027.48 264.634L1027.48 264.632C1024.72 259.208 1020.79 254.993 1015.69 252.015L1015.69 252.014C1010.57 249.034 1004.55 247.561 997.651 247.561C987.889 247.561 979.826 250.586 973.487 256.642C967.247 262.603 963.608 270.596 962.529 280.576L935.788 279.997C936.639 269.392 939.774 260.009 945.16 251.836C950.636 243.542 957.95 237.13 967.124 232.626L967.124 232.626C976.284 228.123 986.763 225.864 998.558 225.864C1010.35 225.864 1020.8 228.32 1029.98 233.232C1039.13 238.145 1046.2 245.034 1051.19 253.933C1056.15 262.833 1058.66 273.202 1058.66 285.042V337.75C1058.66 345.849 1059.01 353.678 1059.72 361.265C1060.41 368.581 1061.32 375.013 1062.47 380.558H1035.76C1033.81 371.598 1032.84 360.854 1032.84 348.348L1031.86 348.204C1028.68 358.789 1022.32 367.381 1012.75 373.991C1003.2 380.597 991.951 383.901 978.976 383.901ZM1031.9 307.411V306.85L1031.35 306.914L1002.41 310.242L1002.41 310.243C987.716 312.06 976.773 315.257 969.637 319.86C962.449 324.496 958.852 331.169 958.852 339.821C958.852 348.431 961.565 354.288 967.036 358.542C972.473 362.769 979.577 364.861 988.299 364.861C996.22 364.861 1003.55 362.925 1010.26 359.037C1016.97 355.163 1022.26 349.739 1026.12 342.792C1029.97 335.854 1031.9 327.984 1031.9 319.224V307.411Z" fill="#05FF00" stroke="#05FF00"/>
<path d="M1079.88 338.935V169.5H1107.22V333.464C1107.22 344.213 1109.89 351.458 1115.44 354.942L1115.45 354.943C1120.83 358.308 1128.18 358.493 1137.39 355.652L1137.97 378.53C1127.92 381.457 1118.56 382.367 1109.91 381.276L1109.76 381.257L1109.73 381.271C1101.08 380.147 1093.96 376.176 1088.35 369.356C1082.73 362.525 1079.88 352.402 1079.88 338.935Z" fill="#05FF00" stroke="#05FF00"/>
<path d="M366.72 331H386.32V471H366.72V331ZM410.167 371.2H429.167L428.367 404.4H429.167V471H410.167V371.2ZM478.767 412.4C478.767 403.333 476.701 396.333 472.567 391.4C468.567 386.467 462.834 384 455.367 384C446.834 384 440.301 387.067 435.767 393.2C431.367 399.2 429.167 407.933 429.167 419.4H425.967V406.2H426.967C427.767 394.467 431.167 385.267 437.167 378.6C443.167 371.933 451.367 368.6 461.767 368.6C468.967 368.6 475.301 370.267 480.767 373.6C486.234 376.933 490.434 381.667 493.367 387.8C496.301 393.933 497.767 401.2 497.767 409.6V471H478.767V412.4ZM561.314 473.6C552.514 473.6 544.581 471.4 537.514 467C530.447 462.467 524.914 456.2 520.914 448.2C517.047 440.2 515.114 431.133 515.114 421C515.114 411 517.047 402 520.914 394C524.914 386 530.447 379.8 537.514 375.4C544.581 370.867 552.514 368.6 561.314 368.6C570.114 368.6 577.781 370.8 584.314 375.2C590.847 379.467 595.847 385.533 599.314 393.4C602.914 401.267 604.714 410.467 604.714 421C604.714 431.533 602.914 440.8 599.314 448.8C595.847 456.667 590.847 462.8 584.314 467.2C577.781 471.467 570.114 473.6 561.314 473.6ZM565.914 458C572.181 458 577.714 456.467 582.514 453.4C587.314 450.2 591.047 445.867 593.714 440.4C596.381 434.8 597.714 428.333 597.714 421C597.714 413.8 596.381 407.467 593.714 402C591.047 396.4 587.314 392.067 582.514 389C577.714 385.8 572.247 384.2 566.114 384.2C559.981 384.2 554.514 385.8 549.714 389C544.914 392.2 541.114 396.6 538.314 402.2C535.647 407.667 534.314 413.933 534.314 421C534.314 428.2 535.647 434.6 538.314 440.2C541.114 445.667 544.914 450 549.714 453.2C554.514 456.4 559.914 458 565.914 458ZM596.714 471C596.714 463.8 596.714 456.667 596.714 449.6V435.8H599.514V406.4H596.714V331H615.514V449.6C615.514 456.667 615.514 463.8 615.514 471H596.714ZM683.822 474.4C674.222 474.4 665.555 472.133 657.822 467.6C650.222 462.933 644.289 456.6 640.022 448.6C635.755 440.467 633.622 431.267 633.622 421C633.622 410.867 635.755 401.733 640.022 393.6C644.289 385.467 650.222 379.133 657.822 374.6C665.422 369.933 674.022 367.6 683.622 367.6C694.555 367.6 703.822 370.533 711.422 376.4C719.155 382.133 724.689 389.533 728.022 398.6C731.355 407.533 732.422 416.8 731.222 426.4H645.022V412.2H712.822C712.822 406.6 711.555 401.533 709.022 397C706.622 392.333 703.155 388.667 698.622 386C694.222 383.333 689.222 382 683.622 382C677.755 382 672.422 383.467 667.622 386.4C662.955 389.333 659.289 393.4 656.622 398.6C654.089 403.667 652.822 409.467 652.822 416V425.2C652.822 431.733 654.155 437.6 656.822 442.8C659.489 448 663.155 452.133 667.822 455.2C672.622 458.133 678.022 459.6 684.022 459.6C690.955 459.6 697.089 457.8 702.422 454.2C707.755 450.6 711.355 445.733 713.222 439.6L729.422 442.2C727.955 448.333 725.089 453.867 720.822 458.8C716.555 463.733 711.222 467.6 704.822 470.4C698.422 473.067 691.422 474.4 683.822 474.4ZM774.834 421H773.834L736.834 371.2H758.234L793.634 421H794.634L832.034 471H810.234L774.834 421ZM774.634 419.6H794.034L757.234 471H736.834L774.634 419.6ZM811.234 371.2H831.434L793.834 422.6H774.434L811.234 371.2Z" fill="#0E0E0E"/>
</g>
<rect x="0.5" y="0.5" width="1189" height="639" rx="15.5" stroke="#0E0E0E"/>
<defs>
<clipPath id="clip0_2998_19925">
<rect width="1190" height="640" rx="16" fill="white"/>
</clipPath>
</defs>
</svg>
